<svg xmlns="http://www.w3.org/2000/svg" xmlns:xlink="http://www.w3.org/1999/xlink" width="500" zoomAndPan="magnify" viewBox="0 0 375 374.999991" height="500" preserveAspectRatio="xMidYMid meet" version="1.0"><defs><clipPath id="614795eb37"><path d="M 187.5 0 C 83.945312 0 0 83.945312 0 187.5 C 0 291.054688 83.945312 375 187.5 375 C 291.054688 375 375 291.054688 375 187.5 C 375 83.945312 291.054688 0 187.5 0 Z M 187.5 0 " clip-rule="nonzero"/></clipPath><clipPath id="004ddc7a8c"><path d="M 101.941406 59 L 272.941406 59 L 272.941406 311 L 101.941406 311 Z M 101.941406 59 " clip-rule="nonzero"/></clipPath></defs><g clip-path="url(#614795eb37)"><rect x="-37.5" width="450" fill="#ffffff" y="-37.499999" height="449.999989" fill-opacity="1"/><path stroke-linecap="butt" transform="matrix(0.75, 0, 0, 0.75, 0.0000045, 0.000000000000042633)" fill="none" stroke-linejoin="miter" d="M 249.999994 -0.000000000000056843 C 111.927078 -0.000000000000056843 -0.000006 111.927084 -0.000006 250 C -0.000006 388.072917 111.927078 500.000001 249.999994 500.000001 C 388.072911 500.000001 499.999995 388.072917 499.999995 250 C 499.999995 111.927084 388.072911 -0.000000000000056843 249.999994 -0.000000000000056843 Z M 249.999994 -0.000000000000056843 " stroke="#000000" stroke-width="8" stroke-opacity="1" stroke-miterlimit="4"/></g><g clip-path="url(#004ddc7a8c)"><path fill="#000000" d="M 101.941406 66.390625 C 101.941406 62.75 104.886719 59.804688 108.519531 59.804688 L 266.367188 59.804688 C 269.996094 59.804688 272.941406 62.75 272.941406 66.390625 L 272.941406 303.484375 C 272.941406 307.121094 269.996094 310.070312 266.367188 310.070312 L 108.519531 310.070312 C 104.886719 310.070312 101.941406 307.121094 101.941406 303.484375 Z M 115.097656 72.976562 L 115.097656 296.898438 L 259.789062 296.898438 L 259.789062 72.976562 Z M 115.097656 72.976562 " fill-opacity="1" fill-rule="evenodd"/></g><path fill="#000000" d="M 115.097656 303.484375 L 128.25 303.484375 L 128.25 329.828125 L 115.097656 329.828125 Z M 115.097656 303.484375 " fill-opacity="1" fill-rule="evenodd"/><path fill="#000000" d="M 246.632812 303.484375 L 259.789062 303.484375 L 259.789062 329.828125 L 246.632812 329.828125 Z M 246.632812 303.484375 " fill-opacity="1" fill-rule="evenodd"/><path fill="#000000" d="M 141.402344 184.9375 L 141.402344 66.390625 L 154.558594 66.390625 L 154.558594 182.207031 L 192.09375 219.796875 C 193.324219 221.03125 194.019531 222.707031 194.019531 224.453125 L 194.019531 303.484375 L 180.867188 303.484375 L 180.867188 227.179688 L 143.332031 189.59375 C 142.097656 188.359375 141.402344 186.683594 141.402344 184.9375 Z M 141.402344 184.9375 " fill-opacity="1" fill-rule="evenodd"/><path fill="#000000" d="M 220.328125 92.734375 L 233.480469 92.734375 L 233.480469 119.078125 L 220.328125 119.078125 Z M 220.328125 92.734375 " fill-opacity="1" fill-rule="evenodd"/></svg>