<svg xmlns="http://www.w3.org/2000/svg" xmlns:xlink="http://www.w3.org/1999/xlink" width="500" zoomAndPan="magnify" viewBox="0 0 375 374.999991" height="500" preserveAspectRatio="xMidYMid meet" version="1.0"><defs><clipPath id="b48818c95f"><path d="M 187.5 0 C 83.945312 0 0 83.945312 0 187.5 C 0 291.054688 83.945312 375 187.5 375 C 291.054688 375 375 291.054688 375 187.5 C 375 83.945312 291.054688 0 187.5 0 Z M 187.5 0 " clip-rule="nonzero"/></clipPath><clipPath id="12f2132cb3"><path d="M 56.441406 56.441406 L 318.191406 56.441406 L 318.191406 318.191406 L 56.441406 318.191406 Z M 56.441406 56.441406 " clip-rule="nonzero"/></clipPath></defs><g clip-path="url(#b48818c95f)"><rect x="-37.5" width="450" fill="#ffffff" y="-37.499999" height="449.999989" fill-opacity="1"/><path stroke-linecap="butt" transform="matrix(0.75, 0, 0, 0.75, 0.0000045, 0.000000000000042633)" fill="none" stroke-linejoin="miter" d="M 249.999994 -0.000000000000056843 C 111.927078 -0.000000000000056843 -0.000006 111.927084 -0.000006 250 C -0.000006 388.072917 111.927078 500.000001 249.999994 500.000001 C 388.072911 500.000001 499.999995 388.072917 499.999995 250 C 499.999995 111.927084 388.072911 -0.000000000000056843 249.999994 -0.000000000000056843 Z M 249.999994 -0.000000000000056843 " stroke="#000000" stroke-width="8" stroke-opacity="1" stroke-miterlimit="4"/></g><path fill="#000000" d="M 242.421875 249.3125 L 132.210938 249.3125 C 128.402344 249.3125 125.324219 246.230469 125.324219 242.421875 L 125.324219 132.210938 C 125.324219 128.40625 128.402344 125.324219 132.210938 125.324219 L 242.417969 125.324219 C 246.230469 125.324219 249.304688 128.410156 249.304688 132.210938 L 249.304688 242.417969 C 249.308594 246.230469 246.230469 249.3125 242.421875 249.3125 M 139.097656 235.53125 L 235.535156 235.53125 L 235.535156 139.097656 L 139.097656 139.097656 Z M 139.097656 235.53125 " fill-opacity="1" fill-rule="evenodd"/><g clip-path="url(#12f2132cb3)"><path fill="#000000" d="M 311.300781 176.984375 C 315.089844 176.984375 318.191406 173.886719 318.191406 170.097656 C 318.191406 166.308594 315.089844 163.207031 311.300781 163.207031 L 290.636719 163.207031 L 290.636719 142.539062 L 311.300781 142.539062 C 315.089844 142.539062 318.191406 139.441406 318.191406 135.652344 C 318.191406 131.863281 315.089844 128.765625 311.300781 128.765625 L 290.636719 128.765625 L 290.636719 104.65625 C 290.636719 93.289062 281.335938 83.992188 269.96875 83.992188 L 245.863281 83.988281 L 245.863281 63.324219 C 245.863281 59.539062 242.757812 56.433594 238.972656 56.433594 C 235.183594 56.433594 232.085938 59.539062 232.085938 63.324219 L 232.085938 83.988281 L 211.421875 83.988281 L 211.421875 63.324219 C 211.421875 59.539062 208.320312 56.433594 204.527344 56.433594 C 200.746094 56.433594 197.640625 59.539062 197.640625 63.324219 L 197.640625 83.988281 L 176.980469 83.988281 L 176.980469 63.324219 C 176.980469 59.539062 173.878906 56.433594 170.089844 56.433594 C 166.300781 56.433594 163.203125 59.539062 163.203125 63.324219 L 163.203125 83.988281 L 142.539062 83.988281 L 142.539062 63.324219 C 142.539062 59.539062 139.4375 56.433594 135.648438 56.433594 C 131.863281 56.433594 128.757812 59.539062 128.757812 63.324219 L 128.757812 83.988281 L 104.652344 83.988281 C 93.289062 83.988281 83.988281 93.289062 83.988281 104.65625 L 83.988281 128.765625 L 63.320312 128.765625 C 59.535156 128.765625 56.433594 131.867188 56.433594 135.652344 C 56.4375 139.441406 59.535156 142.542969 63.320312 142.542969 L 83.988281 142.539062 L 83.988281 163.207031 L 63.320312 163.207031 C 59.535156 163.207031 56.433594 166.308594 56.433594 170.097656 C 56.4375 173.886719 59.535156 176.984375 63.320312 176.984375 L 83.988281 176.984375 L 83.988281 197.648438 L 63.320312 197.648438 C 59.535156 197.648438 56.433594 200.75 56.433594 204.539062 C 56.4375 208.328125 59.535156 211.425781 63.320312 211.425781 L 83.988281 211.425781 L 83.988281 232.09375 L 63.320312 232.09375 C 59.535156 232.09375 56.433594 235.191406 56.433594 238.984375 C 56.4375 242.769531 59.535156 245.871094 63.320312 245.871094 L 83.988281 245.871094 L 83.988281 269.976562 C 83.988281 281.34375 93.285156 290.644531 104.652344 290.644531 L 128.757812 290.644531 L 128.757812 311.308594 C 128.757812 315.097656 131.859375 318.199219 135.648438 318.199219 C 139.4375 318.199219 142.535156 315.097656 142.535156 311.308594 L 142.539062 290.644531 L 163.203125 290.644531 L 163.203125 311.308594 C 163.203125 315.097656 166.300781 318.199219 170.089844 318.199219 C 173.878906 318.199219 176.976562 315.097656 176.976562 311.308594 L 176.980469 290.644531 L 197.640625 290.644531 L 197.640625 311.308594 C 197.640625 315.097656 200.742188 318.199219 204.527344 318.199219 C 208.320312 318.199219 211.417969 315.097656 211.417969 311.308594 L 211.421875 290.644531 L 232.085938 290.644531 L 232.085938 311.308594 C 232.085938 315.097656 235.183594 318.199219 238.972656 318.199219 C 242.757812 318.199219 245.863281 315.097656 245.863281 311.308594 L 245.863281 290.644531 L 269.972656 290.644531 C 281.339844 290.644531 290.636719 281.34375 290.636719 269.980469 L 290.636719 245.871094 L 311.300781 245.871094 C 315.089844 245.871094 318.191406 242.769531 318.191406 238.984375 C 318.191406 235.191406 315.089844 232.09375 311.300781 232.09375 L 290.636719 232.09375 L 290.636719 211.421875 L 311.300781 211.421875 C 315.089844 211.421875 318.191406 208.324219 318.191406 204.535156 C 318.191406 200.75 315.089844 197.648438 311.300781 197.648438 L 290.636719 197.648438 L 290.636719 176.980469 L 311.300781 176.980469 Z M 276.859375 269.972656 C 276.859375 273.761719 273.757812 276.859375 269.972656 276.859375 L 104.65625 276.859375 C 100.871094 276.859375 97.769531 273.761719 97.769531 269.972656 L 97.769531 104.660156 C 97.769531 100.871094 100.871094 97.769531 104.65625 97.769531 L 269.972656 97.769531 C 273.757812 97.769531 276.859375 100.871094 276.859375 104.660156 Z M 276.859375 269.972656 " fill-opacity="1" fill-rule="evenodd"/></g></svg>