<svg xmlns="http://www.w3.org/2000/svg" xmlns:xlink="http://www.w3.org/1999/xlink" width="500" zoomAndPan="magnify" viewBox="0 0 375 374.999991" height="500" preserveAspectRatio="xMidYMid meet" version="1.0"><defs><clipPath id="567b57b99c"><path d="M 187.5 0 C 83.945312 0 0 83.945312 0 187.5 C 0 291.054688 83.945312 375 187.5 375 C 291.054688 375 375 291.054688 375 187.5 C 375 83.945312 291.054688 0 187.5 0 Z M 187.5 0 " clip-rule="nonzero"/></clipPath><clipPath id="ac79b00577"><path d="M 80.945312 42.007812 L 293.945312 42.007812 L 293.945312 329.257812 L 80.945312 329.257812 Z M 80.945312 42.007812 " clip-rule="nonzero"/></clipPath></defs><g clip-path="url(#567b57b99c)"><rect x="-37.5" width="450" fill="#ffffff" y="-37.499999" height="449.999989" fill-opacity="1"/><path stroke-linecap="butt" transform="matrix(0.75, 0, 0, 0.75, 0.0000045, 0.000000000000042633)" fill="none" stroke-linejoin="miter" d="M 249.999994 -0.000000000000056843 C 111.927078 -0.000000000000056843 -0.000006 111.927084 -0.000006 250 C -0.000006 388.072917 111.927078 500.000001 249.999994 500.000001 C 388.072911 500.000001 499.999995 388.072917 499.999995 250 C 499.999995 111.927084 388.072911 -0.000000000000056843 249.999994 -0.000000000000056843 Z M 249.999994 -0.000000000000056843 " stroke="#000000" stroke-width="8" stroke-opacity="1" stroke-miterlimit="4"/></g><g clip-path="url(#ac79b00577)"><path fill="#000000" d="M 270.792969 42.140625 L 104.097656 42.140625 C 103.339844 42.140625 102.582031 42.179688 101.828125 42.253906 C 101.074219 42.328125 100.324219 42.4375 99.582031 42.585938 C 98.835938 42.734375 98.101562 42.917969 97.375 43.140625 C 96.652344 43.359375 95.9375 43.613281 95.238281 43.902344 C 94.535156 44.195312 93.851562 44.519531 93.183594 44.875 C 92.515625 45.234375 91.863281 45.621094 91.234375 46.042969 C 90.605469 46.464844 89.996094 46.914062 89.410156 47.394531 C 88.824219 47.875 88.261719 48.386719 87.726562 48.921875 C 87.191406 49.457031 86.679688 50.019531 86.199219 50.605469 C 85.71875 51.191406 85.269531 51.796875 84.847656 52.429688 C 84.425781 53.058594 84.035156 53.707031 83.679688 54.375 C 83.320312 55.042969 82.996094 55.730469 82.707031 56.429688 C 82.417969 57.128906 82.160156 57.84375 81.941406 58.566406 C 81.722656 59.292969 81.539062 60.027344 81.390625 60.769531 C 81.242188 61.515625 81.128906 62.261719 81.054688 63.019531 C 80.980469 63.773438 80.945312 64.527344 80.945312 65.285156 L 80.945312 310.609375 C 80.945312 311.21875 80.972656 311.820312 81.035156 312.425781 C 81.09375 313.027344 81.183594 313.628906 81.300781 314.222656 C 81.417969 314.816406 81.566406 315.40625 81.742188 315.984375 C 81.917969 316.566406 82.121094 317.136719 82.355469 317.695312 C 82.585938 318.257812 82.847656 318.804688 83.132812 319.339844 C 83.417969 319.875 83.730469 320.394531 84.066406 320.898438 C 84.402344 321.402344 84.765625 321.886719 85.148438 322.355469 C 85.535156 322.824219 85.941406 323.273438 86.371094 323.703125 C 86.796875 324.132812 87.246094 324.539062 87.714844 324.921875 C 88.183594 325.308594 88.671875 325.667969 89.175781 326.003906 C 89.679688 326.34375 90.199219 326.652344 90.734375 326.9375 C 91.269531 327.226562 91.816406 327.484375 92.378906 327.714844 C 92.9375 327.949219 93.507812 328.152344 94.089844 328.328125 C 94.671875 328.503906 95.257812 328.652344 95.851562 328.769531 C 96.449219 328.886719 97.046875 328.976562 97.652344 329.035156 C 98.253906 329.097656 98.859375 329.125 99.464844 329.125 L 275.421875 329.125 C 276.03125 329.125 276.636719 329.097656 277.238281 329.035156 C 277.84375 328.976562 278.441406 328.886719 279.035156 328.769531 C 279.632812 328.652344 280.21875 328.503906 280.800781 328.328125 C 281.378906 328.152344 281.949219 327.949219 282.511719 327.714844 C 283.070312 327.484375 283.617188 327.226562 284.152344 326.9375 C 284.6875 326.652344 285.207031 326.34375 285.714844 326.003906 C 286.21875 325.667969 286.703125 325.308594 287.171875 324.921875 C 287.640625 324.539062 288.089844 324.132812 288.519531 323.703125 C 288.949219 323.273438 289.355469 322.824219 289.742188 322.355469 C 290.125 321.886719 290.484375 321.402344 290.824219 320.898438 C 291.160156 320.394531 291.472656 319.875 291.757812 319.339844 C 292.042969 318.804688 292.300781 318.257812 292.535156 317.695312 C 292.765625 317.136719 292.972656 316.566406 293.148438 315.984375 C 293.324219 315.40625 293.46875 314.816406 293.589844 314.222656 C 293.707031 313.628906 293.796875 313.027344 293.855469 312.425781 C 293.914062 311.820312 293.945312 311.21875 293.945312 310.609375 L 293.945312 65.285156 C 293.945312 64.527344 293.90625 63.773438 293.832031 63.019531 C 293.757812 62.261719 293.648438 61.515625 293.5 60.769531 C 293.351562 60.027344 293.167969 59.292969 292.949219 58.566406 C 292.726562 57.84375 292.472656 57.128906 292.183594 56.429688 C 291.890625 55.730469 291.570312 55.042969 291.210938 54.375 C 290.851562 53.707031 290.464844 53.058594 290.042969 52.429688 C 289.621094 51.796875 289.171875 51.191406 288.6875 50.605469 C 288.207031 50.019531 287.699219 49.457031 287.164062 48.921875 C 286.628906 48.386719 286.066406 47.875 285.480469 47.394531 C 284.894531 46.914062 284.285156 46.464844 283.65625 46.042969 C 283.023438 45.621094 282.375 45.234375 281.707031 44.875 C 281.039062 44.519531 280.351562 44.195312 279.652344 43.902344 C 278.953125 43.613281 278.238281 43.359375 277.511719 43.140625 C 276.789062 42.917969 276.054688 42.734375 275.308594 42.585938 C 274.566406 42.4375 273.816406 42.328125 273.0625 42.253906 C 272.308594 42.179688 271.550781 42.140625 270.792969 42.140625 Z M 284.683594 310.609375 C 284.683594 311.21875 284.625 311.820312 284.507812 312.417969 C 284.386719 313.011719 284.210938 313.589844 283.980469 314.152344 C 283.746094 314.714844 283.460938 315.25 283.125 315.753906 C 282.785156 316.257812 282.402344 316.726562 281.972656 317.15625 C 281.542969 317.585938 281.074219 317.96875 280.566406 318.308594 C 280.0625 318.644531 279.527344 318.929688 278.96875 319.164062 C 278.40625 319.394531 277.824219 319.570312 277.230469 319.691406 C 276.632812 319.808594 276.03125 319.867188 275.421875 319.867188 L 99.464844 319.867188 C 98.859375 319.867188 98.257812 319.808594 97.660156 319.691406 C 97.0625 319.570312 96.484375 319.394531 95.921875 319.164062 C 95.359375 318.929688 94.828125 318.644531 94.320312 318.308594 C 93.816406 317.96875 93.347656 317.585938 92.917969 317.15625 C 92.488281 316.726562 92.105469 316.257812 91.765625 315.753906 C 91.429688 315.25 91.144531 314.714844 90.910156 314.152344 C 90.679688 313.589844 90.503906 313.011719 90.382812 312.417969 C 90.265625 311.820312 90.207031 311.21875 90.207031 310.609375 L 90.207031 282.839844 C 90.207031 282.230469 90.265625 281.628906 90.382812 281.03125 C 90.503906 280.4375 90.679688 279.855469 90.910156 279.296875 C 91.144531 278.734375 91.429688 278.199219 91.765625 277.695312 C 92.105469 277.1875 92.488281 276.722656 92.917969 276.292969 C 93.347656 275.863281 93.816406 275.476562 94.320312 275.140625 C 94.828125 274.804688 95.359375 274.519531 95.921875 274.285156 C 96.484375 274.050781 97.0625 273.875 97.660156 273.757812 C 98.257812 273.640625 98.859375 273.582031 99.464844 273.582031 L 275.421875 273.582031 C 276.03125 273.582031 276.632812 273.640625 277.230469 273.757812 C 277.824219 273.875 278.40625 274.050781 278.96875 274.285156 C 279.527344 274.519531 280.0625 274.804688 280.566406 275.140625 C 281.074219 275.476562 281.542969 275.863281 281.972656 276.292969 C 282.402344 276.722656 282.785156 277.1875 283.125 277.695312 C 283.460938 278.199219 283.746094 278.734375 283.980469 279.296875 C 284.210938 279.855469 284.386719 280.4375 284.507812 281.03125 C 284.625 281.628906 284.683594 282.230469 284.683594 282.839844 Z M 284.683594 266.914062 C 281.835938 265.199219 278.75 264.335938 275.421875 264.324219 L 99.464844 264.324219 C 96.140625 264.335938 93.054688 265.199219 90.207031 266.914062 L 90.207031 88.429688 L 284.683594 88.429688 Z M 284.683594 79.171875 L 90.207031 79.171875 L 90.207031 65.285156 C 90.207031 64.375 90.292969 63.472656 90.472656 62.578125 C 90.652344 61.683594 90.914062 60.816406 91.261719 59.972656 C 91.613281 59.128906 92.039062 58.328125 92.546875 57.570312 C 93.054688 56.8125 93.628906 56.113281 94.273438 55.46875 C 94.917969 54.824219 95.621094 54.246094 96.378906 53.738281 C 97.136719 53.234375 97.9375 52.804688 98.78125 52.457031 C 99.625 52.109375 100.492188 51.84375 101.386719 51.667969 C 102.28125 51.488281 103.183594 51.398438 104.097656 51.398438 L 270.792969 51.398438 C 271.703125 51.398438 272.609375 51.488281 273.503906 51.667969 C 274.398438 51.84375 275.265625 52.109375 276.109375 52.457031 C 276.953125 52.804688 277.75 53.234375 278.511719 53.738281 C 279.269531 54.246094 279.96875 54.824219 280.613281 55.46875 C 281.261719 56.113281 281.835938 56.8125 282.34375 57.570312 C 282.847656 58.328125 283.277344 59.128906 283.625 59.972656 C 283.976562 60.816406 284.238281 61.683594 284.417969 62.578125 C 284.59375 63.472656 284.683594 64.375 284.683594 65.285156 Z M 284.683594 79.171875 " fill-opacity="1" fill-rule="nonzero"/></g><path fill="#000000" d="M 141.140625 282.839844 L 104.097656 282.839844 C 103.792969 282.839844 103.492188 282.867188 103.195312 282.925781 C 102.894531 282.984375 102.605469 283.074219 102.324219 283.191406 C 102.042969 283.308594 101.777344 283.449219 101.523438 283.617188 C 101.273438 283.785156 101.039062 283.980469 100.824219 284.195312 C 100.609375 284.410156 100.414062 284.640625 100.246094 284.894531 C 100.078125 285.148438 99.933594 285.414062 99.820312 285.695312 C 99.703125 285.976562 99.613281 286.265625 99.554688 286.5625 C 99.496094 286.863281 99.464844 287.164062 99.464844 287.464844 L 99.464844 305.980469 C 99.464844 306.285156 99.496094 306.585938 99.554688 306.886719 C 99.613281 307.183594 99.703125 307.472656 99.820312 307.753906 C 99.933594 308.035156 100.078125 308.300781 100.246094 308.554688 C 100.414062 308.804688 100.609375 309.039062 100.824219 309.253906 C 101.039062 309.46875 101.273438 309.660156 101.523438 309.832031 C 101.777344 310 102.042969 310.140625 102.324219 310.257812 C 102.605469 310.375 102.894531 310.460938 103.195312 310.523438 C 103.492188 310.582031 103.792969 310.609375 104.097656 310.609375 L 141.140625 310.609375 C 141.445312 310.609375 141.746094 310.582031 142.042969 310.523438 C 142.34375 310.460938 142.632812 310.375 142.914062 310.257812 C 143.191406 310.140625 143.460938 310 143.714844 309.832031 C 143.964844 309.660156 144.199219 309.46875 144.414062 309.253906 C 144.628906 309.039062 144.820312 308.804688 144.992188 308.554688 C 145.160156 308.300781 145.300781 308.035156 145.417969 307.753906 C 145.535156 307.472656 145.621094 307.183594 145.683594 306.886719 C 145.742188 306.585938 145.769531 306.285156 145.769531 305.980469 L 145.769531 287.464844 C 145.769531 287.164062 145.742188 286.863281 145.683594 286.5625 C 145.621094 286.265625 145.535156 285.976562 145.417969 285.695312 C 145.300781 285.414062 145.160156 285.148438 144.992188 284.894531 C 144.820312 284.640625 144.628906 284.410156 144.414062 284.195312 C 144.199219 283.980469 143.964844 283.785156 143.714844 283.617188 C 143.460938 283.449219 143.191406 283.304688 142.914062 283.191406 C 142.632812 283.074219 142.34375 282.984375 142.042969 282.925781 C 141.746094 282.867188 141.445312 282.839844 141.140625 282.839844 Z M 136.511719 301.351562 L 127.25 301.351562 L 127.25 296.722656 L 117.988281 296.722656 L 117.988281 301.351562 L 108.726562 301.351562 L 108.726562 292.09375 L 136.511719 292.09375 Z M 136.511719 301.351562 " fill-opacity="1" fill-rule="nonzero"/><path fill="#000000" d="M 196.707031 282.839844 L 159.664062 282.839844 C 159.359375 282.839844 159.058594 282.867188 158.757812 282.925781 C 158.460938 282.984375 158.171875 283.074219 157.890625 283.191406 C 157.609375 283.308594 157.34375 283.449219 157.089844 283.617188 C 156.835938 283.785156 156.601562 283.980469 156.386719 284.195312 C 156.171875 284.410156 155.980469 284.640625 155.8125 284.894531 C 155.644531 285.148438 155.5 285.414062 155.382812 285.695312 C 155.269531 285.976562 155.179688 286.265625 155.121094 286.5625 C 155.0625 286.863281 155.03125 287.164062 155.03125 287.464844 L 155.03125 305.980469 C 155.03125 306.285156 155.0625 306.585938 155.121094 306.886719 C 155.179688 307.183594 155.269531 307.472656 155.382812 307.753906 C 155.5 308.035156 155.644531 308.300781 155.8125 308.554688 C 155.980469 308.804688 156.171875 309.039062 156.386719 309.253906 C 156.601562 309.46875 156.835938 309.660156 157.089844 309.832031 C 157.34375 310 157.609375 310.140625 157.890625 310.257812 C 158.171875 310.375 158.460938 310.460938 158.757812 310.523438 C 159.058594 310.582031 159.359375 310.609375 159.664062 310.609375 L 196.707031 310.609375 C 197.007812 310.609375 197.3125 310.582031 197.609375 310.523438 C 197.90625 310.460938 198.195312 310.375 198.476562 310.257812 C 198.757812 310.140625 199.023438 310 199.277344 309.832031 C 199.53125 309.660156 199.765625 309.46875 199.980469 309.253906 C 200.195312 309.039062 200.386719 308.804688 200.554688 308.554688 C 200.722656 308.300781 200.867188 308.035156 200.984375 307.753906 C 201.101562 307.472656 201.1875 307.183594 201.246094 306.886719 C 201.304688 306.585938 201.335938 306.285156 201.335938 305.980469 L 201.335938 287.464844 C 201.335938 287.164062 201.304688 286.863281 201.246094 286.5625 C 201.1875 286.265625 201.101562 285.976562 200.984375 285.695312 C 200.867188 285.414062 200.722656 285.148438 200.554688 284.894531 C 200.386719 284.640625 200.195312 284.410156 199.980469 284.195312 C 199.765625 283.980469 199.53125 283.785156 199.277344 283.617188 C 199.023438 283.449219 198.757812 283.304688 198.476562 283.191406 C 198.195312 283.074219 197.90625 282.984375 197.609375 282.925781 C 197.3125 282.867188 197.007812 282.839844 196.707031 282.839844 Z M 192.074219 301.351562 L 182.8125 301.351562 L 182.8125 296.722656 L 173.554688 296.722656 L 173.554688 301.351562 L 164.292969 301.351562 L 164.292969 292.09375 L 192.074219 292.09375 Z M 192.074219 301.351562 " fill-opacity="1" fill-rule="nonzero"/><path fill="#000000" d="M 261.53125 282.839844 C 260.621094 282.839844 259.714844 282.925781 258.820312 283.105469 C 257.925781 283.28125 257.058594 283.546875 256.214844 283.894531 C 255.371094 284.242188 254.574219 284.671875 253.8125 285.179688 C 253.054688 285.683594 252.355469 286.261719 251.710938 286.90625 C 251.0625 287.550781 250.488281 288.25 249.980469 289.007812 C 249.476562 289.765625 249.046875 290.566406 248.699219 291.410156 C 248.347656 292.253906 248.085938 293.121094 247.90625 294.015625 C 247.730469 294.910156 247.640625 295.8125 247.640625 296.722656 C 247.640625 297.636719 247.730469 298.539062 247.90625 299.433594 C 248.085938 300.328125 248.347656 301.195312 248.699219 302.039062 C 249.046875 302.878906 249.476562 303.679688 249.980469 304.4375 C 250.488281 305.195312 251.0625 305.898438 251.710938 306.542969 C 252.355469 307.1875 253.054688 307.765625 253.8125 308.269531 C 254.574219 308.777344 255.371094 309.203125 256.214844 309.554688 C 257.058594 309.902344 257.925781 310.164062 258.820312 310.34375 C 259.714844 310.523438 260.621094 310.609375 261.53125 310.609375 C 262.445312 310.609375 263.347656 310.523438 264.242188 310.34375 C 265.136719 310.164062 266.003906 309.902344 266.847656 309.554688 C 267.691406 309.203125 268.492188 308.777344 269.25 308.269531 C 270.007812 307.765625 270.710938 307.1875 271.355469 306.542969 C 272 305.898438 272.574219 305.195312 273.082031 304.4375 C 273.589844 303.679688 274.015625 302.878906 274.367188 302.039062 C 274.714844 301.195312 274.976562 300.328125 275.15625 299.433594 C 275.335938 298.539062 275.421875 297.636719 275.421875 296.722656 C 275.421875 295.8125 275.335938 294.910156 275.15625 294.015625 C 274.976562 293.121094 274.714844 292.253906 274.367188 291.410156 C 274.015625 290.566406 273.589844 289.765625 273.082031 289.007812 C 272.574219 288.25 272 287.550781 271.355469 286.90625 C 270.710938 286.261719 270.007812 285.683594 269.25 285.179688 C 268.492188 284.671875 267.691406 284.242188 266.847656 283.894531 C 266.003906 283.546875 265.136719 283.28125 264.242188 283.105469 C 263.347656 282.925781 262.445312 282.839844 261.53125 282.839844 Z M 261.53125 301.351562 C 261.226562 301.351562 260.925781 301.324219 260.628906 301.265625 C 260.332031 301.203125 260.039062 301.117188 259.757812 301 C 259.480469 300.882812 259.210938 300.742188 258.960938 300.574219 C 258.707031 300.402344 258.472656 300.210938 258.257812 299.996094 C 258.042969 299.78125 257.851562 299.546875 257.679688 299.296875 C 257.511719 299.042969 257.371094 298.777344 257.253906 298.496094 C 257.136719 298.214844 257.050781 297.925781 256.988281 297.628906 C 256.929688 297.328125 256.902344 297.027344 256.902344 296.722656 C 256.902344 296.421875 256.929688 296.121094 256.988281 295.820312 C 257.050781 295.523438 257.136719 295.234375 257.253906 294.953125 C 257.371094 294.671875 257.511719 294.40625 257.679688 294.152344 C 257.851562 293.898438 258.042969 293.667969 258.257812 293.453125 C 258.472656 293.234375 258.707031 293.042969 258.960938 292.875 C 259.210938 292.707031 259.480469 292.5625 259.757812 292.449219 C 260.039062 292.332031 260.332031 292.242188 260.628906 292.183594 C 260.925781 292.125 261.226562 292.09375 261.53125 292.09375 C 261.835938 292.09375 262.136719 292.125 262.433594 292.183594 C 262.734375 292.242188 263.023438 292.332031 263.304688 292.449219 C 263.585938 292.5625 263.851562 292.707031 264.105469 292.875 C 264.355469 293.042969 264.589844 293.234375 264.804688 293.453125 C 265.019531 293.667969 265.210938 293.898438 265.382812 294.152344 C 265.550781 294.40625 265.691406 294.671875 265.808594 294.953125 C 265.925781 295.234375 266.015625 295.523438 266.074219 295.820312 C 266.132812 296.121094 266.164062 296.421875 266.164062 296.722656 C 266.164062 297.027344 266.132812 297.328125 266.074219 297.628906 C 266.015625 297.925781 265.925781 298.214844 265.808594 298.496094 C 265.691406 298.777344 265.550781 299.042969 265.382812 299.296875 C 265.210938 299.546875 265.019531 299.78125 264.804688 299.996094 C 264.589844 300.210938 264.355469 300.402344 264.105469 300.574219 C 263.851562 300.742188 263.585938 300.882812 263.304688 301 C 263.023438 301.117188 262.734375 301.203125 262.433594 301.265625 C 262.136719 301.324219 261.835938 301.351562 261.53125 301.351562 Z M 261.53125 301.351562 " fill-opacity="1" fill-rule="nonzero"/><path fill="#000000" d="M 224.488281 282.839844 C 223.574219 282.839844 222.671875 282.925781 221.777344 283.105469 C 220.882812 283.28125 220.015625 283.546875 219.171875 283.894531 C 218.328125 284.242188 217.527344 284.671875 216.769531 285.179688 C 216.011719 285.683594 215.308594 286.261719 214.664062 286.90625 C 214.019531 287.550781 213.445312 288.25 212.9375 289.007812 C 212.429688 289.765625 212.003906 290.566406 211.65625 291.410156 C 211.304688 292.253906 211.042969 293.121094 210.863281 294.015625 C 210.6875 294.910156 210.597656 295.8125 210.597656 296.722656 C 210.597656 297.636719 210.6875 298.539062 210.863281 299.433594 C 211.042969 300.328125 211.304688 301.195312 211.65625 302.039062 C 212.003906 302.878906 212.429688 303.679688 212.9375 304.4375 C 213.445312 305.195312 214.019531 305.898438 214.664062 306.542969 C 215.308594 307.1875 216.011719 307.765625 216.769531 308.269531 C 217.527344 308.777344 218.328125 309.203125 219.171875 309.554688 C 220.015625 309.902344 220.882812 310.164062 221.777344 310.34375 C 222.671875 310.523438 223.574219 310.609375 224.488281 310.609375 C 225.398438 310.609375 226.304688 310.523438 227.199219 310.34375 C 228.09375 310.164062 228.960938 309.902344 229.804688 309.554688 C 230.648438 309.203125 231.449219 308.777344 232.207031 308.269531 C 232.964844 307.765625 233.664062 307.1875 234.3125 306.542969 C 234.957031 305.898438 235.53125 305.195312 236.039062 304.4375 C 236.546875 303.679688 236.972656 302.878906 237.320312 302.039062 C 237.671875 301.195312 237.933594 300.328125 238.113281 299.433594 C 238.289062 298.539062 238.378906 297.636719 238.378906 296.722656 C 238.378906 295.8125 238.289062 294.910156 238.113281 294.015625 C 237.933594 293.121094 237.671875 292.253906 237.320312 291.410156 C 236.972656 290.566406 236.546875 289.765625 236.039062 289.007812 C 235.53125 288.25 234.957031 287.550781 234.3125 286.90625 C 233.664062 286.261719 232.964844 285.683594 232.207031 285.179688 C 231.449219 284.671875 230.648438 284.242188 229.804688 283.894531 C 228.960938 283.546875 228.09375 283.28125 227.199219 283.105469 C 226.304688 282.925781 225.398438 282.839844 224.488281 282.839844 Z M 224.488281 301.351562 C 224.183594 301.351562 223.882812 301.324219 223.585938 301.265625 C 223.285156 301.203125 222.996094 301.117188 222.714844 301 C 222.433594 300.882812 222.167969 300.742188 221.914062 300.574219 C 221.664062 300.402344 221.429688 300.210938 221.214844 299.996094 C 221 299.78125 220.808594 299.546875 220.636719 299.296875 C 220.46875 299.042969 220.328125 298.777344 220.210938 298.496094 C 220.09375 298.214844 220.007812 297.925781 219.945312 297.628906 C 219.886719 297.328125 219.859375 297.027344 219.859375 296.722656 C 219.859375 296.421875 219.886719 296.121094 219.945312 295.820312 C 220.007812 295.523438 220.09375 295.234375 220.210938 294.953125 C 220.328125 294.671875 220.46875 294.40625 220.636719 294.152344 C 220.808594 293.898438 221 293.667969 221.214844 293.453125 C 221.429688 293.234375 221.664062 293.042969 221.914062 292.875 C 222.167969 292.707031 222.433594 292.5625 222.714844 292.449219 C 222.996094 292.332031 223.285156 292.242188 223.585938 292.183594 C 223.882812 292.125 224.183594 292.09375 224.488281 292.09375 C 224.792969 292.09375 225.09375 292.125 225.390625 292.183594 C 225.691406 292.242188 225.980469 292.332031 226.261719 292.449219 C 226.542969 292.5625 226.808594 292.707031 227.0625 292.875 C 227.3125 293.042969 227.546875 293.234375 227.761719 293.453125 C 227.976562 293.667969 228.167969 293.898438 228.339844 294.152344 C 228.507812 294.40625 228.648438 294.671875 228.765625 294.953125 C 228.882812 295.234375 228.96875 295.523438 229.03125 295.820312 C 229.089844 296.121094 229.117188 296.421875 229.117188 296.722656 C 229.117188 297.027344 229.089844 297.328125 229.03125 297.628906 C 228.96875 297.925781 228.882812 298.214844 228.765625 298.496094 C 228.648438 298.777344 228.507812 299.042969 228.339844 299.296875 C 228.167969 299.546875 227.976562 299.78125 227.761719 299.996094 C 227.546875 300.210938 227.3125 300.402344 227.0625 300.574219 C 226.808594 300.742188 226.542969 300.882812 226.261719 301 C 225.980469 301.117188 225.691406 301.203125 225.390625 301.265625 C 225.09375 301.324219 224.792969 301.351562 224.488281 301.351562 Z M 224.488281 301.351562 " fill-opacity="1" fill-rule="nonzero"/><path fill="#000000" d="M 99.464844 60.65625 L 108.726562 60.65625 L 108.726562 69.914062 L 99.464844 69.914062 Z M 99.464844 60.65625 " fill-opacity="1" fill-rule="nonzero"/><path fill="#000000" d="M 117.988281 60.65625 L 127.25 60.65625 L 127.25 69.914062 L 117.988281 69.914062 Z M 117.988281 60.65625 " fill-opacity="1" fill-rule="nonzero"/><path fill="#000000" d="M 122.617188 157.863281 L 122.617188 213.40625 L 131.878906 213.40625 L 131.878906 190.261719 L 150.402344 190.261719 L 150.402344 213.40625 L 159.664062 213.40625 L 159.664062 157.863281 L 150.402344 157.863281 L 150.402344 181.003906 L 131.878906 181.003906 L 131.878906 157.863281 Z M 122.617188 157.863281 " fill-opacity="1" fill-rule="nonzero"/><path fill="#000000" d="M 173.554688 213.40625 L 187.445312 213.40625 C 188.050781 213.40625 188.65625 213.375 189.261719 213.316406 C 189.863281 213.257812 190.464844 213.167969 191.058594 213.050781 C 191.652344 212.933594 192.242188 212.785156 192.820312 212.609375 C 193.402344 212.433594 193.972656 212.230469 194.53125 211.996094 C 195.09375 211.765625 195.640625 211.507812 196.175781 211.21875 C 196.710938 210.933594 197.230469 210.625 197.734375 210.285156 C 198.238281 209.949219 198.726562 209.589844 199.195312 209.203125 C 199.664062 208.820312 200.113281 208.414062 200.542969 207.984375 C 200.96875 207.554688 201.378906 207.105469 201.761719 206.636719 C 202.148438 206.167969 202.507812 205.683594 202.84375 205.179688 C 203.183594 204.671875 203.492188 204.152344 203.78125 203.621094 C 204.066406 203.085938 204.324219 202.539062 204.554688 201.976562 C 204.789062 201.417969 204.992188 200.847656 205.167969 200.265625 C 205.34375 199.6875 205.492188 199.097656 205.609375 198.503906 C 205.730469 197.910156 205.816406 197.308594 205.878906 196.707031 C 205.9375 196.101562 205.964844 195.496094 205.964844 194.890625 L 205.964844 176.375 C 205.964844 175.769531 205.9375 175.164062 205.878906 174.5625 C 205.816406 173.957031 205.730469 173.359375 205.609375 172.765625 C 205.492188 172.167969 205.34375 171.582031 205.167969 171 C 204.992188 170.421875 204.789062 169.851562 204.554688 169.292969 C 204.324219 168.730469 204.066406 168.183594 203.78125 167.648438 C 203.492188 167.113281 203.183594 166.59375 202.84375 166.089844 C 202.507812 165.585938 202.148438 165.097656 201.761719 164.628906 C 201.378906 164.160156 200.96875 163.714844 200.542969 163.285156 C 200.113281 162.855469 199.664062 162.449219 199.195312 162.0625 C 198.726562 161.679688 198.238281 161.320312 197.734375 160.980469 C 197.230469 160.644531 196.710938 160.332031 196.175781 160.046875 C 195.640625 159.761719 195.09375 159.503906 194.53125 159.269531 C 193.972656 159.039062 193.402344 158.835938 192.820312 158.660156 C 192.242188 158.484375 191.652344 158.335938 191.058594 158.21875 C 190.464844 158.097656 189.863281 158.011719 189.261719 157.949219 C 188.65625 157.890625 188.050781 157.863281 187.445312 157.863281 L 173.554688 157.863281 C 173.25 157.863281 172.949219 157.890625 172.648438 157.949219 C 172.351562 158.007812 172.0625 158.097656 171.78125 158.214844 C 171.5 158.328125 171.234375 158.472656 170.980469 158.640625 C 170.726562 158.808594 170.496094 159.003906 170.277344 159.21875 C 170.0625 159.433594 169.871094 159.664062 169.703125 159.917969 C 169.535156 160.171875 169.390625 160.4375 169.277344 160.71875 C 169.160156 161 169.070312 161.289062 169.011719 161.585938 C 168.953125 161.886719 168.921875 162.1875 168.921875 162.488281 L 168.921875 208.777344 C 168.921875 209.082031 168.953125 209.382812 169.011719 209.679688 C 169.070312 209.980469 169.160156 210.269531 169.277344 210.550781 C 169.390625 210.828125 169.535156 211.097656 169.703125 211.347656 C 169.871094 211.601562 170.0625 211.835938 170.277344 212.050781 C 170.496094 212.265625 170.726562 212.457031 170.980469 212.625 C 171.234375 212.796875 171.5 212.9375 171.78125 213.054688 C 172.0625 213.171875 172.351562 213.257812 172.648438 213.316406 C 172.949219 213.375 173.25 213.40625 173.554688 213.40625 Z M 178.183594 167.117188 L 187.445312 167.117188 C 188.054688 167.117188 188.65625 167.179688 189.25 167.296875 C 189.847656 167.414062 190.425781 167.589844 190.988281 167.824219 C 191.550781 168.054688 192.085938 168.339844 192.589844 168.679688 C 193.09375 169.015625 193.5625 169.402344 193.992188 169.832031 C 194.421875 170.261719 194.808594 170.726562 195.144531 171.234375 C 195.484375 171.738281 195.769531 172.273438 196 172.832031 C 196.234375 173.394531 196.410156 173.972656 196.527344 174.570312 C 196.644531 175.167969 196.707031 175.769531 196.707031 176.375 L 196.707031 194.890625 C 196.707031 195.5 196.644531 196.101562 196.527344 196.699219 C 196.410156 197.292969 196.234375 197.871094 196 198.433594 C 195.769531 198.996094 195.484375 199.527344 195.144531 200.035156 C 194.808594 200.539062 194.421875 201.007812 193.992188 201.4375 C 193.5625 201.867188 193.09375 202.25 192.589844 202.589844 C 192.085938 202.925781 191.550781 203.210938 190.988281 203.445312 C 190.425781 203.675781 189.847656 203.851562 189.25 203.972656 C 188.65625 204.089844 188.054688 204.148438 187.445312 204.148438 L 178.183594 204.148438 Z M 178.183594 167.117188 " fill-opacity="1" fill-rule="nonzero"/><path fill="#000000" d="M 219.859375 213.40625 L 233.75 213.40625 C 234.355469 213.40625 234.960938 213.375 235.566406 213.316406 C 236.167969 213.257812 236.765625 213.167969 237.363281 213.050781 C 237.957031 212.933594 238.546875 212.785156 239.125 212.609375 C 239.707031 212.433594 240.277344 212.230469 240.835938 211.996094 C 241.398438 211.765625 241.945312 211.507812 242.480469 211.21875 C 243.015625 210.933594 243.535156 210.625 244.039062 210.285156 C 244.542969 209.949219 245.03125 209.589844 245.5 209.203125 C 245.96875 208.820312 246.417969 208.414062 246.847656 207.984375 C 247.273438 207.554688 247.683594 207.105469 248.066406 206.636719 C 248.453125 206.167969 248.8125 205.683594 249.148438 205.179688 C 249.488281 204.671875 249.796875 204.152344 250.082031 203.621094 C 250.371094 203.085938 250.628906 202.539062 250.859375 201.976562 C 251.09375 201.417969 251.296875 200.847656 251.472656 200.265625 C 251.648438 199.6875 251.796875 199.097656 251.914062 198.503906 C 252.035156 197.910156 252.121094 197.308594 252.179688 196.707031 C 252.242188 196.101562 252.269531 195.496094 252.269531 194.890625 L 252.269531 176.375 C 252.269531 175.769531 252.242188 175.164062 252.179688 174.5625 C 252.121094 173.957031 252.035156 173.359375 251.914062 172.765625 C 251.796875 172.167969 251.648438 171.582031 251.472656 171 C 251.296875 170.421875 251.09375 169.851562 250.859375 169.292969 C 250.628906 168.730469 250.371094 168.183594 250.082031 167.648438 C 249.796875 167.113281 249.488281 166.59375 249.148438 166.089844 C 248.8125 165.585938 248.453125 165.097656 248.066406 164.628906 C 247.683594 164.160156 247.273438 163.714844 246.847656 163.285156 C 246.417969 162.855469 245.96875 162.449219 245.5 162.0625 C 245.03125 161.679688 244.542969 161.320312 244.039062 160.980469 C 243.535156 160.644531 243.015625 160.332031 242.480469 160.046875 C 241.945312 159.761719 241.398438 159.503906 240.835938 159.269531 C 240.277344 159.039062 239.707031 158.835938 239.125 158.660156 C 238.546875 158.484375 237.957031 158.335938 237.363281 158.21875 C 236.765625 158.097656 236.167969 158.011719 235.566406 157.949219 C 234.960938 157.890625 234.355469 157.863281 233.75 157.863281 L 219.859375 157.863281 C 219.554688 157.863281 219.253906 157.890625 218.953125 157.949219 C 218.65625 158.007812 218.367188 158.097656 218.085938 158.214844 C 217.804688 158.328125 217.539062 158.472656 217.285156 158.640625 C 217.03125 158.808594 216.796875 159.003906 216.582031 159.21875 C 216.367188 159.433594 216.175781 159.664062 216.007812 159.917969 C 215.839844 160.171875 215.695312 160.4375 215.578125 160.71875 C 215.464844 161 215.375 161.289062 215.316406 161.585938 C 215.257812 161.886719 215.226562 162.1875 215.226562 162.488281 L 215.226562 208.777344 C 215.226562 209.082031 215.257812 209.382812 215.316406 209.679688 C 215.375 209.980469 215.464844 210.269531 215.578125 210.550781 C 215.695312 210.828125 215.839844 211.097656 216.007812 211.347656 C 216.175781 211.601562 216.367188 211.835938 216.582031 212.050781 C 216.796875 212.265625 217.03125 212.457031 217.285156 212.625 C 217.539062 212.796875 217.804688 212.9375 218.085938 213.054688 C 218.367188 213.171875 218.65625 213.257812 218.953125 213.316406 C 219.253906 213.375 219.554688 213.40625 219.859375 213.40625 Z M 224.488281 167.117188 L 233.75 167.117188 C 234.355469 167.117188 234.960938 167.179688 235.554688 167.296875 C 236.152344 167.414062 236.730469 167.589844 237.292969 167.824219 C 237.855469 168.054688 238.386719 168.339844 238.894531 168.679688 C 239.398438 169.015625 239.867188 169.402344 240.296875 169.832031 C 240.726562 170.261719 241.113281 170.726562 241.449219 171.234375 C 241.785156 171.738281 242.074219 172.273438 242.304688 172.832031 C 242.539062 173.394531 242.714844 173.972656 242.832031 174.570312 C 242.949219 175.167969 243.011719 175.769531 243.011719 176.375 L 243.011719 194.890625 C 243.011719 195.5 242.949219 196.101562 242.832031 196.699219 C 242.714844 197.292969 242.539062 197.871094 242.304688 198.433594 C 242.074219 198.996094 241.785156 199.527344 241.449219 200.035156 C 241.113281 200.539062 240.726562 201.007812 240.296875 201.4375 C 239.867188 201.867188 239.398438 202.25 238.894531 202.589844 C 238.386719 202.925781 237.855469 203.210938 237.292969 203.445312 C 236.730469 203.675781 236.152344 203.851562 235.554688 203.972656 C 234.960938 204.089844 234.355469 204.148438 233.75 204.148438 L 224.488281 204.148438 Z M 224.488281 167.117188 " fill-opacity="1" fill-rule="nonzero"/><path fill="#000000" d="M 266.164062 120.832031 L 275.421875 120.832031 L 275.421875 102.316406 C 275.421875 102.011719 275.394531 101.710938 275.335938 101.414062 C 275.273438 101.113281 275.1875 100.824219 275.070312 100.542969 C 274.953125 100.265625 274.8125 99.996094 274.644531 99.746094 C 274.472656 99.492188 274.28125 99.257812 274.066406 99.042969 C 273.851562 98.828125 273.617188 98.636719 273.363281 98.46875 C 273.113281 98.296875 272.84375 98.15625 272.566406 98.039062 C 272.285156 97.921875 271.992188 97.835938 271.695312 97.777344 C 271.398438 97.71875 271.097656 97.6875 270.792969 97.6875 L 252.269531 97.6875 L 252.269531 106.945312 L 266.164062 106.945312 Z M 266.164062 120.832031 " fill-opacity="1" fill-rule="nonzero"/><path fill="#000000" d="M 108.726562 106.945312 L 122.617188 106.945312 L 122.617188 97.6875 L 104.097656 97.6875 C 103.792969 97.6875 103.492188 97.71875 103.195312 97.777344 C 102.894531 97.835938 102.605469 97.921875 102.324219 98.039062 C 102.042969 98.15625 101.777344 98.296875 101.523438 98.46875 C 101.273438 98.636719 101.039062 98.828125 100.824219 99.042969 C 100.609375 99.257812 100.414062 99.492188 100.246094 99.746094 C 100.078125 99.996094 99.933594 100.265625 99.820312 100.542969 C 99.703125 100.824219 99.613281 101.113281 99.554688 101.414062 C 99.496094 101.710938 99.464844 102.011719 99.464844 102.316406 L 99.464844 120.832031 L 108.726562 120.832031 Z M 108.726562 106.945312 " fill-opacity="1" fill-rule="nonzero"/><path fill="#000000" d="M 266.164062 245.808594 L 252.269531 245.808594 L 252.269531 255.066406 L 270.792969 255.066406 C 271.097656 255.066406 271.398438 255.035156 271.695312 254.976562 C 271.992188 254.917969 272.285156 254.828125 272.566406 254.714844 C 272.84375 254.597656 273.113281 254.453125 273.363281 254.285156 C 273.617188 254.117188 273.851562 253.925781 274.066406 253.710938 C 274.28125 253.496094 274.472656 253.261719 274.644531 253.007812 C 274.8125 252.753906 274.953125 252.488281 275.070312 252.207031 C 275.1875 251.925781 275.273438 251.636719 275.335938 251.339844 C 275.394531 251.042969 275.421875 250.742188 275.421875 250.4375 L 275.421875 231.921875 L 266.164062 231.921875 Z M 266.164062 245.808594 " fill-opacity="1" fill-rule="nonzero"/><path fill="#000000" d="M 104.097656 255.066406 L 122.617188 255.066406 L 122.617188 245.808594 L 108.726562 245.808594 L 108.726562 231.921875 L 99.464844 231.921875 L 99.464844 250.4375 C 99.464844 250.742188 99.496094 251.042969 99.554688 251.339844 C 99.613281 251.636719 99.703125 251.925781 99.820312 252.207031 C 99.933594 252.488281 100.078125 252.753906 100.246094 253.007812 C 100.414062 253.261719 100.609375 253.496094 100.824219 253.710938 C 101.039062 253.925781 101.273438 254.117188 101.523438 254.285156 C 101.777344 254.453125 102.042969 254.597656 102.324219 254.714844 C 102.605469 254.828125 102.894531 254.917969 103.195312 254.976562 C 103.492188 255.035156 103.792969 255.066406 104.097656 255.066406 Z M 104.097656 255.066406 " fill-opacity="1" fill-rule="nonzero"/><path fill="#000000" d="M 266.164062 130.089844 L 275.421875 130.089844 L 275.421875 139.347656 L 266.164062 139.347656 Z M 266.164062 130.089844 " fill-opacity="1" fill-rule="nonzero"/></svg>