<?xml version="1.0" standalone="no"?>
<!DOCTYPE svg PUBLIC "-//W3C//DTD SVG 20010904//EN"
 "http://www.w3.org/TR/2001/REC-SVG-20010904/DTD/svg10.dtd">
<svg version="1.0" xmlns="http://www.w3.org/2000/svg"
 width="1000.000000pt" height="1000.000000pt" viewBox="0 0 1000.000000 1000.000000"
 preserveAspectRatio="xMidYMid meet">

<g transform="translate(0.000000,1000.000000) scale(0.100000,-0.100000)"
fill="#000000" stroke="none">
<path d="M3406 5683 c9 -16 82 -125 161 -243 l143 -215 0 -197 0 -198 100 0
100 0 0 198 0 197 143 215 c79 118 152 227 161 243 l18 27 -118 0 -119 0 -90
-140 c-49 -76 -92 -139 -95 -139 -3 0 -45 63 -95 139 l-90 140 -119 0 -118 0
18 -27z"/>
<path d="M6490 5330 c0 -77 -1 -80 -19 -70 -11 5 -37 10 -59 10 -88 0 -128
-124 -60 -187 32 -28 66 -34 105 -18 18 8 33 10 33 4 0 -5 16 -9 35 -9 l35 0
0 175 0 175 -35 0 -35 0 0 -80z m-9 -141 c8 -16 8 -28 0 -46 -9 -19 -17 -24
-43 -21 -40 4 -56 28 -40 62 15 34 66 37 83 5z"/>
<path d="M4450 5395 c0 -3 27 -46 60 -95 59 -88 60 -90 60 -160 l0 -70 35 0
35 0 0 75 c0 75 1 77 50 150 70 104 70 105 22 105 -37 0 -42 -4 -72 -50 -18
-27 -35 -50 -39 -50 -3 0 -21 23 -39 50 -30 46 -35 50 -72 50 -22 0 -40 -2
-40 -5z"/>
<path d="M6218 5389 c-24 -14 -23 -56 2 -69 42 -22 82 34 48 68 -14 14 -27 15
-50 1z"/>
<path d="M4824 5266 c-17 -8 -39 -24 -48 -37 -18 -26 -21 -81 -6 -110 25 -45
122 -64 179 -35 72 38 63 149 -14 182 -42 17 -71 17 -111 0z m90 -62 c24 -23
19 -51 -10 -71 -43 -28 -88 14 -66 61 13 30 51 35 76 10z"/>
<path d="M5392 5264 c-12 -8 -22 -10 -22 -5 0 6 -16 11 -35 11 l-35 0 0 -100
0 -100 35 0 35 0 0 64 c0 71 13 91 54 84 19 -4 27 1 36 20 9 20 8 27 -2 33
-20 13 -41 11 -66 -7z"/>
<path d="M5032 5189 c4 -102 20 -119 110 -119 49 0 63 4 83 25 22 21 25 33 25
100 l0 75 -35 0 -34 0 -3 -66 c-2 -51 -7 -70 -20 -78 -35 -21 -53 4 -56 78
l-3 66 -36 0 -35 0 4 -81z"/>
<path d="M6207 5263 c-4 -3 -7 -51 -7 -105 l0 -98 40 0 40 0 0 105 0 105 -33
0 c-19 0 -37 -3 -40 -7z"/>
<path d="M6077 5132 c-24 -26 -21 -49 7 -67 34 -23 66 -5 66 35 0 45 -44 64
-73 32z"/>
</g>
</svg>
