<svg xmlns="http://www.w3.org/2000/svg" xmlns:xlink="http://www.w3.org/1999/xlink" width="500" zoomAndPan="magnify" viewBox="0 0 375 374.999991" height="500" preserveAspectRatio="xMidYMid meet" version="1.0"><defs><clipPath id="c5dc8c7bea"><path d="M 187.5 0 C 83.945312 0 0 83.945312 0 187.5 C 0 291.054688 83.945312 375 187.5 375 C 291.054688 375 375 291.054688 375 187.5 C 375 83.945312 291.054688 0 187.5 0 Z M 187.5 0 " clip-rule="nonzero"/></clipPath><clipPath id="41caca71bf"><path d="M 76.613281 53 L 298.613281 53 L 298.613281 318.460938 L 76.613281 318.460938 Z M 76.613281 53 " clip-rule="nonzero"/></clipPath></defs><g clip-path="url(#c5dc8c7bea)"><rect x="-37.5" width="450" fill="#ffffff" y="-37.499999" height="449.999989" fill-opacity="1"/><path stroke-linecap="butt" transform="matrix(0.75, 0, 0, 0.75, 0.0000045, 0.000000000000042633)" fill="none" stroke-linejoin="miter" d="M 249.999994 -0.000000000000056843 C 111.927078 -0.000000000000056843 -0.000006 111.927084 -0.000006 250 C -0.000006 388.072917 111.927078 500.000001 249.999994 500.000001 C 388.072911 500.000001 499.999995 388.072917 499.999995 250 C 499.999995 111.927084 388.072911 -0.000000000000056843 249.999994 -0.000000000000056843 Z M 249.999994 -0.000000000000056843 " stroke="#000000" stroke-width="8" stroke-opacity="1" stroke-miterlimit="4"/></g><g clip-path="url(#41caca71bf)"><path fill="#000000" d="M 296.023438 79.238281 L 227.914062 79.238281 L 218.808594 70.144531 C 218.324219 69.660156 217.664062 69.390625 216.980469 69.390625 L 139.167969 69.390625 C 137.738281 69.390625 136.582031 70.542969 136.582031 71.972656 L 136.582031 79.238281 L 114.542969 79.238281 L 91.015625 54.007812 C 90.523438 53.484375 89.835938 53.1875 89.121094 53.1875 L 79.199219 53.1875 C 77.773438 53.1875 76.613281 54.339844 76.613281 55.769531 L 76.613281 198.738281 C 76.613281 200.136719 77.730469 201.28125 79.132812 201.320312 L 87.480469 201.539062 L 87.480469 315.652344 C 87.480469 317.082031 88.640625 318.238281 90.070312 318.238281 L 296.027344 318.238281 C 297.457031 318.238281 298.613281 317.082031 298.613281 315.652344 L 298.613281 81.820312 C 298.613281 80.394531 297.453125 79.238281 296.023438 79.238281 Z M 215.910156 74.554688 L 225 83.636719 C 225.007812 83.644531 225.011719 83.648438 225.019531 83.652344 L 228.519531 87.148438 L 212.535156 98.613281 L 160.367188 98.613281 C 158.9375 98.613281 157.78125 99.769531 157.78125 101.199219 C 157.78125 102.625 158.9375 103.78125 160.367188 103.78125 L 205.332031 103.78125 L 200.625 107.160156 L 141.753906 107.160156 L 141.753906 91.078125 L 195.324219 91.078125 C 196.75 91.078125 197.910156 89.921875 197.910156 88.492188 C 197.910156 87.066406 196.75 85.910156 195.324219 85.910156 L 141.753906 85.910156 L 141.753906 81.859375 C 141.753906 81.84375 141.761719 81.835938 141.761719 81.820312 C 141.761719 81.804688 141.753906 81.796875 141.753906 81.78125 L 141.753906 74.554688 Z M 81.789062 58.351562 L 87.992188 58.351562 L 111.554688 83.613281 C 111.570312 83.628906 111.582031 83.644531 111.597656 83.664062 L 127.496094 100.710938 L 127.496094 153.820312 L 88.945312 196.40625 L 81.789062 196.222656 Z M 293.4375 313.070312 L 92.65625 313.070312 L 92.65625 282.277344 L 110.242188 282.277344 C 111.667969 282.277344 112.828125 281.125 112.828125 279.695312 C 112.828125 278.265625 111.667969 277.109375 110.242188 277.109375 L 92.65625 277.109375 L 92.65625 270.4375 L 110.242188 270.4375 C 111.667969 270.4375 112.828125 269.28125 112.828125 267.851562 C 112.828125 266.425781 111.667969 265.269531 110.242188 265.269531 L 92.65625 265.269531 L 92.65625 258.597656 L 110.242188 258.597656 C 111.667969 258.597656 112.828125 257.441406 112.828125 256.011719 C 112.828125 254.582031 111.667969 253.429688 110.242188 253.429688 L 92.65625 253.429688 L 92.65625 246.75 L 110.242188 246.75 C 111.667969 246.75 112.828125 245.597656 112.828125 244.167969 C 112.828125 242.738281 111.667969 241.585938 110.242188 241.585938 L 92.65625 241.585938 L 92.65625 234.910156 L 110.242188 234.910156 C 111.667969 234.910156 112.828125 233.753906 112.828125 232.328125 C 112.828125 230.898438 111.667969 229.742188 110.242188 229.742188 L 92.65625 229.742188 L 92.65625 200.015625 L 132.003906 156.542969 C 132.4375 156.066406 132.671875 155.453125 132.671875 154.8125 L 132.671875 99.691406 C 132.671875 99.039062 132.421875 98.410156 131.976562 97.929688 L 119.363281 84.402344 L 136.582031 84.402344 L 136.582031 87.109375 C 136.3125 87.515625 136.121094 87.972656 136.121094 88.492188 C 136.121094 89.015625 136.316406 89.472656 136.582031 89.878906 L 136.582031 109.742188 C 136.582031 111.171875 137.738281 112.324219 139.167969 112.324219 L 201.453125 112.324219 C 201.996094 112.324219 202.523438 112.15625 202.964844 111.839844 L 234.011719 89.574219 C 234.628906 89.128906 235.019531 88.441406 235.082031 87.683594 C 235.144531 86.929688 234.867188 86.183594 234.332031 85.648438 L 233.085938 84.40625 L 293.4375 84.40625 Z M 293.4375 313.070312 " fill-opacity="1" fill-rule="nonzero"/></g><path fill="#000000" d="M 265.492188 201.320312 L 275.84375 201.320312 C 277.269531 201.320312 278.429688 200.167969 278.429688 198.738281 L 278.429688 116.058594 C 278.429688 114.628906 277.269531 113.472656 275.84375 113.472656 L 265.492188 113.472656 C 264.066406 113.472656 262.90625 114.628906 262.90625 116.058594 L 262.90625 198.738281 C 262.90625 200.164062 264.066406 201.320312 265.492188 201.320312 Z M 268.082031 118.640625 L 273.253906 118.640625 L 273.253906 196.152344 L 268.082031 196.152344 Z M 268.082031 118.640625 " fill-opacity="1" fill-rule="nonzero"/><path fill="#000000" d="M 247.597656 201.320312 L 257.949219 201.320312 C 259.375 201.320312 260.535156 200.167969 260.535156 198.738281 L 260.535156 116.058594 C 260.535156 114.628906 259.375 113.472656 257.949219 113.472656 L 247.597656 113.472656 C 246.171875 113.472656 245.011719 114.628906 245.011719 116.058594 L 245.011719 198.738281 C 245.011719 200.164062 246.167969 201.320312 247.597656 201.320312 Z M 250.1875 118.640625 L 255.359375 118.640625 L 255.359375 196.152344 L 250.1875 196.152344 Z M 250.1875 118.640625 " fill-opacity="1" fill-rule="nonzero"/><path fill="#000000" d="M 227.113281 116.058594 L 227.113281 198.738281 C 227.113281 200.167969 228.273438 201.320312 229.703125 201.320312 L 240.050781 201.320312 C 241.480469 201.320312 242.640625 200.167969 242.640625 198.738281 L 242.640625 116.058594 C 242.640625 114.628906 241.480469 113.472656 240.050781 113.472656 L 229.703125 113.472656 C 228.269531 113.472656 227.113281 114.628906 227.113281 116.058594 Z M 232.289062 118.640625 L 237.464844 118.640625 L 237.464844 196.152344 L 232.289062 196.152344 Z M 232.289062 118.640625 " fill-opacity="1" fill-rule="nonzero"/><path fill="#000000" d="M 211.804688 201.320312 L 222.15625 201.320312 C 223.582031 201.320312 224.742188 200.167969 224.742188 198.738281 L 224.742188 116.058594 C 224.742188 114.628906 223.582031 113.472656 222.15625 113.472656 L 211.804688 113.472656 C 210.375 113.472656 209.21875 114.628906 209.21875 116.058594 L 209.21875 198.738281 C 209.21875 200.164062 210.375 201.320312 211.804688 201.320312 Z M 214.390625 118.640625 L 219.566406 118.640625 L 219.566406 196.152344 L 214.390625 196.152344 Z M 214.390625 118.640625 " fill-opacity="1" fill-rule="nonzero"/><path fill="#000000" d="M 191.726562 229.578125 C 191.726562 228.152344 190.566406 226.996094 189.140625 226.996094 L 131.59375 226.996094 C 130.167969 226.996094 129.007812 228.152344 129.007812 229.578125 L 129.007812 239.914062 C 129.007812 241.34375 130.167969 242.5 131.59375 242.5 L 189.140625 242.5 C 190.566406 242.5 191.726562 241.34375 191.726562 239.914062 Z M 186.550781 237.332031 L 134.183594 237.332031 L 134.183594 232.164062 L 186.550781 232.164062 Z M 186.550781 237.332031 " fill-opacity="1" fill-rule="nonzero"/><path fill="#000000" d="M 189.140625 251.488281 L 131.59375 251.488281 C 130.167969 251.488281 129.007812 252.644531 129.007812 254.070312 L 129.007812 264.40625 C 129.007812 265.835938 130.167969 266.992188 131.59375 266.992188 L 189.140625 266.992188 C 190.566406 266.992188 191.726562 265.835938 191.726562 264.40625 L 191.726562 254.070312 C 191.726562 252.644531 190.566406 251.488281 189.140625 251.488281 Z M 186.550781 261.824219 L 134.183594 261.824219 L 134.183594 256.65625 L 186.550781 256.65625 Z M 186.550781 261.824219 " fill-opacity="1" fill-rule="nonzero"/><path fill="#000000" d="M 256.410156 272.375 L 182.914062 272.375 C 181.953125 272.375 181.070312 272.90625 180.625 273.753906 L 167.6875 298.300781 C 167.265625 299.101562 167.292969 300.066406 167.761719 300.835938 C 168.230469 301.609375 169.070312 302.085938 169.976562 302.085938 L 240.886719 302.085938 C 241.773438 302.085938 242.601562 301.632812 243.078125 300.882812 L 258.601562 276.335938 C 259.101562 275.539062 259.132812 274.53125 258.679688 273.707031 C 258.222656 272.886719 257.355469 272.375 256.410156 272.375 Z M 239.460938 296.921875 L 174.261719 296.921875 L 184.472656 277.542969 L 251.714844 277.542969 Z M 239.460938 296.921875 " fill-opacity="1" fill-rule="nonzero"/><path fill="#000000" d="M 157.039062 170.53125 L 181.621094 170.53125 C 183.046875 170.53125 184.207031 169.375 184.207031 167.945312 L 184.207031 143.402344 C 184.207031 141.972656 183.046875 140.816406 181.621094 140.816406 L 157.039062 140.816406 C 155.609375 140.816406 154.453125 141.972656 154.453125 143.402344 L 154.453125 167.945312 C 154.453125 169.375 155.609375 170.53125 157.039062 170.53125 Z M 159.628906 145.984375 L 179.03125 145.984375 L 179.03125 165.363281 L 159.628906 165.363281 Z M 159.628906 145.984375 " fill-opacity="1" fill-rule="nonzero"/><path fill="#000000" d="M 135.476562 218.488281 L 135.476562 216.605469 L 138.972656 216.605469 C 140.398438 216.605469 141.558594 215.453125 141.558594 214.023438 C 141.558594 212.59375 140.398438 211.4375 138.972656 211.4375 L 135.476562 211.4375 L 135.476562 206.273438 L 138.972656 206.273438 C 140.398438 206.273438 141.558594 205.117188 141.558594 203.6875 C 141.558594 202.257812 140.398438 201.105469 138.972656 201.105469 L 135.476562 201.105469 L 135.476562 198.777344 C 135.476562 197.347656 134.316406 196.191406 132.886719 196.191406 L 116.28125 196.191406 C 114.851562 196.191406 113.691406 197.347656 113.691406 198.777344 L 113.691406 201.105469 L 110.195312 201.105469 C 108.769531 201.105469 107.609375 202.257812 107.609375 203.6875 C 107.609375 205.117188 108.769531 206.273438 110.195312 206.273438 L 113.695312 206.273438 L 113.695312 211.4375 L 110.195312 211.4375 C 108.769531 211.4375 107.609375 212.59375 107.609375 214.023438 C 107.609375 215.453125 108.769531 216.605469 110.195312 216.605469 L 113.695312 216.605469 L 113.695312 218.488281 C 113.695312 219.917969 114.855469 221.070312 116.28125 221.070312 L 132.890625 221.070312 C 134.316406 221.070312 135.476562 219.917969 135.476562 218.488281 Z M 130.300781 215.902344 L 118.867188 215.902344 L 118.867188 201.359375 L 130.300781 201.359375 Z M 130.300781 215.902344 " fill-opacity="1" fill-rule="nonzero"/><path fill="#000000" d="M 138.710938 146.039062 L 147.335938 146.039062 L 147.335938 153.734375 L 138.761719 153.734375 C 137.332031 153.734375 136.175781 154.890625 136.175781 156.320312 C 136.175781 157.75 137.332031 158.902344 138.761719 158.902344 L 147.335938 158.902344 L 147.335938 165.363281 L 138.761719 165.363281 C 137.332031 165.363281 136.175781 166.519531 136.175781 167.945312 C 136.175781 169.375 137.332031 170.53125 138.761719 170.53125 L 147.335938 170.53125 L 147.335938 175.699219 C 147.335938 177.128906 148.492188 178.28125 149.921875 178.28125 L 154.503906 178.28125 L 154.503906 186.894531 C 154.503906 188.324219 155.664062 189.480469 157.089844 189.480469 C 158.519531 189.480469 159.679688 188.324219 159.679688 186.894531 L 159.679688 178.28125 L 167.386719 178.28125 L 167.386719 186.84375 C 167.386719 188.269531 168.546875 189.425781 169.972656 189.425781 C 171.402344 189.425781 172.5625 188.269531 172.5625 186.84375 L 172.5625 178.28125 L 179.03125 178.28125 L 179.03125 186.84375 C 179.03125 188.269531 180.1875 189.425781 181.617188 189.425781 C 183.046875 189.425781 184.203125 188.269531 184.203125 186.84375 L 184.203125 178.28125 L 188.734375 178.28125 C 190.160156 178.28125 191.320312 177.128906 191.320312 175.699219 L 191.320312 170.476562 L 199.945312 170.476562 C 201.371094 170.476562 202.53125 169.320312 202.53125 167.894531 C 202.53125 166.464844 201.371094 165.308594 199.945312 165.308594 L 191.320312 165.308594 L 191.320312 157.613281 L 199.890625 157.613281 C 201.320312 157.613281 202.480469 156.457031 202.480469 155.027344 C 202.480469 153.597656 201.320312 152.445312 199.890625 152.445312 L 191.320312 152.445312 L 191.320312 145.988281 L 199.890625 145.988281 C 201.320312 145.988281 202.480469 144.832031 202.480469 143.402344 C 202.480469 141.976562 201.320312 140.820312 199.890625 140.820312 L 191.320312 140.820312 L 191.320312 135.648438 C 191.320312 134.222656 190.160156 133.066406 188.734375 133.066406 L 184.152344 133.066406 L 184.152344 124.453125 C 184.152344 123.027344 182.992188 121.871094 181.5625 121.871094 C 180.136719 121.871094 178.976562 123.027344 178.976562 124.453125 L 178.976562 133.066406 L 171.269531 133.066406 L 171.269531 124.507812 C 171.269531 123.078125 170.109375 121.921875 168.679688 121.921875 C 167.253906 121.921875 166.09375 123.078125 166.09375 124.507812 L 166.09375 133.066406 L 159.625 133.066406 L 159.625 124.507812 C 159.625 123.078125 158.464844 121.921875 157.035156 121.921875 C 155.609375 121.921875 154.449219 123.078125 154.449219 124.507812 L 154.449219 133.066406 L 149.921875 133.066406 C 148.492188 133.066406 147.335938 134.222656 147.335938 135.648438 L 147.335938 140.871094 L 138.710938 140.871094 C 137.28125 140.871094 136.121094 142.027344 136.121094 143.457031 C 136.121094 144.882812 137.28125 146.039062 138.710938 146.039062 Z M 152.511719 138.234375 L 186.148438 138.234375 L 186.148438 173.113281 L 152.511719 173.113281 Z M 152.511719 138.234375 " fill-opacity="1" fill-rule="nonzero"/><path fill="#000000" d="M 105.070312 293.695312 C 100.789062 293.695312 97.304688 297.171875 97.304688 301.445312 C 97.304688 305.71875 100.789062 309.195312 105.070312 309.195312 C 109.347656 309.195312 112.832031 305.71875 112.832031 301.445312 C 112.832031 297.171875 109.347656 293.695312 105.070312 293.695312 Z M 105.070312 304.027344 C 103.644531 304.027344 102.480469 302.871094 102.480469 301.445312 C 102.480469 300.019531 103.644531 298.859375 105.070312 298.859375 C 106.496094 298.859375 107.65625 300.019531 107.65625 301.445312 C 107.65625 302.871094 106.496094 304.027344 105.070312 304.027344 Z M 105.070312 304.027344 " fill-opacity="1" fill-rule="nonzero"/><path fill="#000000" d="M 191.375 208.320312 C 191.375 200.746094 185.207031 194.589844 177.628906 194.589844 C 170.046875 194.589844 163.878906 200.75 163.878906 208.320312 C 163.878906 215.890625 170.046875 222.046875 177.628906 222.046875 C 185.207031 222.050781 191.375 215.890625 191.375 208.320312 Z M 169.054688 208.320312 C 169.054688 203.601562 172.902344 199.757812 177.628906 199.757812 C 182.355469 199.757812 186.199219 203.601562 186.199219 208.320312 C 186.199219 213.042969 182.355469 216.878906 177.628906 216.878906 C 172.902344 216.878906 169.054688 213.042969 169.054688 208.320312 Z M 169.054688 208.320312 " fill-opacity="1" fill-rule="nonzero"/><path fill="#000000" d="M 281.027344 293.695312 C 276.746094 293.695312 273.261719 297.171875 273.261719 301.445312 C 273.261719 305.71875 276.746094 309.195312 281.027344 309.195312 C 285.304688 309.195312 288.789062 305.71875 288.789062 301.445312 C 288.789062 297.171875 285.304688 293.695312 281.027344 293.695312 Z M 281.027344 304.027344 C 279.601562 304.027344 278.4375 302.871094 278.4375 301.445312 C 278.4375 300.019531 279.601562 298.859375 281.027344 298.859375 C 282.453125 298.859375 283.613281 300.019531 283.613281 301.445312 C 283.613281 302.871094 282.453125 304.027344 281.027344 304.027344 Z M 281.027344 304.027344 " fill-opacity="1" fill-rule="nonzero"/><path fill="#000000" d="M 281.027344 103.777344 C 285.304688 103.777344 288.789062 100.300781 288.789062 96.027344 C 288.789062 91.753906 285.304688 88.277344 281.027344 88.277344 C 276.746094 88.277344 273.261719 91.753906 273.261719 96.027344 C 273.261719 100.300781 276.742188 103.777344 281.027344 103.777344 Z M 281.027344 93.445312 C 282.453125 93.445312 283.613281 94.601562 283.613281 96.027344 C 283.613281 97.453125 282.453125 98.613281 281.027344 98.613281 C 279.601562 98.613281 278.4375 97.453125 278.4375 96.027344 C 278.4375 94.601562 279.597656 93.445312 281.027344 93.445312 Z M 281.027344 93.445312 " fill-opacity="1" fill-rule="nonzero"/><path fill="#000000" d="M 189.542969 291.105469 C 189.542969 291.621094 189.445312 292.117188 189.246094 292.589844 C 189.050781 293.066406 188.769531 293.484375 188.40625 293.847656 C 188.042969 294.210938 187.621094 294.492188 187.148438 294.6875 C 186.671875 294.882812 186.175781 294.984375 185.660156 294.984375 C 185.148438 294.984375 184.652344 294.882812 184.175781 294.6875 C 183.699219 294.492188 183.28125 294.210938 182.917969 293.847656 C 182.554688 293.484375 182.273438 293.066406 182.074219 292.589844 C 181.878906 292.117188 181.78125 291.621094 181.78125 291.105469 C 181.78125 290.59375 181.878906 290.097656 182.074219 289.625 C 182.273438 289.148438 182.554688 288.730469 182.917969 288.367188 C 183.28125 288.003906 183.699219 287.722656 184.175781 287.527344 C 184.652344 287.328125 185.148438 287.230469 185.660156 287.230469 C 186.175781 287.230469 186.671875 287.328125 187.148438 287.527344 C 187.621094 287.722656 188.042969 288.003906 188.40625 288.367188 C 188.769531 288.730469 189.050781 289.148438 189.246094 289.625 C 189.445312 290.097656 189.542969 290.59375 189.542969 291.105469 Z M 189.542969 291.105469 " fill-opacity="1" fill-rule="nonzero"/><path fill="#000000" d="M 244.042969 283.355469 C 244.042969 283.871094 243.941406 284.363281 243.746094 284.839844 C 243.550781 285.3125 243.269531 285.734375 242.90625 286.097656 C 242.539062 286.460938 242.121094 286.738281 241.644531 286.9375 C 241.167969 287.132812 240.675781 287.230469 240.160156 287.230469 C 239.644531 287.230469 239.152344 287.132812 238.675781 286.9375 C 238.199219 286.738281 237.78125 286.460938 237.414062 286.097656 C 237.050781 285.734375 236.769531 285.3125 236.574219 284.839844 C 236.378906 284.363281 236.277344 283.871094 236.277344 283.355469 C 236.277344 282.84375 236.378906 282.347656 236.574219 281.871094 C 236.769531 281.398438 237.050781 280.980469 237.414062 280.617188 C 237.78125 280.253906 238.199219 279.972656 238.675781 279.773438 C 239.152344 279.578125 239.644531 279.480469 240.160156 279.480469 C 240.675781 279.480469 241.167969 279.578125 241.644531 279.773438 C 242.121094 279.972656 242.539062 280.253906 242.90625 280.617188 C 243.269531 280.980469 243.550781 281.398438 243.746094 281.871094 C 243.941406 282.347656 244.042969 282.84375 244.042969 283.355469 Z M 244.042969 283.355469 " fill-opacity="1" fill-rule="nonzero"/><path fill="#000000" d="M 274.886719 265.058594 L 274.886719 222.972656 C 274.886719 222.636719 274.816406 222.300781 274.6875 221.984375 C 274.554688 221.664062 274.367188 221.382812 274.125 221.140625 L 259.769531 206.808594 C 259.53125 206.566406 259.246094 206.378906 258.925781 206.246094 C 258.609375 206.113281 258.273438 206.046875 257.9375 206.046875 L 215.789062 206.046875 C 214.359375 206.046875 213.203125 207.203125 213.203125 208.628906 L 213.203125 250.71875 C 213.203125 250.742188 213.214844 250.757812 213.214844 250.78125 C 213.222656 251.097656 213.28125 251.410156 213.402344 251.707031 C 213.53125 252.027344 213.722656 252.316406 213.964844 252.554688 L 228.289062 266.882812 C 228.53125 267.125 228.8125 267.316406 229.132812 267.449219 C 229.449219 267.578125 229.785156 267.648438 230.121094 267.648438 L 272.296875 267.648438 C 273.726562 267.644531 274.886719 266.488281 274.886719 265.058594 Z M 252.28125 262.476562 L 234.167969 244.386719 C 233.15625 243.378906 231.519531 243.378906 230.507812 244.386719 C 229.496094 245.398438 229.496094 247.03125 230.507812 248.042969 L 244.964844 262.476562 L 231.195312 262.476562 L 218.375 249.652344 L 218.375 211.21875 L 238.117188 211.21875 L 256.230469 229.304688 C 256.734375 229.808594 257.398438 230.0625 258.058594 230.0625 C 258.722656 230.0625 259.382812 229.808594 259.890625 229.304688 C 260.902344 228.296875 260.902344 226.664062 259.890625 225.652344 L 245.433594 211.21875 L 256.867188 211.21875 L 269.710938 224.042969 L 269.710938 262.480469 L 252.28125 262.480469 Z M 252.28125 262.476562 " fill-opacity="1" fill-rule="nonzero"/><path fill="#000000" d="M 118.226562 113.578125 C 118.730469 114.082031 119.394531 114.335938 120.054688 114.335938 C 120.71875 114.335938 121.378906 114.082031 121.882812 113.578125 C 122.894531 112.570312 122.894531 110.9375 121.882812 109.925781 L 91.894531 79.980469 C 90.882812 78.96875 89.25 78.96875 88.238281 79.980469 C 87.226562 80.988281 87.226562 82.625 88.238281 83.632812 Z M 118.226562 113.578125 " fill-opacity="1" fill-rule="nonzero"/><path fill="#000000" d="M 118.226562 137.476562 C 118.730469 137.980469 119.394531 138.234375 120.054688 138.234375 C 120.71875 138.234375 121.378906 137.980469 121.882812 137.476562 C 122.894531 136.464844 122.894531 134.832031 121.882812 133.824219 L 91.894531 103.878906 C 90.882812 102.867188 89.25 102.867188 88.238281 103.878906 C 87.226562 104.886719 87.226562 106.519531 88.238281 107.53125 Z M 118.226562 137.476562 " fill-opacity="1" fill-rule="nonzero"/><path fill="#000000" d="M 108.417969 151.582031 C 108.925781 152.085938 109.585938 152.339844 110.25 152.339844 C 110.910156 152.339844 111.574219 152.085938 112.078125 151.582031 C 113.089844 150.570312 113.089844 148.9375 112.078125 147.929688 L 91.894531 127.773438 C 90.882812 126.761719 89.25 126.761719 88.238281 127.773438 C 87.226562 128.78125 87.226562 130.414062 88.238281 131.425781 Z M 108.417969 151.582031 " fill-opacity="1" fill-rule="nonzero"/><path fill="#000000" d="M 101.789062 167.78125 C 102.449219 167.78125 103.113281 167.527344 103.617188 167.023438 C 104.628906 166.015625 104.628906 164.382812 103.617188 163.371094 L 91.894531 151.667969 C 90.882812 150.660156 89.25 150.660156 88.238281 151.667969 C 87.226562 152.679688 87.226562 154.3125 88.238281 155.324219 L 99.957031 167.023438 C 100.464844 167.527344 101.125 167.78125 101.789062 167.78125 Z M 101.789062 167.78125 " fill-opacity="1" fill-rule="nonzero"/><path fill="#000000" d="M 155.632812 281.417969 L 124.585938 281.417969 C 123.15625 281.417969 122 282.574219 122 284.003906 L 122 294.335938 C 122 294.335938 122 294.339844 122 294.339844 C 122 294.339844 122 294.34375 122 294.34375 L 122 304.675781 C 122 306.105469 123.15625 307.261719 124.585938 307.261719 L 155.632812 307.261719 C 157.0625 307.261719 158.222656 306.105469 158.222656 304.675781 L 158.222656 294.34375 C 158.222656 294.34375 158.222656 294.339844 158.222656 294.339844 C 158.222656 294.339844 158.222656 294.335938 158.222656 294.335938 L 158.222656 284.003906 C 158.222656 282.574219 157.0625 281.417969 155.632812 281.417969 Z M 153.046875 291.753906 L 147.871094 291.753906 L 147.871094 286.585938 L 153.046875 286.585938 Z M 142.699219 291.753906 L 137.523438 291.753906 L 137.523438 286.585938 L 142.699219 286.585938 Z M 127.171875 286.585938 L 132.347656 286.585938 L 132.347656 291.753906 L 127.171875 291.753906 Z M 127.171875 296.921875 L 132.347656 296.921875 L 132.347656 302.089844 L 127.171875 302.089844 Z M 137.523438 296.921875 L 142.699219 296.921875 L 142.699219 302.089844 L 137.523438 302.089844 Z M 153.046875 302.089844 L 147.871094 302.089844 L 147.871094 296.921875 L 153.046875 296.921875 Z M 153.046875 302.089844 " fill-opacity="1" fill-rule="nonzero"/></svg>