<svg xmlns="http://www.w3.org/2000/svg" xmlns:xlink="http://www.w3.org/1999/xlink" width="500" zoomAndPan="magnify" viewBox="0 0 375 374.999991" height="500" preserveAspectRatio="xMidYMid meet" version="1.0"><defs><clipPath id="1d868fab0c"><path d="M 187.5 0 C 83.945312 0 0 83.945312 0 187.5 C 0 291.054688 83.945312 375 187.5 375 C 291.054688 375 375 291.054688 375 187.5 C 375 83.945312 291.054688 0 187.5 0 Z M 187.5 0 " clip-rule="nonzero"/></clipPath><clipPath id="a7e81be993"><path d="M 56 89.078125 L 323 89.078125 L 323 308.078125 L 56 308.078125 Z M 56 89.078125 " clip-rule="nonzero"/></clipPath></defs><g clip-path="url(#1d868fab0c)"><rect x="-37.5" width="450" fill="#ffffff" y="-37.499999" height="449.999989" fill-opacity="1"/><path stroke-linecap="butt" transform="matrix(0.75, 0, 0, 0.75, 0.0000045, 0.000000000000042633)" fill="none" stroke-linejoin="miter" d="M 249.999994 -0.000000000000056843 C 111.927078 -0.000000000000056843 -0.000006 111.927084 -0.000006 250 C -0.000006 388.072917 111.927078 500.000001 249.999994 500.000001 C 388.072911 500.000001 499.999995 388.072917 499.999995 250 C 499.999995 111.927084 388.072911 -0.000000000000056843 249.999994 -0.000000000000056843 Z M 249.999994 -0.000000000000056843 " stroke="#000000" stroke-width="8" stroke-opacity="1" stroke-miterlimit="4"/></g><g clip-path="url(#a7e81be993)"><path fill="#100f0d" d="M 64.363281 94.976562 L 314.617188 94.976562 C 315.917969 94.953125 316.984375 95.996094 317.007812 97.300781 C 317.007812 97.300781 317.007812 97.324219 317.007812 97.347656 L 317.007812 254.507812 C 317.007812 255.8125 315.964844 256.878906 314.664062 256.878906 C 314.640625 256.878906 314.640625 256.878906 314.617188 256.878906 L 64.363281 256.878906 C 63.082031 256.902344 61.992188 255.859375 61.96875 254.554688 C 61.96875 254.554688 61.96875 254.53125 61.96875 254.507812 L 61.96875 97.347656 C 61.96875 96.042969 63.035156 94.976562 64.316406 94.976562 C 64.339844 94.976562 64.363281 94.976562 64.363281 94.976562 Z M 61.921875 89.101562 C 58.703125 89.148438 56.144531 91.777344 56.144531 94.976562 L 56.144531 269.105469 C 56.144531 272.328125 58.703125 274.933594 61.921875 275.007812 L 169.878906 275.007812 L 169.878906 293.609375 C 169.878906 294.910156 168.835938 295.976562 167.535156 295.976562 C 167.507812 295.976562 167.484375 295.976562 167.460938 295.976562 L 154.484375 295.976562 C 148.824219 296.023438 143.941406 299.910156 142.59375 305.410156 C 142.285156 306.664062 143.066406 307.945312 144.320312 308.253906 C 144.511719 308.300781 144.699219 308.324219 144.890625 308.324219 L 234.253906 308.324219 C 235.554688 308.324219 236.597656 307.257812 236.597656 305.953125 C 236.597656 305.765625 236.574219 305.574219 236.550781 305.410156 C 235.199219 299.863281 230.203125 295.953125 224.496094 295.976562 L 211.515625 295.976562 C 210.238281 295.929688 209.21875 294.886719 209.21875 293.609375 L 209.21875 275.007812 L 317.03125 275.007812 C 320.277344 275.03125 322.929688 272.398438 322.976562 269.152344 C 322.976562 269.152344 322.976562 269.128906 322.976562 269.105469 L 322.976562 94.976562 C 322.953125 91.730469 320.324219 89.101562 317.078125 89.101562 C 317.054688 89.101562 317.054688 89.101562 317.03125 89.101562 L 61.921875 89.101562 " fill-opacity="1" fill-rule="nonzero"/></g></svg>