<?xml version="1.0" standalone="no"?>
<!DOCTYPE svg PUBLIC "-//W3C//DTD SVG 20010904//EN"
 "http://www.w3.org/TR/2001/REC-SVG-20010904/DTD/svg10.dtd">
<svg version="1.0" xmlns="http://www.w3.org/2000/svg"
 width="1454.000000pt" height="592.000000pt" viewBox="0 0 1454.000000 592.000000"
 preserveAspectRatio="xMidYMid meet">

<g transform="translate(0.000000,592.000000) scale(0.100000,-0.100000)"
fill="#000000" stroke="none">
<path d="M7691 5404 c-137 -37 -232 -136 -275 -285 -15 -50 -16 -145 -14 -860
l3 -804 29 -57 c37 -74 119 -156 193 -194 l58 -29 845 0 845 0 45 23 c56 29
143 113 177 171 52 88 53 93 50 956 l-2 800 -32 66 c-41 82 -111 150 -201 192
l-67 32 -800 2 c-681 2 -808 0 -854 -13z m433 -230 c114 -56 173 -157 164
-284 -9 -124 -57 -188 -346 -461 -81 -77 -122 -123 -122 -137 0 -13 48 -71
133 -159 268 -280 288 -304 307 -372 18 -66 12 -146 -16 -205 -29 -61 -96
-130 -149 -152 -48 -20 -335 -20 -373 0 -36 19 -78 65 -91 99 -8 19 -11 278
-11 795 0 864 -5 807 77 865 49 35 106 44 253 42 104 -2 121 -5 174 -31z m638
3 c147 -69 205 -210 143 -347 -21 -45 -68 -96 -262 -287 -204 -200 -235 -235
-227 -252 10 -22 168 -186 575 -598 154 -155 279 -287 279 -293 0 -7 -131 -10
-395 -10 -217 0 -395 3 -395 8 0 4 14 27 30 52 78 117 81 301 7 418 -18 28
-110 134 -205 236 -142 153 -171 189 -163 203 5 10 74 81 153 158 160 156 200
207 234 304 40 114 29 229 -36 353 -27 53 -36 78 -27 82 7 3 63 4 124 2 93 -4
122 -9 165 -29z m577 -10 c28 -18 50 -44 64 -75 22 -47 22 -49 24 -777 l3
-730 -350 354 c-193 195 -350 358 -350 362 0 9 73 84 232 236 182 175 208 225
208 392 0 107 -12 141 -76 224 l-37 49 120 -4 c111 -3 122 -5 162 -31z"/>
<path d="M945 5360 c-11 -5 -43 -9 -71 -9 -27 -1 -54 -5 -60 -10 -5 -5 -27
-11 -49 -14 -61 -8 -112 -22 -210 -57 -157 -56 -199 -78 -214 -113 -8 -18 -25
-54 -38 -81 -12 -28 -23 -56 -23 -63 0 -7 -4 -21 -9 -31 -9 -18 -55 -166 -67
-217 -4 -16 -8 -84 -9 -150 l-3 -120 13 90 c7 50 18 115 25 145 6 30 14 72 17
93 3 20 9 40 14 43 5 3 9 13 9 22 0 9 12 48 26 87 62 169 72 186 125 212 47
23 185 73 254 91 96 25 164 41 221 51 73 13 498 15 557 2 23 -5 78 -17 122
-26 44 -9 88 -21 97 -26 10 -5 25 -9 34 -9 21 0 156 -46 207 -70 22 -11 45
-20 50 -20 18 0 77 -51 77 -66 0 -8 4 -22 9 -32 95 -179 162 -494 162 -762 0
-152 -16 -278 -59 -465 -9 -40 -45 -149 -63 -192 -5 -13 -13 -33 -18 -45 -44
-108 -41 -105 -105 -133 -87 -40 -107 -47 -233 -84 -71 -22 -110 -30 -248 -53
-86 -14 -456 -14 -545 0 -110 18 -162 30 -250 57 -47 15 -95 29 -108 32 -12 3
-25 9 -28 14 -3 5 -12 9 -20 9 -13 0 -98 35 -143 59 -15 8 -21 17 -40 64 -6
15 -15 37 -20 50 -63 154 -118 368 -128 502 -3 39 -7 72 -9 74 -8 9 -4 -219 5
-241 5 -13 17 -58 27 -101 10 -43 21 -80 26 -83 4 -3 8 -18 8 -34 0 -16 5 -32
10 -35 6 -3 10 -15 10 -26 0 -10 4 -27 9 -37 6 -9 23 -47 40 -84 25 -54 37
-70 66 -82 19 -9 51 -23 71 -32 45 -20 168 -64 212 -75 17 -5 49 -14 70 -19
156 -42 227 -50 465 -50 174 0 257 4 310 15 40 8 95 20 122 25 90 19 188 49
269 82 28 11 62 25 76 30 14 6 31 13 38 17 18 8 36 43 81 156 5 11 13 31 19
45 5 14 15 45 22 70 7 25 16 56 21 70 7 23 26 102 49 210 5 25 11 110 14 190
8 240 -16 474 -63 610 -5 14 -14 45 -21 70 -7 25 -16 54 -20 65 -80 204 -78
202 -140 231 -30 14 -63 30 -72 35 -10 5 -26 9 -36 9 -10 0 -22 4 -27 8 -11
10 -76 33 -145 52 -25 7 -56 16 -70 20 -14 5 -43 11 -65 15 -22 4 -65 12 -95
17 -71 13 -509 20 -535 8z"/>
<path d="M9880 4295 l0 -947 448 4 c383 4 457 7 517 22 288 72 449 290 432
586 -9 155 -64 274 -181 389 l-54 54 41 51 c23 28 55 80 72 116 25 57 29 76
28 155 0 99 -11 150 -50 231 -52 111 -161 199 -310 251 l-78 27 -432 4 -433 3
0 -946z m790 614 c160 -36 218 -213 118 -363 l-30 -46 -267 2 -266 3 -3 208
-2 207 202 0 c112 0 223 -5 248 -11z m115 -752 c161 -71 195 -303 60 -414 -65
-54 -122 -63 -388 -63 l-237 0 0 243 c0 134 3 247 8 251 4 4 122 6 262 4 216
-3 261 -7 295 -21z"/>
<path d="M11410 4295 l0 -945 178 2 177 3 5 350 5 350 90 3 c50 1 95 -1 101
-5 10 -8 153 -207 392 -550 l107 -153 203 0 c161 0 203 3 199 13 -2 7 -115
170 -251 362 -234 332 -245 350 -224 359 13 5 61 26 107 47 108 51 212 151
259 250 63 131 79 301 42 443 -26 102 -62 168 -131 237 -68 68 -137 108 -249
145 l-85 28 -462 4 -463 3 0 -946z m900 599 c51 -24 103 -71 127 -117 24 -47
28 -144 10 -208 -21 -71 -64 -121 -135 -156 l-57 -28 -242 -3 -243 -4 0 272 0
271 248 -3 c226 -3 251 -5 292 -24z"/>
<path d="M13000 4295 l0 -945 180 0 180 0 0 945 0 945 -180 0 -180 0 0 -945z"/>
<path d="M5329 5184 c-24 -24 -27 -24 -80 -13 -60 13 -284 6 -334 -10 -16 -5
-50 -15 -75 -22 -52 -13 -157 -54 -215 -84 -175 -89 -372 -291 -468 -480 -88
-175 -132 -386 -108 -527 49 -290 192 -464 456 -553 111 -38 338 -51 465 -27
144 27 128 17 171 105 21 44 39 86 39 94 0 7 5 13 10 13 6 0 10 6 10 13 0 6
16 44 35 82 19 39 35 76 35 83 0 6 5 12 10 12 6 0 10 7 10 15 0 8 12 35 26 61
14 25 23 48 21 51 -3 3 -39 -11 -79 -30 -125 -59 -193 -77 -295 -77 -121 0
-241 47 -306 120 -63 71 -89 140 -89 236 0 217 148 392 380 449 149 36 314 4
450 -87 50 -35 51 -34 104 67 62 119 111 210 117 215 11 9 75 139 71 142 -3 2
-25 14 -50 27 -25 12 -99 51 -166 86 l-120 64 -25 -25z"/>
<path d="M2984 5193 c-6 -5 -48 -80 -94 -168 -46 -88 -100 -193 -121 -233 -22
-39 -39 -74 -39 -77 0 -3 24 -5 54 -5 57 0 74 -15 57 -48 -4 -9 -16 -51 -26
-92 -9 -41 -21 -85 -26 -98 -5 -13 -9 -36 -9 -52 0 -16 -4 -32 -10 -35 -5 -3
-10 -15 -10 -27 0 -11 -7 -43 -16 -72 -29 -91 -34 -112 -34 -134 0 -11 -4 -23
-9 -26 -5 -3 -11 -23 -14 -43 -2 -21 -12 -65 -22 -98 -35 -121 -53 -193 -61
-240 -3 -16 -8 -37 -11 -45 -3 -8 -16 -52 -28 -98 -18 -65 -20 -85 -10 -88 7
-3 217 -3 466 -1 458 4 469 5 564 41 175 67 314 206 365 366 27 81 13 288 -21
335 -36 49 -94 104 -114 109 -40 10 -30 38 26 71 81 48 181 157 224 243 36 71
38 79 37 171 0 122 -20 170 -97 243 -38 35 -50 43 -105 66 -85 35 -94 36 -500
39 -223 2 -410 0 -416 -4z m576 -441 c44 -22 56 -47 52 -107 -4 -39 -11 -54
-42 -85 -41 -41 -68 -50 -183 -57 -91 -5 -109 3 -101 50 11 71 44 190 56 205
17 20 175 16 218 -6z m-100 -550 c69 -38 88 -136 36 -194 -58 -66 -139 -91
-276 -86 l-85 3 1 35 c1 19 9 62 19 95 9 33 21 77 25 97 13 64 20 68 139 68
84 0 113 -4 141 -18z"/>
<path d="M5965 5192 c-6 -4 -17 -20 -25 -37 -8 -16 -34 -63 -57 -103 -24 -41
-43 -80 -43 -88 0 -8 -4 -14 -9 -14 -5 0 -11 -8 -14 -17 -8 -23 -86 -165 -98
-177 -19 -20 -8 -26 46 -26 40 0 57 -4 61 -15 5 -12 -39 -109 -137 -300 -14
-27 -36 -70 -49 -95 -19 -38 -222 -436 -365 -718 -27 -53 -38 -85 -31 -88 6
-2 135 -3 286 -2 l274 3 27 64 c51 121 70 166 84 191 l14 25 177 3 c119 2 181
-1 190 -9 10 -8 14 -47 16 -142 l3 -132 245 0 245 0 -2 495 c-1 272 -4 527 -7
565 -3 39 -10 191 -15 339 -8 201 -13 271 -23 277 -16 11 -779 12 -793 1z
m343 -773 l-3 -234 -104 -3 c-105 -3 -134 5 -114 30 5 7 17 32 26 55 9 23 26
64 38 90 11 26 25 57 29 68 14 34 42 98 61 139 11 22 19 46 19 55 0 20 32 53
42 43 5 -5 7 -114 6 -243z"/>
<path d="M1110 5176 c-105 -26 -178 -83 -219 -170 -16 -36 -21 -65 -21 -130 0
-47 5 -98 12 -113 19 -45 83 -135 118 -168 35 -33 98 -123 119 -170 43 -97 53
-166 58 -407 5 -263 23 -282 23 -25 0 319 34 440 165 586 122 135 148 187 147
299 0 59 -6 90 -22 125 -42 88 -127 154 -230 177 -55 12 -92 11 -150 -4z"/>
<path d="M664 4652 c-55 -20 -113 -60 -113 -79 -1 -7 -5 -13 -9 -13 -16 0 -42
-96 -42 -153 0 -32 6 -72 14 -90 20 -49 86 -101 148 -116 73 -18 120 -32 140
-42 10 -5 23 -9 29 -9 33 0 152 -72 194 -118 35 -37 85 -144 85 -181 0 -16 5
-33 10 -36 7 -4 10 64 10 197 0 165 -4 216 -19 274 -23 89 -63 175 -110 234
-34 43 -45 55 -90 92 -65 55 -163 70 -247 40z"/>
<path d="M1549 4657 c-108 -41 -223 -178 -265 -317 -9 -30 -20 -68 -25 -84
-12 -37 -12 -446 0 -446 4 0 11 21 15 47 21 155 145 264 366 322 88 24 115 33
145 48 57 29 114 140 102 200 -4 15 -9 42 -13 59 -10 49 -74 126 -127 152 -58
29 -148 37 -198 19z"/>
<path d="M495 4181 c-8 -17 -15 -54 -15 -88 1 -71 29 -126 86 -166 38 -26 42
-27 144 -23 58 3 125 7 150 11 59 8 113 -14 163 -68 l37 -40 0 31 c0 45 -35
114 -82 162 -36 38 -145 97 -208 114 -14 4 -42 11 -62 16 -93 24 -125 35 -148
50 -47 31 -49 31 -65 1z"/>
<path d="M1827 4185 c-20 -14 -45 -25 -56 -25 -11 0 -23 -4 -26 -10 -3 -5 -16
-10 -28 -10 -32 0 -138 -35 -212 -69 -68 -32 -131 -88 -154 -136 -7 -17 -17
-38 -22 -47 -5 -10 -9 -32 -9 -50 l0 -31 38 40 c49 54 103 76 162 68 25 -3 90
-9 144 -11 113 -6 131 0 187 58 42 42 54 94 43 177 -9 68 -21 76 -67 46z"/>
<path d="M657 3670 c-9 -11 -17 -31 -17 -43 0 -13 -5 -28 -12 -35 -9 -9 -9
-18 0 -37 17 -37 31 -30 25 13 -10 75 33 127 69 83 15 -20 18 -20 18 -6 0 20
-27 44 -50 45 -9 0 -23 -9 -33 -20z"/>
<path d="M1659 3668 c-6 -24 -7 -81 -3 -111 l6 -37 20 25 c19 25 21 25 45 10
35 -23 40 -11 12 27 -14 18 -31 45 -38 61 -8 15 -20 27 -28 27 -7 0 -13 -1
-14 -2z m41 -64 c0 -26 -17 -33 -26 -9 -8 20 3 48 16 40 5 -3 10 -17 10 -31z"/>
<path d="M814 3638 c-4 -7 -11 -30 -15 -53 -4 -22 -10 -50 -14 -62 -6 -17 -3
-23 8 -23 10 0 17 11 19 28 2 21 8 27 28 27 21 0 25 -5 25 -32 0 -17 3 -35 8
-39 4 -4 7 16 7 44 0 29 5 52 10 52 6 0 10 9 10 20 0 11 -4 20 -10 20 -5 0
-10 -9 -10 -19 0 -26 -31 -36 -47 -15 -16 21 0 44 30 44 26 0 20 5 -15 14 -17
4 -30 1 -34 -6z"/>
<path d="M1507 3633 c-25 -25 9 -143 42 -143 34 0 51 11 50 34 -1 15 -3 16 -6
4 -9 -34 -63 -32 -63 3 0 10 -5 30 -12 44 -10 21 -9 29 5 43 14 14 21 14 37 4
17 -10 20 -10 20 3 0 10 -10 15 -33 15 -19 0 -37 -3 -40 -7z"/>
<path d="M966 3604 c-3 -9 -6 -42 -6 -75 l0 -59 36 0 c50 0 64 21 63 95 -1 60
-1 60 -10 20 -24 -101 -24 -100 -49 -100 -28 0 -30 14 -16 93 8 41 -5 60 -18
26z"/>
<path d="M1352 3607 c-7 -8 -7 -18 -2 -27 6 -8 10 -36 10 -62 0 -54 3 -57 47
-51 37 6 46 28 28 71 -9 21 -10 33 -2 41 16 16 -10 41 -43 41 -15 0 -32 -6
-38 -13z m64 -12 c6 -15 -11 -45 -26 -45 -12 0 -20 28 -14 45 8 19 33 19 40 0z
m12 -82 c-2 -20 -9 -28 -23 -28 -14 0 -21 8 -23 28 -3 23 0 27 23 27 23 0 26
-4 23 -27z"/>
<path d="M704 3583 c4 -10 -2 -24 -14 -36 -25 -22 -21 -32 9 -22 16 5 21 15
21 41 0 19 -5 34 -11 34 -6 0 -8 -7 -5 -17z"/>
<path d="M1130 3568 c0 -18 -3 -50 -6 -70 -8 -44 10 -53 19 -10 4 20 14 30 39
37 28 8 33 15 33 40 0 22 -5 31 -20 34 -17 3 -17 1 -6 -12 17 -21 5 -59 -17
-55 -12 3 -17 13 -16 36 1 21 -3 32 -12 32 -9 0 -14 -11 -14 -32z"/>
<path d="M303 2662 l-23 -3 0 -325 0 -324 45 0 45 0 0 291 c0 295 3 318 39
346 18 14 20 13 -49 17 -19 1 -45 1 -57 -2z"/>
<path d="M9257 2444 c-4 -4 -7 -62 -7 -129 0 -67 -2 -124 -5 -127 -3 -3 -27 6
-53 19 -93 48 -203 13 -251 -80 -48 -93 -12 -229 71 -274 51 -27 154 -24 195
5 l32 23 11 -21 c8 -15 19 -20 38 -18 l27 3 0 300 0 300 -25 3 c-14 2 -29 0
-33 -4z m-52 -314 c85 -80 34 -230 -78 -230 -47 0 -99 27 -118 61 -18 35 -15
110 6 142 27 42 63 58 118 54 32 -3 56 -12 72 -27z"/>
<path d="M12069 2331 c-1 -67 -2 -125 -3 -131 -1 -13 -12 -11 -61 11 -156 71
-311 -74 -261 -244 33 -115 162 -170 268 -116 38 19 43 20 53 5 7 -9 26 -16
44 -16 l31 0 -2 303 -3 302 -32 3 -33 3 -1 -120z m-45 -200 c34 -32 48 -86 34
-138 -24 -96 -127 -126 -203 -59 -37 31 -39 36 -39 89 0 61 20 101 65 125 35
19 115 10 143 -17z"/>
<path d="M6649 2406 c-204 -73 -267 -321 -119 -475 77 -81 122 -92 353 -89
l192 3 3 27 c4 31 -8 36 -91 40 l-49 3 27 30 c15 17 38 54 52 84 34 72 30 176
-10 244 -70 118 -232 178 -358 133z m178 -71 c46 -20 69 -39 102 -90 21 -33
26 -52 26 -110 0 -90 -33 -151 -102 -192 -56 -32 -148 -37 -200 -10 -95 50
-145 170 -111 268 39 117 174 180 285 134z"/>
<path d="M8049 2405 c-62 -20 -129 -81 -162 -148 -37 -75 -38 -181 -4 -259 27
-60 88 -121 151 -149 81 -37 228 -21 296 33 33 27 37 45 13 64 -24 18 -48 17
-63 -2 -38 -45 -170 -60 -225 -25 -77 48 -114 114 -115 201 0 62 32 141 71
177 63 58 155 68 238 27 46 -23 55 -25 77 -13 34 18 27 38 -28 72 -38 24 -60
29 -125 33 -52 3 -93 -1 -124 -11z"/>
<path d="M10204 2401 c-142 -65 -126 -252 27 -301 136 -43 169 -73 149 -135
-22 -67 -123 -88 -194 -40 -35 24 -38 24 -62 8 -63 -41 26 -107 143 -106 149
1 241 115 189 236 -20 47 -42 62 -133 92 -99 33 -133 60 -133 108 0 74 99 111
179 66 l42 -23 26 26 c31 31 25 43 -31 69 -54 25 -148 25 -202 0z"/>
<path d="M7165 2397 c-3 -7 -4 -134 -3 -282 l3 -270 35 0 35 0 5 120 5 120 45
0 44 0 41 -70 c97 -170 101 -175 144 -175 22 0 42 4 45 8 2 4 -29 59 -70 122
-41 63 -74 117 -74 120 0 3 19 14 41 25 55 26 81 63 87 123 6 72 -17 115 -81
147 -46 23 -62 25 -174 25 -91 0 -125 -3 -128 -13z m281 -90 c33 -39 31 -81
-6 -118 -28 -29 -32 -30 -112 -27 l-83 3 -3 74 c-4 106 -7 104 94 100 79 -4
87 -6 110 -32z"/>
<path d="M603 2383 c-12 -2 -34 -18 -48 -34 l-25 -31 0 -695 0 -695 29 -29 29
-29 451 0 451 0 -2 183 -3 182 -282 3 -283 2 0 569 c0 510 -2 569 -16 575 -17
7 -266 6 -301 -1z"/>
<path d="M1117 2383 c-4 -3 -7 -89 -7 -190 l0 -183 284 0 283 0 7 -62 c4 -33
6 -160 5 -282 l-2 -221 189 0 189 0 0 448 0 448 -25 19 c-13 10 -37 21 -53 24
-41 8 -862 8 -870 -1z"/>
<path d="M2248 2379 c-16 -9 -18 -28 -18 -174 0 -91 1 -166 3 -167 1 -2 254
-5 562 -8 l560 -5 0 -105 0 -105 -560 -5 -560 -5 0 -465 0 -465 175 0 175 0 3
283 c1 186 6 282 13 282 10 0 60 -45 249 -224 47 -45 119 -112 160 -150 41
-38 105 -98 142 -133 l66 -63 260 0 c144 0 263 4 266 9 6 9 8 7 -259 250 -99
91 -218 201 -265 245 l-85 81 315 5 315 5 0 460 0 460 -750 2 c-497 2 -756 -1
-767 -8z"/>
<path d="M3935 2378 c-3 -7 -4 -348 -3 -758 l3 -745 183 -3 182 -2 0 760 0
760 -180 0 c-135 0 -182 -3 -185 -12z"/>
<path d="M4477 2383 c-6 -6 -10 -930 -4 -935 1 -2 227 -5 502 -8 l500 -5 3
-84 c2 -61 -1 -87 -10 -92 -7 -5 -235 -9 -505 -9 l-493 0 0 -185 0 -185 758 2
757 3 3 445 c1 245 0 455 -3 468 l-5 22 -500 0 -500 0 0 95 0 95 503 2 502 3
3 165 c1 91 0 175 -3 188 l-5 22 -749 0 c-411 0 -751 -3 -754 -7z"/>
<path d="M10613 2322 c-6 -4 -13 -28 -15 -52 -3 -44 -4 -45 -40 -48 -27 -2
-39 -9 -44 -24 -8 -26 3 -36 46 -40 l35 -3 5 -137 c6 -157 14 -175 88 -185 65
-9 92 2 92 37 0 28 -2 30 -39 30 -60 0 -71 22 -71 147 0 114 -4 108 75 115 25
3 30 7 30 28 0 23 -5 25 -50 30 l-50 5 -3 45 c-3 42 -14 60 -37 60 -5 0 -15
-4 -22 -8z"/>
<path d="M8570 2219 c-174 -72 -189 -289 -26 -365 60 -28 110 -30 168 -7 56
21 86 49 109 98 59 129 -30 273 -174 282 -29 1 -63 -2 -77 -8z m142 -84 c28
-19 39 -35 46 -67 19 -93 -34 -168 -120 -168 -81 0 -128 49 -128 136 0 41 5
51 39 85 33 33 45 39 83 39 30 0 55 -8 80 -25z"/>
<path d="M9535 2216 c-104 -39 -155 -174 -102 -276 33 -64 82 -100 150 -107
112 -11 235 61 166 98 -17 9 -26 7 -48 -8 -58 -43 -141 -35 -185 18 -48 56
-42 59 124 59 l150 0 6 25 c4 15 -2 50 -12 82 -15 46 -27 63 -60 86 -50 35
-130 44 -189 23z m152 -81 c58 -58 46 -70 -80 -73 -88 -2 -108 0 -113 12 -14
36 60 96 120 96 30 0 45 -7 73 -35z"/>
<path d="M10945 2214 c-57 -21 -69 -35 -51 -59 13 -18 17 -19 48 -6 18 8 54
16 80 18 41 4 51 1 73 -21 16 -16 25 -35 23 -49 -3 -20 -10 -23 -83 -28 -44
-3 -92 -11 -106 -17 -30 -12 -67 -55 -75 -87 -8 -34 21 -92 58 -115 44 -28
131 -24 176 9 24 17 32 19 32 8 0 -16 21 -27 52 -27 19 0 19 6 16 153 -3 133
-5 155 -23 179 -40 54 -137 72 -220 42z m175 -226 c-1 -54 -50 -98 -110 -98
-52 0 -82 24 -78 63 4 43 52 67 131 67 l57 0 0 -32z"/>
<path d="M11450 2223 c-8 -3 -27 -14 -42 -24 -33 -24 -34 -24 -41 2 -4 16 -12
20 -34 17 l-28 -3 0 -185 0 -185 30 0 30 0 5 120 c3 71 11 131 19 146 26 52
102 65 148 25 28 -24 28 -27 33 -158 l5 -133 30 0 30 0 3 140 c3 160 -8 194
-69 227 -32 17 -88 22 -119 11z"/>
<path d="M12326 2215 c-21 -7 -46 -21 -55 -29 -14 -15 -14 -18 2 -33 15 -15
21 -16 50 -4 17 8 53 16 79 18 42 4 50 2 73 -23 14 -16 25 -37 23 -48 -3 -19
-12 -22 -83 -27 -44 -3 -92 -11 -107 -17 -93 -38 -100 -165 -11 -207 46 -22
131 -15 172 14 l29 21 5 -21 c4 -16 12 -20 34 -17 l28 3 0 152 0 152 -29 30
c-48 50 -132 64 -210 36z m172 -218 c12 -60 -56 -114 -128 -104 -47 6 -60 18
-60 58 0 45 49 69 135 66 39 -2 51 -6 53 -20z"/>
<path d="M12814 2216 c-18 -8 -35 -19 -38 -25 -11 -17 -23 -13 -29 9 -7 26
-64 29 -70 3 -3 -16 -2 -242 2 -331 1 -31 3 -33 34 -30 l32 3 3 122 c3 121 3
122 33 152 22 22 41 31 72 33 41 3 42 4 42 38 0 30 -4 35 -25 37 -14 2 -39 -4
-56 -11z"/>
<path d="M1112 1629 l3 -192 180 2 c99 1 183 6 188 10 4 4 6 88 5 187 l-3 179
-188 3 -187 2 2 -191z m266 7 c3 -81 -1 -86 -75 -86 -80 0 -83 2 -83 79 0 37
3 71 7 75 4 4 39 5 78 4 l70 -3 3 -69z"/>
<path d="M8107 1474 c-4 -4 -7 -139 -7 -301 0 -252 2 -294 15 -299 23 -9 65 5
65 21 0 19 14 19 29 1 6 -7 32 -19 58 -26 82 -24 175 16 213 90 54 105 23 227
-71 279 -49 28 -131 28 -184 1 -22 -11 -40 -20 -42 -20 -1 0 -4 57 -5 128 l-3
127 -30 3 c-17 2 -34 0 -38 -4z m262 -297 c30 -14 60 -69 61 -110 1 -99 -96
-163 -184 -122 -45 22 -66 59 -66 120 0 104 92 159 189 112z"/>
<path d="M14277 1473 c-4 -3 -7 -138 -7 -299 l0 -292 25 -6 c14 -4 30 -4 35
-1 6 4 10 126 10 306 l0 299 -28 0 c-16 0 -32 -3 -35 -7z"/>
<path d="M12728 1439 c-32 -18 -41 -48 -23 -75 19 -29 55 -32 78 -6 23 25 21
47 -5 72 -25 23 -27 23 -50 9z"/>
<path d="M6486 1424 c-3 -9 -6 -132 -6 -274 0 -280 2 -289 55 -276 25 6 25 7
25 125 l0 118 98 5 c103 5 140 17 182 62 34 37 40 136 11 183 -37 58 -83 73
-230 73 -108 0 -130 -3 -135 -16z m265 -67 c46 -35 48 -114 5 -143 -33 -21
-161 -31 -181 -14 -11 9 -15 32 -15 85 0 39 3 75 7 78 12 12 167 7 184 -6z"/>
<path d="M11292 1158 l3 -283 30 0 30 0 5 225 c3 124 7 227 8 230 2 4 36 -43
89 -120 132 -194 219 -317 232 -327 17 -15 69 -17 89 -5 9 7 12 70 10 283 l-3
274 -37 3 -38 3 0 -219 c0 -120 -3 -222 -6 -225 -4 -4 -69 85 -144 196 -76
111 -145 212 -154 225 -14 18 -27 22 -67 22 l-49 0 2 -282z"/>
<path d="M7031 1238 c-28 -14 -54 -37 -72 -67 -50 -79 -36 -194 33 -258 27
-26 98 -53 137 -53 68 0 174 61 156 89 -17 28 -42 30 -76 6 -24 -19 -46 -25
-82 -25 -43 0 -54 5 -84 35 -20 20 -33 42 -31 52 3 16 19 18 151 21 107 2 147
6 148 15 7 79 -31 156 -91 187 -53 27 -132 26 -189 -2z m174 -63 c16 -15 25
-36 25 -55 l0 -31 -107 3 c-100 3 -108 5 -111 23 -2 12 10 34 29 53 28 28 38
32 86 32 44 0 58 -5 78 -25z"/>
<path d="M7416 1253 c-11 -11 -7 -371 5 -378 5 -4 21 -4 35 -1 24 6 24 7 24
127 0 104 3 125 20 149 30 42 69 55 112 37 43 -18 48 -38 48 -193 0 -112 0
-114 24 -120 14 -3 30 -3 35 1 7 4 11 49 11 115 0 139 16 185 69 201 50 15 88
-1 106 -46 10 -23 15 -71 15 -149 0 -63 4 -117 10 -121 5 -3 21 -3 35 1 l25 6
0 123 c0 155 -5 180 -47 221 -29 30 -40 34 -85 34 -37 0 -63 -7 -94 -25 l-43
-25 -37 25 c-47 32 -115 34 -163 4 -32 -19 -36 -20 -47 -5 -12 18 -48 29 -58
19z"/>
<path d="M8653 1239 c-46 -22 -53 -38 -28 -59 13 -11 22 -10 51 3 19 10 57 17
84 17 41 0 52 -4 70 -27 30 -39 23 -58 -25 -60 -129 -8 -205 -45 -221 -106
-22 -91 78 -167 179 -137 23 6 50 19 59 27 16 14 19 14 36 -7 13 -17 24 -21
40 -16 21 7 22 12 22 144 0 158 -12 195 -70 224 -50 25 -143 24 -197 -3z m193
-204 c8 -30 -22 -85 -57 -103 -27 -15 -92 -10 -114 8 -8 7 -15 25 -15 41 0 35
34 60 94 70 76 12 85 11 92 -16z"/>
<path d="M9495 1247 c-48 -22 -59 -41 -36 -62 18 -16 22 -16 52 -1 49 25 121
21 147 -7 12 -13 22 -33 22 -45 0 -19 -5 -22 -45 -22 -131 0 -215 -50 -215
-130 0 -56 14 -78 63 -101 57 -25 95 -24 151 6 38 20 48 22 52 11 7 -18 30
-27 49 -20 12 5 15 31 15 148 0 152 -6 175 -53 210 -35 26 -156 34 -202 13z
m183 -220 c6 -47 -35 -95 -84 -103 -61 -9 -104 17 -104 63 0 28 39 55 94 64
72 12 91 7 94 -24z"/>
<path d="M9878 1252 c-20 -4 -25 -75 -18 -254 l5 -123 30 0 30 0 5 122 c6 151
19 175 96 183 48 5 49 5 49 40 0 33 -2 35 -34 38 -23 2 -43 -3 -62 -17 -33
-24 -49 -27 -49 -7 0 15 -25 24 -52 18z"/>
<path d="M10230 1249 c-35 -14 -59 -39 -54 -54 9 -22 33 -26 64 -10 41 21 123
20 143 -2 15 -18 21 -36 18 -60 -1 -8 -17 -13 -46 -13 -77 0 -143 -19 -175
-51 -77 -78 -30 -180 90 -196 28 -4 51 1 90 21 60 30 60 30 60 12 0 -20 16
-29 40 -21 19 6 20 15 20 141 0 154 -11 192 -62 224 -36 22 -142 27 -188 9z
m169 -203 c29 -34 -19 -111 -76 -122 -66 -12 -116 30 -98 85 11 36 150 66 174
37z"/>
<path d="M10602 1252 c-9 -3 -12 -52 -12 -187 0 -160 2 -184 16 -189 9 -4 25
-4 35 -1 17 6 19 18 19 123 0 97 3 122 19 148 35 57 108 68 150 23 24 -26 31
-69 31 -190 0 -103 7 -118 51 -104 17 6 19 19 19 141 0 148 -9 186 -55 222
-37 30 -127 30 -170 2 -36 -24 -45 -25 -45 -6 0 14 -36 26 -58 18z"/>
<path d="M11968 1239 c-42 -22 -48 -43 -18 -59 15 -8 27 -7 49 5 39 19 110 19
139 -1 14 -10 22 -25 22 -45 0 -28 -2 -29 -45 -29 -128 0 -215 -52 -215 -130
0 -101 124 -150 228 -89 34 19 34 19 51 -2 13 -16 23 -20 40 -14 23 7 23 8 19
149 -5 161 -17 198 -73 222 -50 21 -152 17 -197 -7z m190 -220 c2 -27 -3 -44
-22 -65 -21 -25 -32 -29 -75 -29 -63 0 -96 26 -85 69 8 32 32 46 98 56 76 11
81 9 84 -31z"/>
<path d="M12389 1245 c-60 -33 -80 -122 -36 -163 22 -21 76 -43 139 -56 63
-14 56 -80 -9 -92 -28 -5 -47 -2 -80 16 -42 22 -44 22 -63 5 -26 -24 -25 -39
3 -58 48 -31 103 -41 161 -28 153 34 148 201 -8 226 -56 9 -86 30 -86 59 0 37
55 53 104 30 29 -14 40 -15 61 -6 35 16 29 40 -15 63 -42 23 -133 25 -171 4z"/>
<path d="M12978 1231 c-48 -30 -98 -112 -98 -159 0 -87 70 -178 153 -202 182
-50 337 161 225 306 -47 60 -97 84 -177 84 -46 0 -66 -6 -103 -29z m168 -51
c32 -16 46 -31 58 -61 20 -50 20 -65 -3 -116 -33 -72 -118 -94 -187 -48 -79
51 -67 187 20 226 52 24 61 23 112 -1z"/>
<path d="M13395 1252 c-3 -3 -5 -87 -5 -188 0 -159 2 -183 16 -188 9 -4 25 -4
35 -1 17 6 19 18 19 104 0 122 6 154 35 185 30 32 68 41 106 26 49 -21 59 -54
59 -188 0 -127 4 -137 49 -125 20 5 21 12 21 139 0 149 -9 186 -56 223 -25 20
-38 22 -91 19 -43 -3 -68 -10 -83 -23 -20 -18 -23 -18 -33 -4 -12 16 -62 31
-72 21z"/>
<path d="M13904 1245 c-47 -21 -58 -39 -35 -59 18 -16 22 -16 50 -2 16 9 52
16 80 16 42 0 53 -4 70 -26 39 -50 30 -61 -58 -67 -126 -8 -183 -47 -185 -128
-2 -80 84 -134 173 -110 25 7 54 19 63 28 16 14 19 14 36 -7 13 -17 24 -21 40
-16 21 7 22 12 22 149 0 158 -6 178 -59 214 -27 19 -47 23 -100 22 -36 0 -80
-7 -97 -14z m175 -194 c19 -12 6 -72 -22 -99 -57 -53 -157 -32 -157 33 0 30
38 57 94 66 60 10 70 10 85 0z"/>
<path d="M1687 1233 c-10 -39 -2 -722 9 -733 7 -7 72 -10 190 -8 l179 3 0 375
0 375 -187 3 c-171 2 -187 1 -191 -15z"/>
<path d="M6157 1244 c-4 -4 -7 -136 -7 -293 0 -314 0 -315 -60 -346 -24 -12
-81 -15 -320 -15 l-291 0 3 -42 3 -43 345 -3 345 -2 30 24 30 24 0 349 0 348
-35 3 c-20 2 -39 0 -43 -4z"/>
<path d="M8990 1239 c0 -5 24 -67 54 -137 98 -228 96 -221 79 -272 -18 -55
-45 -80 -88 -80 -27 0 -34 -4 -37 -25 -7 -36 14 -49 69 -41 52 7 86 33 108 81
11 25 88 219 115 290 4 11 12 32 19 48 6 15 15 37 20 50 5 12 14 35 20 50 17
43 14 48 -25 45 l-36 -3 -48 -129 c-27 -71 -53 -133 -57 -137 -5 -5 -33 54
-63 131 l-54 140 -38 0 c-21 0 -38 -5 -38 -11z"/>
<path d="M12710 1066 l0 -186 25 -6 c52 -13 56 2 53 195 l-3 176 -37 3 -38 3
0 -185z"/>
</g>
</svg>
