<svg xmlns="http://www.w3.org/2000/svg" xmlns:xlink="http://www.w3.org/1999/xlink" width="500" zoomAndPan="magnify" viewBox="0 0 375 374.999991" height="500" preserveAspectRatio="xMidYMid meet" version="1.0"><defs><clipPath id="1b1460c5a3"><path d="M 187.5 0 C 83.945312 0 0 83.945312 0 187.5 C 0 291.054688 83.945312 375 187.5 375 C 291.054688 375 375 291.054688 375 187.5 C 375 83.945312 291.054688 0 187.5 0 Z M 187.5 0 " clip-rule="nonzero"/></clipPath><clipPath id="49227d560a"><path d="M 65.558594 86 L 336.308594 86 L 336.308594 289 L 65.558594 289 Z M 65.558594 86 " clip-rule="nonzero"/></clipPath></defs><g clip-path="url(#1b1460c5a3)"><rect x="-37.5" width="450" fill="#ffffff" y="-37.499999" height="449.999989" fill-opacity="1"/><path stroke-linecap="butt" transform="matrix(0.75, 0, 0, 0.75, 0.0000045, 0.000000000000042633)" fill="none" stroke-linejoin="miter" d="M 249.999994 -0.000000000000056843 C 111.927078 -0.000000000000056843 -0.000006 111.927084 -0.000006 250 C -0.000006 388.072917 111.927078 500.000001 249.999994 500.000001 C 388.072911 500.000001 499.999995 388.072917 499.999995 250 C 499.999995 111.927084 388.072911 -0.000000000000056843 249.999994 -0.000000000000056843 Z M 249.999994 -0.000000000000056843 " stroke="#000000" stroke-width="8" stroke-opacity="1" stroke-miterlimit="4"/></g><g clip-path="url(#49227d560a)"><path fill="#000000" d="M 319.101562 116.074219 L 169.046875 116.074219 L 169.046875 91.257812 C 169.046875 90.917969 169.011719 90.582031 168.945312 90.246094 C 168.878906 89.914062 168.78125 89.589844 168.652344 89.277344 C 168.523438 88.960938 168.363281 88.664062 168.175781 88.382812 C 167.984375 88.101562 167.769531 87.839844 167.53125 87.597656 C 167.289062 87.359375 167.027344 87.144531 166.746094 86.957031 C 166.464844 86.765625 166.164062 86.605469 165.851562 86.476562 C 165.539062 86.347656 165.214844 86.25 164.882812 86.183594 C 164.546875 86.117188 164.210938 86.082031 163.871094 86.082031 L 70.734375 86.082031 C 70.394531 86.082031 70.054688 86.117188 69.722656 86.183594 C 69.390625 86.25 69.066406 86.347656 68.753906 86.476562 C 68.4375 86.605469 68.140625 86.765625 67.859375 86.957031 C 67.574219 87.144531 67.3125 87.359375 67.074219 87.597656 C 66.832031 87.839844 66.617188 88.101562 66.429688 88.382812 C 66.242188 88.664062 66.082031 88.960938 65.953125 89.277344 C 65.820312 89.589844 65.722656 89.914062 65.65625 90.246094 C 65.589844 90.582031 65.558594 90.917969 65.558594 91.257812 L 65.558594 283.765625 C 65.558594 284.105469 65.589844 284.441406 65.65625 284.773438 C 65.722656 285.109375 65.820312 285.429688 65.953125 285.746094 C 66.082031 286.058594 66.242188 286.355469 66.429688 286.640625 C 66.617188 286.921875 66.832031 287.183594 67.074219 287.421875 C 67.3125 287.664062 67.574219 287.878906 67.859375 288.066406 C 68.140625 288.253906 68.4375 288.414062 68.753906 288.542969 C 69.066406 288.675781 69.390625 288.773438 69.722656 288.839844 C 70.054688 288.90625 70.394531 288.9375 70.734375 288.9375 L 163.871094 288.9375 C 164.210938 288.9375 164.546875 288.90625 164.882812 288.839844 C 165.214844 288.773438 165.539062 288.675781 165.851562 288.542969 C 166.164062 288.414062 166.464844 288.253906 166.746094 288.066406 C 167.027344 287.878906 167.289062 287.664062 167.53125 287.421875 C 167.769531 287.183594 167.984375 286.921875 168.175781 286.640625 C 168.363281 286.355469 168.523438 286.058594 168.652344 285.746094 C 168.78125 285.429688 168.878906 285.109375 168.945312 284.773438 C 169.011719 284.441406 169.046875 284.105469 169.046875 283.765625 L 169.046875 247.335938 L 221.695312 247.335938 C 220.925781 253 219.332031 258.425781 216.910156 263.605469 C 216.152344 263.8125 215.417969 264.078125 214.707031 264.40625 C 213.992188 264.734375 213.3125 265.113281 212.660156 265.554688 C 212.011719 265.992188 211.402344 266.476562 210.828125 267.015625 C 210.257812 267.550781 209.734375 268.132812 209.257812 268.753906 C 208.78125 269.375 208.355469 270.03125 207.988281 270.722656 C 207.617188 271.414062 207.304688 272.132812 207.050781 272.875 C 206.796875 273.613281 206.605469 274.371094 206.476562 275.144531 C 206.347656 275.917969 206.28125 276.695312 206.277344 277.480469 L 206.277344 283.726562 C 206.277344 284.066406 206.308594 284.402344 206.375 284.734375 C 206.441406 285.070312 206.539062 285.390625 206.667969 285.707031 C 206.800781 286.019531 206.960938 286.316406 207.148438 286.601562 C 207.335938 286.882812 207.550781 287.144531 207.792969 287.382812 C 208.03125 287.625 208.292969 287.839844 208.574219 288.027344 C 208.859375 288.214844 209.15625 288.375 209.46875 288.503906 C 209.785156 288.636719 210.109375 288.734375 210.441406 288.800781 C 210.773438 288.867188 211.109375 288.898438 211.449219 288.898438 L 260.605469 288.898438 C 260.945312 288.898438 261.28125 288.867188 261.617188 288.800781 C 261.949219 288.734375 262.273438 288.636719 262.585938 288.503906 C 262.902344 288.375 263.199219 288.214844 263.480469 288.027344 C 263.765625 287.839844 264.027344 287.625 264.265625 287.382812 C 264.507812 287.144531 264.71875 286.882812 264.910156 286.601562 C 265.097656 286.316406 265.257812 286.019531 265.386719 285.707031 C 265.515625 285.390625 265.617188 285.070312 265.683594 284.734375 C 265.75 284.402344 265.78125 284.066406 265.78125 283.726562 L 265.78125 277.480469 C 265.78125 276.695312 265.714844 275.914062 265.585938 275.140625 C 265.457031 274.367188 265.269531 273.609375 265.015625 272.863281 C 264.765625 272.121094 264.453125 271.402344 264.085938 270.710938 C 263.714844 270.015625 263.292969 269.359375 262.816406 268.734375 C 262.339844 268.109375 261.816406 267.527344 261.246094 266.988281 C 260.675781 266.449219 260.0625 265.960938 259.414062 265.523438 C 258.761719 265.082031 258.078125 264.699219 257.367188 264.371094 C 256.652344 264.042969 255.917969 263.773438 255.160156 263.566406 C 252.738281 258.386719 251.144531 252.960938 250.375 247.296875 L 319.101562 247.296875 C 319.664062 247.296875 320.222656 247.269531 320.78125 247.214844 C 321.339844 247.15625 321.894531 247.074219 322.445312 246.964844 C 322.996094 246.855469 323.539062 246.71875 324.078125 246.554688 C 324.613281 246.394531 325.140625 246.203125 325.660156 245.988281 C 326.179688 245.773438 326.6875 245.535156 327.179688 245.269531 C 327.675781 245.003906 328.15625 244.714844 328.621094 244.40625 C 329.089844 244.09375 329.539062 243.757812 329.972656 243.402344 C 330.40625 243.046875 330.824219 242.671875 331.21875 242.273438 C 331.617188 241.878906 331.992188 241.460938 332.347656 241.027344 C 332.703125 240.59375 333.039062 240.144531 333.351562 239.679688 C 333.664062 239.210938 333.949219 238.730469 334.214844 238.234375 C 334.480469 237.742188 334.71875 237.234375 334.933594 236.714844 C 335.148438 236.199219 335.339844 235.671875 335.503906 235.132812 C 335.664062 234.597656 335.800781 234.054688 335.910156 233.503906 C 336.023438 232.953125 336.105469 232.398438 336.160156 231.839844 C 336.214844 231.28125 336.242188 230.722656 336.242188 230.160156 L 336.242188 133.167969 C 336.242188 132.609375 336.210938 132.050781 336.15625 131.492188 C 336.101562 130.9375 336.015625 130.382812 335.90625 129.832031 C 335.792969 129.285156 335.65625 128.742188 335.492188 128.207031 C 335.328125 127.667969 335.140625 127.144531 334.925781 126.625 C 334.707031 126.109375 334.46875 125.605469 334.203125 125.109375 C 333.9375 124.617188 333.648438 124.136719 333.335938 123.671875 C 333.027344 123.207031 332.691406 122.757812 332.335938 122.324219 C 331.980469 121.890625 331.601562 121.476562 331.207031 121.082031 C 330.808594 120.6875 330.394531 120.3125 329.960938 119.957031 C 329.527344 119.601562 329.078125 119.269531 328.609375 118.957031 C 328.144531 118.644531 327.664062 118.359375 327.171875 118.09375 C 326.675781 117.832031 326.167969 117.589844 325.652344 117.378906 C 325.132812 117.164062 324.605469 116.972656 324.070312 116.8125 C 323.535156 116.648438 322.992188 116.511719 322.441406 116.402344 C 321.890625 116.292969 321.339844 116.210938 320.78125 116.15625 C 320.222656 116.101562 319.664062 116.074219 319.101562 116.074219 Z M 319.101562 126.417969 C 319.550781 126.417969 319.992188 126.464844 320.425781 126.550781 C 320.863281 126.640625 321.289062 126.769531 321.699219 126.9375 C 322.113281 127.109375 322.503906 127.320312 322.875 127.566406 C 323.242188 127.816406 323.585938 128.097656 323.902344 128.410156 C 324.21875 128.726562 324.5 129.070312 324.746094 129.4375 C 324.992188 129.808594 325.203125 130.199219 325.375 130.613281 C 325.546875 131.023438 325.675781 131.449219 325.761719 131.882812 C 325.851562 132.320312 325.894531 132.761719 325.894531 133.207031 L 325.894531 211.773438 L 169.046875 211.773438 L 169.046875 126.417969 Z M 158.699219 278.59375 L 75.90625 278.59375 L 75.90625 96.429688 L 158.699219 96.429688 Z M 255.433594 278.59375 L 216.625 278.59375 L 216.625 277.480469 C 216.625 277.210938 216.652344 276.945312 216.703125 276.683594 C 216.753906 276.417969 216.832031 276.164062 216.933594 275.914062 C 217.039062 275.667969 217.164062 275.429688 217.3125 275.207031 C 217.460938 274.984375 217.632812 274.777344 217.820312 274.585938 C 218.011719 274.394531 218.21875 274.226562 218.441406 274.078125 C 218.664062 273.925781 218.898438 273.800781 219.148438 273.695312 C 219.394531 273.59375 219.652344 273.515625 219.914062 273.460938 C 220.175781 273.410156 220.445312 273.382812 220.710938 273.382812 L 251.34375 273.382812 C 251.613281 273.382812 251.878906 273.410156 252.144531 273.460938 C 252.40625 273.515625 252.660156 273.59375 252.910156 273.695312 C 253.15625 273.800781 253.394531 273.925781 253.617188 274.078125 C 253.839844 274.226562 254.046875 274.394531 254.234375 274.585938 C 254.425781 274.777344 254.59375 274.984375 254.742188 275.207031 C 254.894531 275.429688 255.019531 275.667969 255.121094 275.914062 C 255.222656 276.164062 255.300781 276.417969 255.355469 276.683594 C 255.40625 276.945312 255.433594 277.210938 255.433594 277.480469 Z M 243.789062 263.074219 L 228.304688 263.074219 C 230.296875 258.003906 231.550781 252.757812 232.070312 247.335938 L 239.988281 247.335938 C 240.511719 252.753906 241.765625 258.003906 243.75 263.074219 Z M 319.101562 236.988281 L 169.046875 236.988281 L 169.046875 222.117188 L 325.933594 222.117188 L 325.933594 230.199219 C 325.933594 230.648438 325.886719 231.089844 325.800781 231.527344 C 325.710938 231.96875 325.582031 232.390625 325.410156 232.804688 C 325.238281 233.21875 325.027344 233.609375 324.777344 233.980469 C 324.527344 234.351562 324.246094 234.695312 323.925781 235.011719 C 323.609375 235.328125 323.265625 235.609375 322.890625 235.855469 C 322.519531 236.101562 322.125 236.3125 321.710938 236.480469 C 321.296875 236.648438 320.871094 236.777344 320.433594 236.863281 C 319.992188 236.949219 319.550781 236.992188 319.101562 236.988281 Z M 319.101562 236.988281 " fill-opacity="1" fill-rule="nonzero"/></g><path fill="#000000" d="M 240.011719 223.851562 L 232.042969 223.851562 C 231.703125 223.851562 231.367188 223.882812 231.035156 223.949219 C 230.703125 224.015625 230.378906 224.113281 230.0625 224.246094 C 229.75 224.375 229.453125 224.535156 229.167969 224.722656 C 228.886719 224.910156 228.625 225.125 228.386719 225.367188 C 228.144531 225.605469 227.929688 225.867188 227.742188 226.148438 C 227.554688 226.433594 227.394531 226.730469 227.265625 227.042969 C 227.132812 227.359375 227.035156 227.679688 226.96875 228.015625 C 226.902344 228.347656 226.871094 228.683594 226.871094 229.023438 C 226.871094 229.363281 226.902344 229.699219 226.96875 230.03125 C 227.035156 230.367188 227.132812 230.6875 227.265625 231.003906 C 227.394531 231.316406 227.554688 231.613281 227.742188 231.898438 C 227.929688 232.179688 228.144531 232.441406 228.386719 232.679688 C 228.625 232.921875 228.886719 233.136719 229.167969 233.324219 C 229.453125 233.511719 229.75 233.671875 230.0625 233.800781 C 230.378906 233.933594 230.703125 234.03125 231.035156 234.097656 C 231.367188 234.164062 231.703125 234.195312 232.042969 234.195312 L 240.011719 234.195312 C 240.351562 234.195312 240.6875 234.164062 241.023438 234.097656 C 241.355469 234.03125 241.679688 233.933594 241.992188 233.800781 C 242.308594 233.671875 242.605469 233.511719 242.886719 233.324219 C 243.171875 233.136719 243.429688 232.921875 243.671875 232.679688 C 243.910156 232.441406 244.125 232.179688 244.316406 231.898438 C 244.503906 231.613281 244.664062 231.316406 244.792969 231.003906 C 244.921875 230.6875 245.023438 230.367188 245.085938 230.03125 C 245.152344 229.699219 245.1875 229.363281 245.1875 229.023438 C 245.1875 228.683594 245.152344 228.347656 245.085938 228.015625 C 245.023438 227.679688 244.921875 227.359375 244.792969 227.042969 C 244.664062 226.730469 244.503906 226.433594 244.316406 226.148438 C 244.125 225.867188 243.910156 225.605469 243.671875 225.367188 C 243.429688 225.125 243.171875 224.910156 242.886719 224.722656 C 242.605469 224.535156 242.308594 224.375 241.992188 224.246094 C 241.679688 224.113281 241.355469 224.015625 241.023438 223.949219 C 240.6875 223.882812 240.351562 223.851562 240.011719 223.851562 Z M 240.011719 223.851562 " fill-opacity="1" fill-rule="nonzero"/><path fill="#000000" d="M 117.300781 227.585938 C 116.765625 227.585938 116.230469 227.613281 115.695312 227.667969 C 115.160156 227.71875 114.628906 227.796875 114.101562 227.902344 C 113.574219 228.007812 113.054688 228.136719 112.539062 228.292969 C 112.027344 228.449219 111.519531 228.628906 111.023438 228.835938 C 110.527344 229.042969 110.042969 229.269531 109.570312 229.523438 C 109.097656 229.777344 108.636719 230.054688 108.1875 230.351562 C 107.742188 230.648438 107.3125 230.96875 106.894531 231.308594 C 106.480469 231.652344 106.082031 232.011719 105.703125 232.390625 C 105.324219 232.769531 104.964844 233.167969 104.621094 233.582031 C 104.28125 234 103.960938 234.429688 103.664062 234.875 C 103.367188 235.320312 103.089844 235.78125 102.835938 236.257812 C 102.582031 236.730469 102.355469 237.214844 102.148438 237.710938 C 101.941406 238.207031 101.761719 238.710938 101.605469 239.226562 C 101.449219 239.738281 101.320312 240.261719 101.214844 240.785156 C 101.109375 241.3125 101.03125 241.84375 100.976562 242.378906 C 100.925781 242.914062 100.898438 243.449219 100.898438 243.984375 C 100.898438 244.523438 100.925781 245.058594 100.976562 245.59375 C 101.03125 246.128906 101.109375 246.660156 101.214844 247.183594 C 101.320312 247.710938 101.449219 248.230469 101.605469 248.746094 C 101.761719 249.261719 101.941406 249.765625 102.148438 250.261719 C 102.355469 250.757812 102.582031 251.242188 102.835938 251.714844 C 103.089844 252.191406 103.367188 252.648438 103.664062 253.097656 C 103.960938 253.542969 104.28125 253.972656 104.621094 254.390625 C 104.964844 254.804688 105.324219 255.203125 105.703125 255.582031 C 106.082031 255.960938 106.480469 256.320312 106.894531 256.660156 C 107.3125 257.003906 107.742188 257.320312 108.1875 257.621094 C 108.636719 257.917969 109.097656 258.195312 109.570312 258.449219 C 110.042969 258.699219 110.527344 258.929688 111.023438 259.136719 C 111.519531 259.339844 112.027344 259.523438 112.539062 259.679688 C 113.054688 259.832031 113.574219 259.964844 114.101562 260.070312 C 114.628906 260.171875 115.160156 260.253906 115.695312 260.304688 C 116.230469 260.359375 116.765625 260.382812 117.300781 260.382812 C 117.839844 260.382812 118.375 260.359375 118.910156 260.304688 C 119.445312 260.253906 119.976562 260.171875 120.503906 260.070312 C 121.027344 259.964844 121.550781 259.832031 122.0625 259.679688 C 122.578125 259.523438 123.082031 259.339844 123.578125 259.136719 C 124.074219 258.929688 124.5625 258.699219 125.035156 258.449219 C 125.507812 258.195312 125.96875 257.917969 126.414062 257.621094 C 126.863281 257.320312 127.292969 257.003906 127.707031 256.660156 C 128.125 256.320312 128.519531 255.960938 128.902344 255.582031 C 129.28125 255.203125 129.640625 254.804688 129.980469 254.390625 C 130.324219 253.972656 130.640625 253.542969 130.941406 253.097656 C 131.238281 252.648438 131.515625 252.191406 131.769531 251.714844 C 132.019531 251.242188 132.25 250.757812 132.457031 250.261719 C 132.660156 249.765625 132.84375 249.261719 133 248.746094 C 133.15625 248.230469 133.285156 247.710938 133.390625 247.183594 C 133.496094 246.660156 133.574219 246.128906 133.625 245.59375 C 133.679688 245.058594 133.703125 244.523438 133.703125 243.984375 C 133.703125 243.449219 133.675781 242.914062 133.625 242.378906 C 133.570312 241.84375 133.492188 241.316406 133.386719 240.789062 C 133.28125 240.261719 133.148438 239.742188 132.992188 239.230469 C 132.835938 238.714844 132.65625 238.210938 132.449219 237.714844 C 132.242188 237.21875 132.015625 236.734375 131.761719 236.261719 C 131.507812 235.789062 131.230469 235.328125 130.933594 234.882812 C 130.632812 234.433594 130.316406 234.003906 129.972656 233.589844 C 129.632812 233.175781 129.273438 232.777344 128.894531 232.398438 C 128.511719 232.019531 128.117188 231.660156 127.699219 231.316406 C 127.285156 230.976562 126.855469 230.65625 126.410156 230.359375 C 125.960938 230.0625 125.503906 229.785156 125.03125 229.53125 C 124.554688 229.277344 124.070312 229.046875 123.574219 228.84375 C 123.078125 228.636719 122.574219 228.457031 122.0625 228.300781 C 121.546875 228.144531 121.027344 228.011719 120.5 227.90625 C 119.972656 227.800781 119.445312 227.722656 118.910156 227.667969 C 118.375 227.617188 117.839844 227.589844 117.300781 227.585938 Z M 117.300781 250.039062 C 116.90625 250.039062 116.511719 250 116.121094 249.921875 C 115.730469 249.84375 115.351562 249.730469 114.984375 249.578125 C 114.617188 249.425781 114.269531 249.238281 113.9375 249.019531 C 113.609375 248.796875 113.300781 248.546875 113.019531 248.265625 C 112.742188 247.984375 112.488281 247.679688 112.269531 247.347656 C 112.046875 247.019531 111.859375 246.667969 111.707031 246.300781 C 111.558594 245.933594 111.441406 245.554688 111.363281 245.167969 C 111.285156 244.777344 111.25 244.382812 111.25 243.984375 C 111.25 243.589844 111.285156 243.195312 111.363281 242.804688 C 111.441406 242.414062 111.558594 242.035156 111.707031 241.667969 C 111.859375 241.300781 112.046875 240.953125 112.269531 240.625 C 112.488281 240.292969 112.742188 239.988281 113.019531 239.707031 C 113.300781 239.425781 113.609375 239.175781 113.9375 238.953125 C 114.269531 238.734375 114.617188 238.546875 114.984375 238.394531 C 115.351562 238.242188 115.730469 238.128906 116.121094 238.050781 C 116.511719 237.972656 116.90625 237.933594 117.300781 237.933594 C 117.699219 237.933594 118.09375 237.972656 118.484375 238.050781 C 118.875 238.128906 119.25 238.242188 119.617188 238.394531 C 119.984375 238.546875 120.335938 238.734375 120.664062 238.953125 C 120.996094 239.175781 121.300781 239.425781 121.582031 239.707031 C 121.863281 239.988281 122.113281 240.292969 122.335938 240.625 C 122.558594 240.953125 122.742188 241.300781 122.894531 241.667969 C 123.046875 242.035156 123.164062 242.414062 123.238281 242.804688 C 123.316406 243.195312 123.355469 243.589844 123.355469 243.984375 C 123.355469 244.382812 123.316406 244.777344 123.238281 245.164062 C 123.160156 245.554688 123.042969 245.933594 122.890625 246.300781 C 122.738281 246.667969 122.554688 247.015625 122.332031 247.34375 C 122.109375 247.675781 121.859375 247.980469 121.578125 248.261719 C 121.296875 248.542969 120.992188 248.792969 120.664062 249.015625 C 120.332031 249.234375 119.984375 249.421875 119.617188 249.574219 C 119.25 249.726562 118.871094 249.839844 118.480469 249.917969 C 118.09375 249.996094 117.699219 250.039062 117.300781 250.039062 Z M 117.300781 250.039062 " fill-opacity="1" fill-rule="nonzero"/><path fill="#000000" d="M 148.347656 105.183594 L 86.253906 105.183594 C 85.917969 105.183594 85.578125 105.21875 85.246094 105.285156 C 84.914062 105.351562 84.589844 105.449219 84.277344 105.578125 C 83.960938 105.707031 83.664062 105.867188 83.382812 106.054688 C 83.097656 106.246094 82.835938 106.460938 82.597656 106.699219 C 82.355469 106.941406 82.140625 107.199219 81.953125 107.484375 C 81.765625 107.765625 81.605469 108.0625 81.476562 108.378906 C 81.34375 108.691406 81.246094 109.015625 81.179688 109.347656 C 81.113281 109.679688 81.082031 110.015625 81.082031 110.355469 L 81.082031 132.640625 C 81.082031 132.980469 81.113281 133.316406 81.179688 133.648438 C 81.246094 133.980469 81.34375 134.304688 81.476562 134.617188 C 81.605469 134.933594 81.765625 135.230469 81.953125 135.511719 C 82.140625 135.796875 82.355469 136.058594 82.597656 136.296875 C 82.835938 136.539062 83.097656 136.75 83.382812 136.941406 C 83.664062 137.128906 83.960938 137.289062 84.277344 137.417969 C 84.589844 137.546875 84.914062 137.648438 85.246094 137.710938 C 85.578125 137.777344 85.917969 137.8125 86.253906 137.8125 L 148.347656 137.8125 C 148.6875 137.8125 149.023438 137.777344 149.359375 137.710938 C 149.691406 137.648438 150.015625 137.546875 150.328125 137.417969 C 150.640625 137.289062 150.941406 137.128906 151.222656 136.941406 C 151.503906 136.75 151.765625 136.539062 152.007812 136.296875 C 152.246094 136.058594 152.460938 135.796875 152.652344 135.511719 C 152.839844 135.230469 153 134.933594 153.128906 134.617188 C 153.257812 134.304688 153.355469 133.980469 153.421875 133.648438 C 153.488281 133.316406 153.523438 132.980469 153.523438 132.640625 L 153.523438 110.355469 C 153.523438 110.015625 153.488281 109.679688 153.421875 109.347656 C 153.355469 109.015625 153.257812 108.691406 153.128906 108.378906 C 153 108.0625 152.839844 107.765625 152.652344 107.484375 C 152.460938 107.199219 152.246094 106.941406 152.007812 106.699219 C 151.765625 106.460938 151.503906 106.246094 151.222656 106.054688 C 150.941406 105.867188 150.640625 105.707031 150.328125 105.578125 C 150.015625 105.449219 149.691406 105.351562 149.359375 105.285156 C 149.023438 105.21875 148.6875 105.183594 148.347656 105.183594 Z M 143.175781 127.464844 L 91.429688 127.464844 L 91.429688 115.53125 L 143.175781 115.53125 Z M 143.175781 127.464844 " fill-opacity="1" fill-rule="nonzero"/><path fill="#000000" d="M 148.347656 160.46875 L 86.253906 160.46875 C 85.917969 160.46875 85.578125 160.503906 85.246094 160.570312 C 84.914062 160.636719 84.589844 160.734375 84.277344 160.863281 C 83.960938 160.992188 83.664062 161.152344 83.382812 161.339844 C 83.097656 161.53125 82.835938 161.746094 82.597656 161.984375 C 82.355469 162.226562 82.140625 162.484375 81.953125 162.769531 C 81.765625 163.050781 81.605469 163.347656 81.476562 163.664062 C 81.34375 163.976562 81.246094 164.300781 81.179688 164.632812 C 81.113281 164.964844 81.082031 165.304688 81.082031 165.640625 C 81.082031 165.980469 81.113281 166.320312 81.179688 166.652344 C 81.246094 166.984375 81.34375 167.308594 81.476562 167.621094 C 81.605469 167.9375 81.765625 168.234375 81.953125 168.515625 C 82.140625 168.796875 82.355469 169.058594 82.597656 169.300781 C 82.835938 169.539062 83.097656 169.753906 83.382812 169.945312 C 83.664062 170.132812 83.960938 170.292969 84.277344 170.421875 C 84.589844 170.550781 84.914062 170.648438 85.246094 170.714844 C 85.578125 170.78125 85.917969 170.816406 86.253906 170.816406 L 148.347656 170.816406 C 148.6875 170.816406 149.023438 170.78125 149.359375 170.714844 C 149.691406 170.648438 150.015625 170.550781 150.328125 170.421875 C 150.640625 170.292969 150.941406 170.132812 151.222656 169.945312 C 151.503906 169.753906 151.765625 169.539062 152.007812 169.300781 C 152.246094 169.058594 152.460938 168.796875 152.652344 168.515625 C 152.839844 168.234375 153 167.9375 153.128906 167.621094 C 153.257812 167.308594 153.355469 166.984375 153.421875 166.652344 C 153.488281 166.320312 153.523438 165.980469 153.523438 165.640625 C 153.523438 165.304688 153.488281 164.964844 153.421875 164.632812 C 153.355469 164.300781 153.257812 163.976562 153.128906 163.664062 C 153 163.347656 152.839844 163.050781 152.652344 162.769531 C 152.460938 162.484375 152.246094 162.226562 152.007812 161.984375 C 151.765625 161.746094 151.503906 161.53125 151.222656 161.339844 C 150.941406 161.152344 150.640625 160.992188 150.328125 160.863281 C 150.015625 160.734375 149.691406 160.636719 149.359375 160.570312 C 149.023438 160.503906 148.6875 160.46875 148.347656 160.46875 Z M 148.347656 160.46875 " fill-opacity="1" fill-rule="nonzero"/></svg>