<svg xmlns="http://www.w3.org/2000/svg" xmlns:xlink="http://www.w3.org/1999/xlink" width="500" zoomAndPan="magnify" viewBox="0 0 375 374.999991" height="500" preserveAspectRatio="xMidYMid meet" version="1.0"><defs><clipPath id="71a7547427"><path d="M 187.5 0 C 83.945312 0 0 83.945312 0 187.5 C 0 291.054688 83.945312 375 187.5 375 C 291.054688 375 375 291.054688 375 187.5 C 375 83.945312 291.054688 0 187.5 0 Z M 187.5 0 " clip-rule="nonzero"/></clipPath><clipPath id="031aa924de"><path d="M 38.898438 89.078125 L 335.898438 89.078125 L 335.898438 277 L 38.898438 277 Z M 38.898438 89.078125 " clip-rule="nonzero"/></clipPath></defs><g clip-path="url(#71a7547427)"><rect x="-37.5" width="450" fill="#ffffff" y="-37.499999" height="449.999989" fill-opacity="1"/><path stroke-linecap="butt" transform="matrix(0.75, 0, 0, 0.75, 0.0000045, 0.000000000000042633)" fill="none" stroke-linejoin="miter" d="M 249.999994 -0.000000000000056843 C 111.927078 -0.000000000000056843 -0.000006 111.927084 -0.000006 250 C -0.000006 388.072917 111.927078 500.000001 249.999994 500.000001 C 388.072911 500.000001 499.999995 388.072917 499.999995 250 C 499.999995 111.927084 388.072911 -0.000000000000056843 249.999994 -0.000000000000056843 Z M 249.999994 -0.000000000000056843 " stroke="#000000" stroke-width="8" stroke-opacity="1" stroke-miterlimit="4"/></g><path fill="#000000" d="M 236.898438 157.457031 C 245.097656 157.457031 251.75 150.804688 251.75 142.605469 C 251.75 134.40625 245.097656 127.753906 236.898438 127.753906 C 228.699219 127.753906 222.050781 134.40625 222.050781 142.605469 C 222.050781 150.804688 228.699219 157.457031 236.898438 157.457031 Z M 236.898438 137.65625 C 239.605469 137.65625 241.847656 139.898438 241.847656 142.605469 C 241.847656 145.3125 239.605469 147.554688 236.898438 147.554688 C 234.191406 147.554688 231.949219 145.3125 231.949219 142.605469 C 231.949219 139.898438 234.191406 137.65625 236.898438 137.65625 Z M 236.898438 137.65625 " fill-opacity="1" fill-rule="nonzero"/><path fill="#000000" d="M 276.5 157.457031 C 284.699219 157.457031 291.347656 150.804688 291.347656 142.605469 C 291.347656 134.40625 284.699219 127.753906 276.5 127.753906 C 268.300781 127.753906 261.648438 134.40625 261.648438 142.605469 C 261.648438 150.804688 268.300781 157.457031 276.5 157.457031 Z M 276.5 137.65625 C 279.207031 137.65625 281.449219 139.898438 281.449219 142.605469 C 281.449219 145.3125 279.207031 147.554688 276.5 147.554688 C 273.792969 147.554688 271.550781 145.3125 271.550781 142.605469 C 271.550781 139.898438 273.792969 137.65625 276.5 137.65625 Z M 276.5 137.65625 " fill-opacity="1" fill-rule="nonzero"/><path fill="#000000" d="M 286.398438 167.359375 L 227 167.359375 C 218.800781 167.359375 212.148438 174.011719 212.148438 182.210938 L 212.148438 202.867188 C 212.148438 206.8125 213.695312 210.601562 216.480469 213.386719 L 230.480469 227.390625 C 233.265625 230.175781 237.054688 231.722656 241 231.722656 L 272.398438 231.722656 C 276.34375 231.722656 280.132812 230.175781 282.917969 227.390625 L 296.917969 213.386719 C 299.703125 210.601562 301.25 206.8125 301.25 202.867188 L 301.25 182.210938 C 301.25 174.011719 294.597656 167.359375 286.398438 167.359375 Z M 291.347656 202.867188 C 291.347656 204.183594 290.808594 205.417969 289.878906 206.347656 L 275.878906 220.351562 C 274.953125 221.277344 273.714844 221.820312 272.398438 221.820312 L 241 221.820312 C 239.683594 221.820312 238.445312 221.277344 237.519531 220.351562 L 223.519531 206.347656 C 222.589844 205.417969 222.050781 204.183594 222.050781 202.867188 L 222.050781 182.210938 C 222.050781 179.503906 224.292969 177.261719 227 177.261719 L 286.398438 177.261719 C 289.105469 177.261719 291.347656 179.503906 291.347656 182.210938 Z M 291.347656 202.867188 " fill-opacity="1" fill-rule="nonzero"/><g clip-path="url(#031aa924de)"><path fill="#000000" d="M 316.097656 88.144531 L 58.699219 88.144531 C 47.792969 88.144531 38.898438 97.042969 38.898438 107.949219 L 38.898438 256.476562 C 38.898438 267.382812 47.792969 276.277344 58.699219 276.277344 L 316.097656 276.277344 C 327.003906 276.277344 335.898438 267.382812 335.898438 256.476562 L 335.898438 107.949219 C 335.898438 97.042969 327.003906 88.144531 316.097656 88.144531 Z M 326 256.476562 C 326 261.96875 321.589844 266.378906 316.097656 266.378906 L 58.699219 266.378906 C 53.207031 266.378906 48.800781 261.96875 48.800781 256.476562 L 48.800781 107.949219 C 48.800781 102.457031 53.207031 98.046875 58.699219 98.046875 L 316.097656 98.046875 C 321.589844 98.046875 326 102.457031 326 107.949219 Z M 326 256.476562 " fill-opacity="1" fill-rule="nonzero"/></g><path fill="#000000" d="M 176.804688 140.363281 L 180.980469 136.183594 C 182.914062 134.25 182.914062 131.15625 180.980469 129.222656 C 179.046875 127.289062 175.953125 127.289062 174.019531 129.222656 L 169.84375 133.398438 C 158.550781 123.730469 143.933594 117.851562 128 117.851562 C 112.066406 117.851562 97.449219 123.730469 86.15625 133.398438 L 81.980469 129.222656 C 80.046875 127.289062 76.953125 127.289062 75.019531 129.222656 C 73.085938 131.15625 73.085938 134.25 75.019531 136.183594 L 79.195312 140.363281 C 69.527344 151.65625 63.648438 166.277344 63.648438 182.210938 C 63.648438 198.148438 69.527344 212.769531 79.195312 224.0625 L 75.019531 228.238281 C 73.085938 230.175781 73.085938 233.269531 75.019531 235.203125 C 75.945312 236.207031 77.261719 236.671875 78.5 236.671875 C 79.738281 236.671875 81.050781 236.207031 81.980469 235.203125 L 86.15625 231.023438 C 97.449219 240.695312 112.066406 246.574219 128 246.574219 C 143.933594 246.574219 158.550781 240.695312 169.84375 231.023438 L 174.019531 235.203125 C 174.945312 236.207031 176.261719 236.671875 177.5 236.671875 C 178.738281 236.671875 180.050781 236.207031 180.980469 235.203125 C 182.914062 233.269531 182.914062 230.175781 180.980469 228.238281 L 176.804688 224.0625 C 186.472656 212.769531 192.347656 198.148438 192.347656 182.210938 C 192.347656 166.277344 186.472656 151.65625 176.804688 140.363281 Z M 128 127.753906 C 141.226562 127.753906 153.367188 132.550781 162.804688 140.363281 L 152.207031 150.960938 C 145.554688 145.777344 137.125 142.605469 128 142.605469 C 118.871094 142.605469 110.441406 145.777344 103.789062 150.960938 L 93.195312 140.363281 C 102.628906 132.472656 114.773438 127.753906 128 127.753906 Z M 157.699219 182.210938 C 157.699219 188.632812 155.609375 194.511719 152.207031 199.386719 L 141.378906 188.554688 C 142.308594 186.621094 142.847656 184.535156 142.847656 182.210938 C 142.847656 179.890625 142.308594 177.804688 141.378906 175.871094 L 152.207031 165.039062 C 155.609375 169.914062 157.699219 175.792969 157.699219 182.210938 Z M 98.300781 182.210938 C 98.300781 175.792969 100.386719 169.914062 103.789062 165.039062 L 114.617188 175.871094 C 113.691406 177.804688 113.148438 179.890625 113.148438 182.210938 C 113.148438 184.535156 113.691406 186.621094 114.617188 188.554688 L 103.789062 199.386719 C 100.386719 194.511719 98.300781 188.632812 98.300781 182.210938 Z M 131.480469 185.695312 C 131.480469 185.695312 131.480469 185.769531 131.480469 185.769531 C 130.550781 186.621094 129.3125 187.164062 128 187.164062 C 126.683594 187.164062 125.445312 186.621094 124.519531 185.769531 C 124.519531 185.769531 124.519531 185.695312 124.519531 185.695312 C 124.519531 185.695312 124.441406 185.695312 124.441406 185.695312 C 123.589844 184.765625 123.050781 183.527344 123.050781 182.210938 C 123.050781 180.898438 123.589844 179.660156 124.441406 178.730469 C 124.441406 178.730469 124.519531 178.730469 124.519531 178.730469 C 124.519531 178.730469 124.519531 178.652344 124.519531 178.652344 C 125.445312 177.804688 126.683594 177.261719 128 177.261719 C 129.3125 177.261719 130.550781 177.804688 131.480469 178.652344 C 131.480469 178.652344 131.480469 178.730469 131.480469 178.730469 C 131.480469 178.730469 131.558594 178.730469 131.558594 178.730469 C 132.40625 179.660156 132.949219 180.898438 132.949219 182.210938 C 132.949219 183.527344 132.40625 184.765625 131.558594 185.695312 C 131.558594 185.695312 131.480469 185.695312 131.480469 185.695312 Z M 134.339844 168.828125 C 132.40625 167.902344 130.320312 167.359375 128 167.359375 C 125.679688 167.359375 123.589844 167.902344 121.65625 168.828125 L 110.828125 158 C 115.703125 154.597656 121.578125 152.507812 128 152.507812 C 134.417969 152.507812 140.296875 154.597656 145.167969 158 Z M 121.65625 195.59375 C 123.589844 196.523438 125.679688 197.066406 128 197.066406 C 130.242188 197.066406 132.40625 196.523438 134.339844 195.59375 L 145.167969 206.425781 C 140.296875 209.828125 134.417969 211.917969 128 211.917969 C 121.578125 211.917969 115.703125 209.828125 110.828125 206.425781 Z M 73.550781 182.210938 C 73.550781 168.984375 78.265625 156.839844 86.15625 147.402344 L 96.753906 158 C 91.570312 164.652344 88.398438 173.085938 88.398438 182.210938 C 88.398438 191.339844 91.570312 199.773438 96.753906 206.425781 L 86.15625 217.023438 C 78.265625 207.585938 73.550781 195.441406 73.550781 182.210938 Z M 128 236.671875 C 114.773438 236.671875 102.628906 231.875 93.195312 224.0625 L 103.714844 213.464844 C 110.441406 218.648438 118.871094 221.820312 128 221.820312 C 137.125 221.820312 145.554688 218.648438 152.207031 213.464844 L 162.804688 224.0625 C 153.367188 231.953125 141.226562 236.671875 128 236.671875 Z M 159.246094 206.425781 C 164.429688 199.773438 167.597656 191.339844 167.597656 182.210938 C 167.597656 173.085938 164.429688 164.652344 159.246094 158 L 169.84375 147.402344 C 177.652344 156.839844 182.449219 168.984375 182.449219 182.210938 C 182.449219 195.441406 177.652344 207.585938 169.84375 217.023438 Z M 159.246094 206.425781 " fill-opacity="1" fill-rule="nonzero"/><path fill="#000000" d="M 241.847656 187.164062 L 236.898438 187.164062 C 234.191406 187.164062 231.949219 189.40625 231.949219 192.113281 C 231.949219 194.820312 234.191406 197.066406 236.898438 197.066406 L 241.847656 197.066406 C 244.554688 197.066406 246.800781 194.820312 246.800781 192.113281 C 246.800781 189.40625 244.554688 187.164062 241.847656 187.164062 Z M 241.847656 187.164062 " fill-opacity="1" fill-rule="nonzero"/><path fill="#000000" d="M 276.5 187.164062 L 271.550781 187.164062 C 268.84375 187.164062 266.597656 189.40625 266.597656 192.113281 C 266.597656 194.820312 268.84375 197.066406 271.550781 197.066406 L 276.5 197.066406 C 279.207031 197.066406 281.449219 194.820312 281.449219 192.113281 C 281.449219 189.40625 279.207031 187.164062 276.5 187.164062 Z M 276.5 187.164062 " fill-opacity="1" fill-rule="nonzero"/><path fill="#000000" d="M 256.699219 197.066406 C 253.992188 197.066406 251.75 199.308594 251.75 202.015625 L 251.75 206.96875 C 251.75 209.675781 253.992188 211.917969 256.699219 211.917969 C 259.40625 211.917969 261.648438 209.675781 261.648438 206.96875 L 261.648438 202.015625 C 261.648438 199.308594 259.40625 197.066406 256.699219 197.066406 Z M 256.699219 197.066406 " fill-opacity="1" fill-rule="nonzero"/><path fill="#000000" d="M 63.726562 117.851562 C 66.433594 117.851562 68.675781 115.609375 68.675781 112.902344 C 68.675781 110.191406 66.433594 107.949219 63.726562 107.949219 L 63.648438 107.949219 C 60.941406 107.949219 58.699219 110.191406 58.699219 112.902344 C 58.699219 115.609375 60.941406 117.851562 63.726562 117.851562 Z M 63.726562 117.851562 " fill-opacity="1" fill-rule="nonzero"/><path fill="#000000" d="M 311.070312 107.949219 C 308.363281 107.949219 306.121094 110.191406 306.121094 112.902344 C 306.121094 115.609375 308.363281 117.851562 311.070312 117.851562 L 311.148438 117.851562 C 313.855469 117.851562 316.097656 115.609375 316.097656 112.902344 C 316.097656 110.191406 313.855469 107.949219 311.070312 107.949219 Z M 311.070312 107.949219 " fill-opacity="1" fill-rule="nonzero"/><path fill="#000000" d="M 63.726562 246.574219 L 63.648438 246.574219 C 60.941406 246.574219 58.699219 248.816406 58.699219 251.523438 C 58.699219 254.230469 60.941406 256.476562 63.726562 256.476562 C 66.433594 256.476562 68.675781 254.230469 68.675781 251.523438 C 68.675781 248.816406 66.433594 246.574219 63.726562 246.574219 Z M 63.726562 246.574219 " fill-opacity="1" fill-rule="nonzero"/><path fill="#000000" d="M 311.070312 246.574219 C 308.363281 246.574219 306.121094 248.816406 306.121094 251.523438 C 306.121094 254.230469 308.363281 256.476562 311.070312 256.476562 L 311.148438 256.476562 C 313.855469 256.476562 316.097656 254.230469 316.097656 251.523438 C 316.097656 248.816406 313.855469 246.574219 311.070312 246.574219 Z M 311.070312 246.574219 " fill-opacity="1" fill-rule="nonzero"/></svg>