<svg xmlns="http://www.w3.org/2000/svg" xmlns:xlink="http://www.w3.org/1999/xlink" width="500" zoomAndPan="magnify" viewBox="0 0 375 374.999991" height="500" preserveAspectRatio="xMidYMid meet" version="1.0"><defs><clipPath id="1170ad9cb8"><path d="M 187.5 0 C 83.945312 0 0 83.945312 0 187.5 C 0 291.054688 83.945312 375 187.5 375 C 291.054688 375 375 291.054688 375 187.5 C 375 83.945312 291.054688 0 187.5 0 Z M 187.5 0 " clip-rule="nonzero"/></clipPath><clipPath id="534aa6b3f7"><path d="M 42.566406 73.882812 L 334.316406 73.882812 L 334.316406 292.882812 L 42.566406 292.882812 Z M 42.566406 73.882812 " clip-rule="nonzero"/></clipPath></defs><g clip-path="url(#1170ad9cb8)"><rect x="-37.5" width="450" fill="#ffffff" y="-37.499999" height="449.999989" fill-opacity="1"/><path stroke-linecap="butt" transform="matrix(0.75, 0, 0, 0.75, 0.0000045, 0.000000000000042633)" fill="none" stroke-linejoin="miter" d="M 249.999994 -0.000000000000056843 C 111.927078 -0.000000000000056843 -0.000006 111.927084 -0.000006 250 C -0.000006 388.072917 111.927078 500.000001 249.999994 500.000001 C 388.072911 500.000001 499.999995 388.072917 499.999995 250 C 499.999995 111.927084 388.072911 -0.000000000000056843 249.999994 -0.000000000000056843 Z M 249.999994 -0.000000000000056843 " stroke="#000000" stroke-width="8" stroke-opacity="1" stroke-miterlimit="4"/></g><g clip-path="url(#534aa6b3f7)"><path fill="#414042" d="M 322.644531 92.679688 L 305.25 92.679688 L 305.25 73.882812 L 296.898438 73.882812 L 296.898438 92.679688 L 286.46875 92.679688 L 286.46875 73.882812 L 278.152344 73.882812 L 278.152344 92.679688 L 267.722656 92.679688 L 267.722656 73.882812 L 259.371094 73.882812 L 259.371094 92.679688 L 248.941406 92.679688 L 248.941406 73.882812 L 240.589844 73.882812 L 240.589844 92.679688 L 230.160156 92.679688 L 230.160156 73.882812 L 221.808594 73.882812 L 221.808594 92.679688 L 211.378906 92.679688 L 211.378906 73.882812 L 203.027344 73.882812 L 203.027344 92.679688 L 192.597656 92.679688 L 192.597656 73.882812 L 184.246094 73.882812 L 184.246094 92.679688 L 173.851562 92.679688 L 173.851562 73.882812 L 165.5 73.882812 L 165.5 92.679688 L 155.070312 92.679688 L 155.070312 73.882812 L 146.71875 73.882812 L 146.71875 92.679688 L 136.289062 92.679688 L 136.289062 73.882812 L 127.9375 73.882812 L 127.9375 92.679688 L 117.507812 92.679688 L 117.507812 73.882812 L 109.15625 73.882812 L 109.15625 92.679688 L 98.726562 92.679688 L 98.726562 73.882812 L 90.375 73.882812 L 90.375 92.679688 L 79.945312 92.679688 L 79.945312 73.882812 L 71.59375 73.882812 L 71.59375 92.679688 L 54.234375 92.679688 C 47.816406 92.679688 42.566406 97.898438 42.566406 104.359375 L 42.566406 262.039062 C 42.566406 268.464844 47.78125 273.71875 54.234375 273.71875 L 68.09375 273.71875 L 68.09375 292.515625 L 76.445312 292.515625 L 76.445312 273.71875 L 86.875 273.71875 L 86.875 292.515625 L 95.226562 292.515625 L 95.226562 273.71875 L 105.65625 273.71875 L 105.65625 292.515625 L 114.007812 292.515625 L 114.007812 273.71875 L 124.4375 273.71875 L 124.4375 292.515625 L 132.789062 292.515625 L 132.789062 273.71875 L 143.21875 273.71875 L 143.21875 292.515625 L 151.570312 292.515625 L 151.570312 273.71875 L 162 273.71875 L 162 292.515625 L 170.351562 292.515625 L 170.351562 273.71875 L 180.78125 273.71875 L 180.78125 292.515625 L 189.132812 292.515625 L 189.132812 273.71875 L 199.5625 273.71875 L 199.5625 292.515625 L 207.914062 292.515625 L 207.914062 273.71875 L 218.34375 273.71875 L 218.34375 292.515625 L 226.695312 292.515625 L 226.695312 273.71875 L 237.125 273.71875 L 237.125 292.515625 L 245.476562 292.515625 L 245.476562 273.71875 L 255.90625 273.71875 L 255.90625 292.515625 L 264.257812 292.515625 L 264.257812 273.71875 L 274.6875 273.71875 L 274.6875 292.515625 L 283.039062 292.515625 L 283.039062 273.71875 L 293.46875 273.71875 L 293.46875 292.515625 L 301.820312 292.515625 L 301.820312 273.71875 L 322.71875 273.71875 C 329.136719 273.71875 334.386719 268.5 334.386719 262.039062 L 334.386719 104.359375 C 334.316406 97.933594 329.101562 92.679688 322.644531 92.679688 Z M 325.964844 262.039062 C 325.964844 263.863281 324.46875 265.359375 322.644531 265.359375 L 54.234375 265.359375 C 52.410156 265.359375 50.917969 263.863281 50.917969 262.039062 L 50.917969 104.359375 C 50.917969 102.535156 52.410156 101.039062 54.234375 101.039062 L 322.644531 101.039062 C 324.46875 101.039062 325.964844 102.535156 325.964844 104.359375 Z M 325.964844 262.039062 " fill-opacity="1" fill-rule="nonzero"/></g><path fill="#414042" d="M 303.171875 118.339844 L 73.710938 118.339844 C 70.609375 118.339844 68.09375 120.855469 68.09375 123.960938 L 68.09375 242.476562 C 68.09375 245.578125 70.609375 248.097656 73.710938 248.097656 L 303.171875 248.097656 C 306.269531 248.097656 308.785156 245.578125 308.785156 242.476562 L 308.785156 123.960938 C 308.785156 120.855469 306.269531 118.339844 303.171875 118.339844 Z M 300.433594 239.699219 L 76.445312 239.699219 L 76.445312 126.695312 L 300.433594 126.695312 Z M 300.433594 239.699219 " fill-opacity="1" fill-rule="nonzero"/><path fill="#414042" d="M 136.433594 187.507812 L 141.722656 187.507812 C 142.015625 187.507812 142.308594 187.507812 142.5625 187.46875 L 148.214844 210.683594 L 158.207031 210.683594 L 151.351562 183.855469 C 154.632812 180.863281 156.273438 177.214844 156.273438 172.832031 L 156.273438 163.925781 C 156.273438 159.511719 155.214844 156.042969 153.066406 153.5625 C 150.65625 150.714844 146.902344 149.289062 141.722656 149.289062 L 127.171875 149.289062 L 127.171875 210.683594 L 136.433594 210.683594 Z M 136.433594 158.707031 L 142.015625 158.707031 C 145.515625 158.707031 147.265625 160.496094 147.265625 164.074219 L 147.265625 173.015625 C 147.265625 174.476562 146.757812 175.714844 145.734375 176.773438 C 144.714844 177.832031 143.472656 178.34375 141.980469 178.34375 L 136.398438 178.34375 L 136.398438 158.707031 Z M 136.433594 158.707031 " fill-opacity="1" fill-rule="nonzero"/><path fill="#414042" d="M 177.5 196.558594 L 187.164062 196.558594 L 189.351562 210.648438 L 199.050781 210.648438 L 188.769531 149.253906 L 176.003906 149.253906 L 165.609375 210.648438 L 175.238281 210.648438 Z M 182.347656 163.304688 L 185.777344 187.507812 L 178.921875 187.507812 Z M 182.347656 163.304688 " fill-opacity="1" fill-rule="nonzero"/><path fill="#414042" d="M 216.082031 172.175781 L 225.054688 210.648438 L 232.457031 210.648438 L 240.445312 172.066406 L 240.445312 210.648438 L 249.707031 210.648438 L 249.707031 149.253906 L 236.941406 149.253906 L 228.703125 193.273438 L 220.058594 149.253906 L 206.820312 149.253906 L 206.820312 210.648438 L 216.082031 210.648438 Z M 216.082031 172.175781 " fill-opacity="1" fill-rule="nonzero"/></svg>