<svg xmlns="http://www.w3.org/2000/svg" xmlns:xlink="http://www.w3.org/1999/xlink" width="500" zoomAndPan="magnify" viewBox="0 0 375 374.999991" height="500" preserveAspectRatio="xMidYMid meet" version="1.0"><defs><clipPath id="85c1e03395"><path d="M 187.5 0 C 83.945312 0 0 83.945312 0 187.5 C 0 291.054688 83.945312 375 187.5 375 C 291.054688 375 375 291.054688 375 187.5 C 375 83.945312 291.054688 0 187.5 0 Z M 187.5 0 " clip-rule="nonzero"/></clipPath><clipPath id="c591f118ff"><path d="M 43.492188 83 L 331.492188 83 L 331.492188 292 L 43.492188 292 Z M 43.492188 83 " clip-rule="nonzero"/></clipPath></defs><g clip-path="url(#85c1e03395)"><rect x="-37.5" width="450" fill="#ffffff" y="-37.499999" height="449.999989" fill-opacity="1"/><path stroke-linecap="butt" transform="matrix(0.75, 0, 0, 0.75, 0.0000045, 0.000000000000042633)" fill="none" stroke-linejoin="miter" d="M 249.999994 -0.000000000000056843 C 111.927078 -0.000000000000056843 -0.000006 111.927084 -0.000006 250 C -0.000006 388.072917 111.927078 500.000001 249.999994 500.000001 C 388.072911 500.000001 499.999995 388.072917 499.999995 250 C 499.999995 111.927084 388.072911 -0.000000000000056843 249.999994 -0.000000000000056843 Z M 249.999994 -0.000000000000056843 " stroke="#000000" stroke-width="8" stroke-opacity="1" stroke-miterlimit="4"/></g><g clip-path="url(#c591f118ff)"><path fill="#000000" d="M 318.933594 83.53125 L 56.4375 83.53125 C 49.34375 83.53125 43.609375 89.300781 43.609375 96.347656 L 43.609375 278.75 C 43.609375 285.835938 49.382812 291.5625 56.4375 291.5625 L 318.972656 291.5625 C 326.066406 291.5625 331.800781 285.796875 331.800781 278.75 L 331.800781 96.386719 C 331.800781 89.300781 326.027344 83.53125 318.933594 83.53125 Z M 320.171875 136.578125 L 300.445312 136.578125 L 300.445312 126.121094 L 320.171875 126.121094 Z M 300.445312 220.476562 L 320.171875 220.476562 L 320.171875 226.945312 L 300.445312 226.945312 Z M 300.445312 208.863281 L 300.445312 202.398438 L 320.171875 202.398438 L 320.171875 208.863281 Z M 300.445312 190.78125 L 300.445312 184.316406 L 320.171875 184.316406 L 320.171875 190.78125 Z M 300.445312 172.738281 L 300.445312 166.273438 L 320.171875 166.273438 L 320.171875 172.738281 Z M 300.445312 154.65625 L 300.445312 148.191406 L 320.171875 148.191406 L 320.171875 154.65625 Z M 300.445312 238.558594 L 320.171875 238.558594 L 320.171875 249.011719 L 300.445312 249.011719 Z M 318.933594 279.988281 L 56.4375 279.988281 C 55.78125 279.988281 55.238281 279.445312 55.238281 278.789062 L 55.238281 96.347656 C 55.238281 95.691406 55.78125 95.148438 56.4375 95.148438 L 318.972656 95.148438 C 319.632812 95.148438 320.171875 95.691406 320.171875 96.347656 L 320.171875 114.507812 L 294.628906 114.507812 C 291.414062 114.507812 288.816406 117.101562 288.816406 120.316406 L 288.816406 254.742188 C 288.816406 257.957031 291.414062 260.550781 294.628906 260.550781 L 320.171875 260.550781 L 320.171875 278.710938 C 320.171875 279.445312 319.632812 279.988281 318.933594 279.988281 Z M 318.933594 279.988281 " fill-opacity="1" fill-rule="nonzero"/></g><path fill="#000000" d="M 124.699219 210.410156 C 120.007812 210.410156 116.171875 206.578125 116.171875 201.894531 C 116.171875 198.679688 113.574219 196.085938 110.355469 196.085938 C 107.140625 196.085938 104.542969 198.679688 104.542969 201.894531 C 104.542969 213.003906 113.574219 222.027344 124.699219 222.027344 C 135.824219 222.027344 144.855469 213.003906 144.855469 201.894531 C 144.855469 190.78125 135.824219 181.761719 124.699219 181.761719 C 120.007812 181.761719 116.171875 177.925781 116.171875 173.242188 C 116.171875 168.558594 120.007812 164.722656 124.699219 164.722656 C 129.386719 164.722656 133.226562 168.558594 133.226562 173.242188 C 133.226562 176.457031 135.824219 179.050781 139.039062 179.050781 C 142.257812 179.050781 144.855469 176.457031 144.855469 173.242188 C 144.855469 162.128906 135.824219 153.109375 124.699219 153.109375 C 113.574219 153.109375 104.542969 162.128906 104.542969 173.242188 C 104.542969 184.355469 113.574219 193.375 124.699219 193.375 C 129.386719 193.375 133.226562 197.207031 133.226562 201.894531 C 133.226562 206.578125 129.386719 210.410156 124.699219 210.410156 Z M 124.699219 210.410156 " fill-opacity="1" fill-rule="nonzero"/><path fill="#000000" d="M 169.777344 210.410156 C 165.085938 210.410156 161.25 206.578125 161.25 201.894531 C 161.25 198.679688 158.652344 196.085938 155.4375 196.085938 C 152.21875 196.085938 149.621094 198.679688 149.621094 201.894531 C 149.621094 213.003906 158.652344 222.027344 169.777344 222.027344 C 180.902344 222.027344 189.933594 213.003906 189.933594 201.894531 C 189.933594 190.78125 180.902344 181.761719 169.777344 181.761719 C 165.085938 181.761719 161.25 177.925781 161.25 173.242188 C 161.25 168.558594 165.085938 164.722656 169.777344 164.722656 C 174.46875 164.722656 178.304688 168.558594 178.304688 173.242188 C 178.304688 176.457031 180.902344 179.050781 184.121094 179.050781 C 187.335938 179.050781 189.933594 176.457031 189.933594 173.242188 C 189.933594 162.128906 180.902344 153.109375 169.777344 153.109375 C 158.652344 153.109375 149.621094 162.128906 149.621094 173.242188 C 149.621094 184.355469 158.652344 193.375 169.777344 193.375 C 174.46875 193.375 178.304688 197.207031 178.304688 201.894531 C 178.304688 206.578125 174.46875 210.410156 169.777344 210.410156 Z M 169.777344 210.410156 " fill-opacity="1" fill-rule="nonzero"/><path fill="#000000" d="M 201.71875 222.027344 L 218.425781 222.027344 C 234.082031 222.027344 246.835938 209.289062 246.835938 193.644531 L 246.835938 181.527344 C 246.835938 165.886719 234.082031 153.148438 218.425781 153.148438 L 201.71875 153.148438 C 198.5 153.148438 195.902344 155.742188 195.902344 158.957031 L 195.902344 216.257812 C 195.902344 219.433594 198.5 222.027344 201.71875 222.027344 Z M 207.53125 164.722656 L 218.425781 164.722656 C 227.6875 164.722656 235.207031 172.234375 235.207031 181.488281 L 235.207031 193.609375 C 235.207031 202.863281 227.6875 210.371094 218.425781 210.371094 L 207.53125 210.371094 Z M 207.53125 164.722656 " fill-opacity="1" fill-rule="nonzero"/><path fill="#000000" d="M 270.054688 114.546875 L 81.363281 114.546875 C 78.144531 114.546875 75.546875 117.140625 75.546875 120.351562 L 75.546875 254.78125 C 75.546875 257.996094 78.144531 260.589844 81.363281 260.589844 L 270.054688 260.589844 C 273.273438 260.589844 275.867188 257.996094 275.867188 254.78125 L 275.867188 120.351562 C 275.867188 117.140625 273.273438 114.546875 270.054688 114.546875 Z M 264.242188 248.972656 L 87.175781 248.972656 L 87.175781 126.160156 L 264.242188 126.160156 Z M 264.242188 248.972656 " fill-opacity="1" fill-rule="nonzero"/></svg>