<svg xmlns="http://www.w3.org/2000/svg" xmlns:xlink="http://www.w3.org/1999/xlink" width="500" zoomAndPan="magnify" viewBox="0 0 375 374.999991" height="500" preserveAspectRatio="xMidYMid meet" version="1.0"><defs><clipPath id="7d64b671e4"><path d="M 187.5 0 C 83.945312 0 0 83.945312 0 187.5 C 0 291.054688 83.945312 375 187.5 375 C 291.054688 375 375 291.054688 375 187.5 C 375 83.945312 291.054688 0 187.5 0 Z M 187.5 0 " clip-rule="nonzero"/></clipPath><clipPath id="9666bbdb02"><path d="M 26.207031 104.214844 L 348.707031 104.214844 L 348.707031 270.714844 L 26.207031 270.714844 Z M 26.207031 104.214844 " clip-rule="nonzero"/></clipPath></defs><g clip-path="url(#7d64b671e4)"><rect x="-37.5" width="450" fill="#ffffff" y="-37.499999" height="449.999989" fill-opacity="1"/><path stroke-linecap="butt" transform="matrix(0.75, 0, 0, 0.75, 0.0000045, 0.000000000000042633)" fill="none" stroke-linejoin="miter" d="M 249.999994 -0.000000000000056843 C 111.927078 -0.000000000000056843 -0.000006 111.927084 -0.000006 250 C -0.000006 388.072917 111.927078 500.000001 249.999994 500.000001 C 388.072911 500.000001 499.999995 388.072917 499.999995 250 C 499.999995 111.927084 388.072911 -0.000000000000056843 249.999994 -0.000000000000056843 Z M 249.999994 -0.000000000000056843 " stroke="#000000" stroke-width="8" stroke-opacity="1" stroke-miterlimit="4"/></g><path fill="#000000" d="M 136.734375 195.273438 C 129.417969 197.03125 120.992188 196.714844 113.230469 195.027344 C 112.96875 194.976562 112.710938 194.96875 112.445312 195.003906 C 112.183594 195.042969 111.933594 195.121094 111.699219 195.242188 C 111.464844 195.363281 111.253906 195.519531 111.074219 195.714844 C 110.890625 195.90625 110.746094 196.125 110.636719 196.367188 C 110.175781 197.355469 109.632812 198.296875 109.007812 199.1875 C 108.742188 199.566406 108.601562 199.988281 108.585938 200.453125 C 108.570312 200.914062 108.683594 201.34375 108.925781 201.738281 C 113.835938 209.824219 120.714844 216.300781 127.277344 218.835938 C 127.746094 219.011719 128.226562 219.035156 128.710938 218.898438 C 129.195312 218.761719 129.59375 218.5 129.910156 218.105469 C 132.292969 215.1875 134.296875 212.027344 135.921875 208.628906 C 137.546875 205.230469 138.75 201.6875 139.523438 198 C 139.5625 197.808594 139.578125 197.617188 139.570312 197.421875 C 139.558594 197.226562 139.527344 197.039062 139.472656 196.851562 C 139.414062 196.667969 139.335938 196.492188 139.234375 196.324219 C 139.132812 196.160156 139.015625 196.007812 138.875 195.871094 C 138.738281 195.734375 138.582031 195.621094 138.414062 195.523438 C 138.246094 195.425781 138.070312 195.351562 137.882812 195.296875 C 137.695312 195.246094 137.503906 195.21875 137.308594 195.210938 C 137.117188 195.207031 136.921875 195.226562 136.734375 195.273438 Z M 136.734375 195.273438 " fill-opacity="1" fill-rule="nonzero"/><path fill="#000000" d="M 112.160156 178.925781 C 111.941406 179.070312 111.753906 179.246094 111.59375 179.453125 C 111.4375 179.660156 111.320312 179.886719 111.238281 180.136719 C 111.160156 180.382812 111.125 180.636719 111.132812 180.898438 C 111.136719 181.15625 111.1875 181.410156 111.28125 181.652344 C 111.664062 182.695312 111.949219 183.761719 112.140625 184.851562 C 112.21875 185.300781 112.410156 185.691406 112.714844 186.027344 C 113.023438 186.363281 113.398438 186.585938 113.835938 186.699219 C 123.03125 188.949219 132.503906 188.664062 138.949219 185.824219 C 139.40625 185.613281 139.757812 185.292969 140.007812 184.855469 C 140.253906 184.417969 140.351562 183.949219 140.292969 183.449219 C 139.917969 179.699219 139.105469 176.046875 137.851562 172.496094 C 136.597656 168.941406 134.941406 165.585938 132.878906 162.429688 C 132.773438 162.269531 132.648438 162.121094 132.507812 161.988281 C 132.363281 161.855469 132.207031 161.746094 132.035156 161.652344 C 131.863281 161.558594 131.679688 161.492188 131.492188 161.445312 C 131.304688 161.398438 131.113281 161.375 130.917969 161.375 C 130.722656 161.378906 130.53125 161.40625 130.34375 161.453125 C 130.152344 161.503906 129.976562 161.578125 129.804688 161.671875 C 129.636719 161.769531 129.480469 161.882812 129.339844 162.015625 C 129.199219 162.152344 129.074219 162.300781 128.972656 162.464844 C 125.039062 168.894531 118.855469 174.632812 112.160156 178.925781 Z M 112.160156 178.925781 " fill-opacity="1" fill-rule="nonzero"/><path fill="#000000" d="M 67.496094 152.523438 C 73.921875 156.457031 79.664062 162.648438 83.960938 169.339844 C 84.101562 169.558594 84.277344 169.746094 84.484375 169.90625 C 84.691406 170.0625 84.921875 170.179688 85.167969 170.261719 C 85.417969 170.339844 85.671875 170.375 85.929688 170.367188 C 86.191406 170.359375 86.441406 170.3125 86.6875 170.21875 C 87.726562 169.835938 88.792969 169.550781 89.886719 169.355469 C 90.332031 169.28125 90.726562 169.089844 91.0625 168.785156 C 91.394531 168.476562 91.621094 168.101562 91.730469 167.660156 C 93.976562 158.460938 93.691406 148.992188 90.851562 142.542969 C 90.640625 142.085938 90.320312 141.734375 89.878906 141.484375 C 89.441406 141.234375 88.972656 141.140625 88.472656 141.195312 C 84.726562 141.574219 81.074219 142.390625 77.519531 143.644531 C 73.96875 144.898438 70.613281 146.554688 67.457031 148.617188 C 67.292969 148.722656 67.148438 148.847656 67.015625 148.992188 C 66.882812 149.132812 66.773438 149.292969 66.679688 149.460938 C 66.585938 149.632812 66.519531 149.816406 66.472656 150.003906 C 66.425781 150.191406 66.402344 150.386719 66.40625 150.578125 C 66.40625 150.773438 66.433594 150.964844 66.480469 151.15625 C 66.53125 151.34375 66.605469 151.523438 66.699219 151.691406 C 66.796875 151.863281 66.910156 152.015625 67.046875 152.15625 C 67.179688 152.296875 67.328125 152.421875 67.496094 152.523438 Z M 67.496094 152.523438 " fill-opacity="1" fill-rule="nonzero"/><path fill="#000000" d="M 49.789062 181.199219 C 53.28125 180.386719 56.824219 179.992188 60.410156 180.015625 C 64.753906 180.03125 69.046875 180.507812 73.289062 181.449219 C 73.550781 181.503906 73.8125 181.511719 74.074219 181.472656 C 74.335938 181.4375 74.585938 181.359375 74.824219 181.238281 C 75.058594 181.117188 75.269531 180.960938 75.449219 180.765625 C 75.632812 180.574219 75.777344 180.355469 75.886719 180.113281 C 76.347656 179.125 76.890625 178.179688 77.519531 177.285156 C 77.785156 176.90625 77.925781 176.484375 77.9375 176.023438 C 77.953125 175.558594 77.839844 175.128906 77.601562 174.734375 C 72.691406 166.652344 65.804688 160.175781 59.253906 157.632812 C 58.78125 157.457031 58.300781 157.4375 57.816406 157.570312 C 57.332031 157.707031 56.929688 157.96875 56.617188 158.363281 C 54.230469 161.28125 52.226562 164.441406 50.601562 167.839844 C 48.972656 171.242188 47.773438 174.785156 46.996094 178.472656 C 46.957031 178.664062 46.941406 178.855469 46.953125 179.050781 C 46.960938 179.246094 46.992188 179.433594 47.050781 179.621094 C 47.105469 179.808594 47.183594 179.984375 47.285156 180.148438 C 47.386719 180.316406 47.507812 180.464844 47.644531 180.601562 C 47.785156 180.738281 47.9375 180.855469 48.105469 180.949219 C 48.277344 181.046875 48.453125 181.121094 48.640625 181.175781 C 48.828125 181.226562 49.019531 181.257812 49.210938 181.261719 C 49.40625 181.265625 49.597656 181.246094 49.789062 181.199219 Z M 49.789062 181.199219 " fill-opacity="1" fill-rule="nonzero"/><path fill="#000000" d="M 57.546875 214.003906 C 61.480469 207.578125 67.671875 201.835938 74.363281 197.535156 C 74.582031 197.390625 74.769531 197.21875 74.925781 197.011719 C 75.082031 196.800781 75.203125 196.574219 75.28125 196.328125 C 75.359375 196.078125 75.398438 195.824219 75.390625 195.566406 C 75.382812 195.304688 75.332031 195.054688 75.238281 194.808594 C 74.855469 193.769531 74.570312 192.707031 74.378906 191.617188 C 74.304688 191.167969 74.113281 190.777344 73.804688 190.441406 C 73.496094 190.105469 73.121094 189.882812 72.683594 189.769531 C 63.488281 187.523438 54.011719 187.804688 47.570312 190.652344 C 47.113281 190.859375 46.761719 191.183594 46.511719 191.621094 C 46.265625 192.058594 46.167969 192.527344 46.226562 193.023438 C 46.601562 196.773438 47.417969 200.425781 48.671875 203.976562 C 49.925781 207.53125 51.582031 210.882812 53.640625 214.039062 C 53.746094 214.199219 53.871094 214.347656 54.015625 214.480469 C 54.15625 214.613281 54.316406 214.722656 54.488281 214.816406 C 54.660156 214.90625 54.839844 214.976562 55.027344 215.023438 C 55.214844 215.070312 55.410156 215.09375 55.601562 215.089844 C 55.796875 215.089844 55.988281 215.0625 56.179688 215.015625 C 56.367188 214.964844 56.546875 214.890625 56.714844 214.796875 C 56.886719 214.699219 57.039062 214.585938 57.179688 214.453125 C 57.320312 214.316406 57.445312 214.167969 57.546875 214.003906 Z M 57.546875 214.003906 " fill-opacity="1" fill-rule="nonzero"/><path fill="#000000" d="M 119.023438 223.949219 C 112.597656 220.023438 106.859375 213.835938 102.566406 207.136719 C 102.421875 206.921875 102.246094 206.734375 102.039062 206.574219 C 101.832031 206.417969 101.605469 206.300781 101.359375 206.21875 C 101.109375 206.140625 100.855469 206.101562 100.597656 206.109375 C 100.335938 206.117188 100.085938 206.167969 99.84375 206.257812 C 98.800781 206.636719 97.738281 206.921875 96.648438 207.117188 C 96.199219 207.191406 95.808594 207.382812 95.472656 207.6875 C 95.136719 207.996094 94.914062 208.371094 94.800781 208.8125 C 92.550781 218.011719 92.832031 227.484375 95.675781 233.925781 C 95.886719 234.382812 96.207031 234.738281 96.644531 234.984375 C 97.082031 235.234375 97.550781 235.328125 98.050781 235.273438 C 101.796875 234.898438 105.449219 234.082031 109 232.828125 C 112.550781 231.574219 115.90625 229.917969 119.058594 227.859375 C 119.222656 227.753906 119.371094 227.628906 119.5 227.484375 C 119.632812 227.339844 119.746094 227.183594 119.835938 227.011719 C 119.929688 226.839844 120 226.660156 120.046875 226.472656 C 120.09375 226.28125 120.113281 226.089844 120.113281 225.894531 C 120.109375 225.699219 120.085938 225.507812 120.035156 225.320312 C 119.984375 225.132812 119.914062 224.953125 119.816406 224.78125 C 119.722656 224.613281 119.605469 224.457031 119.472656 224.316406 C 119.335938 224.175781 119.1875 224.054688 119.023438 223.949219 Z M 119.023438 223.949219 " fill-opacity="1" fill-rule="nonzero"/><path fill="#000000" d="M 85.140625 205.617188 C 84.152344 205.15625 83.207031 204.613281 82.3125 203.988281 C 81.933594 203.722656 81.511719 203.582031 81.050781 203.570312 C 80.585938 203.554688 80.160156 203.667969 79.765625 203.90625 C 71.6875 208.8125 65.199219 215.695312 62.660156 222.25 C 62.484375 222.722656 62.464844 223.203125 62.597656 223.6875 C 62.734375 224.175781 63 224.574219 63.394531 224.886719 C 66.3125 227.269531 69.46875 229.277344 72.871094 230.902344 C 76.269531 232.527344 79.8125 233.730469 83.5 234.503906 C 83.691406 234.546875 83.882812 234.5625 84.074219 234.550781 C 84.269531 234.542969 84.460938 234.511719 84.644531 234.453125 C 84.832031 234.398438 85.007812 234.320312 85.175781 234.21875 C 85.339844 234.117188 85.492188 233.996094 85.628906 233.859375 C 85.761719 233.71875 85.878906 233.566406 85.976562 233.398438 C 86.074219 233.230469 86.148438 233.050781 86.203125 232.863281 C 86.253906 232.675781 86.28125 232.484375 86.285156 232.292969 C 86.289062 232.097656 86.269531 231.90625 86.226562 231.714844 C 84.464844 224.398438 84.78125 215.976562 86.476562 208.214844 C 86.53125 207.953125 86.539062 207.691406 86.503906 207.429688 C 86.464844 207.164062 86.386719 206.917969 86.265625 206.679688 C 86.144531 206.445312 85.988281 206.234375 85.792969 206.054688 C 85.601562 205.871094 85.382812 205.726562 85.140625 205.617188 Z M 85.140625 205.617188 " fill-opacity="1" fill-rule="nonzero"/><path fill="#000000" d="M 101.382812 170.863281 C 102.371094 171.324219 103.3125 171.867188 104.207031 172.492188 C 104.585938 172.757812 105.007812 172.898438 105.46875 172.914062 C 105.933594 172.925781 106.363281 172.8125 106.757812 172.574219 C 114.839844 167.664062 121.320312 160.777344 123.859375 154.222656 C 124.035156 153.75 124.054688 153.269531 123.921875 152.785156 C 123.785156 152.300781 123.523438 151.902344 123.128906 151.589844 C 120.210938 149.203125 117.054688 147.199219 113.65625 145.570312 C 110.257812 143.945312 106.714844 142.746094 103.027344 141.96875 C 102.835938 141.929688 102.644531 141.914062 102.449219 141.921875 C 102.257812 141.933594 102.066406 141.964844 101.878906 142.019531 C 101.695312 142.078125 101.519531 142.15625 101.351562 142.257812 C 101.1875 142.359375 101.035156 142.476562 100.898438 142.617188 C 100.761719 142.757812 100.648438 142.910156 100.550781 143.078125 C 100.453125 143.246094 100.378906 143.425781 100.324219 143.609375 C 100.273438 143.796875 100.246094 143.988281 100.242188 144.183594 C 100.234375 144.378906 100.253906 144.570312 100.300781 144.757812 C 102.0625 152.082031 101.746094 160.5 100.050781 168.269531 C 99.996094 168.527344 99.988281 168.789062 100.023438 169.054688 C 100.0625 169.316406 100.140625 169.566406 100.261719 169.800781 C 100.382812 170.035156 100.539062 170.246094 100.730469 170.425781 C 100.925781 170.609375 101.140625 170.753906 101.382812 170.863281 Z M 101.382812 170.863281 " fill-opacity="1" fill-rule="nonzero"/><path fill="#000000" d="M 79.261719 188.234375 C 79.261719 189.15625 79.351562 190.066406 79.53125 190.96875 C 79.710938 191.871094 79.972656 192.746094 80.328125 193.59375 C 80.679688 194.445312 81.109375 195.25 81.621094 196.015625 C 82.132812 196.78125 82.710938 197.488281 83.359375 198.136719 C 84.011719 198.785156 84.71875 199.367188 85.484375 199.878906 C 86.246094 200.390625 87.054688 200.820312 87.902344 201.171875 C 88.753906 201.523438 89.628906 201.789062 90.53125 201.96875 C 91.429688 202.148438 92.34375 202.238281 93.261719 202.238281 C 94.179688 202.238281 95.089844 202.148438 95.992188 201.96875 C 96.894531 201.789062 97.769531 201.523438 98.617188 201.171875 C 99.46875 200.820312 100.273438 200.390625 101.039062 199.878906 C 101.804688 199.367188 102.511719 198.785156 103.160156 198.136719 C 103.8125 197.488281 104.390625 196.78125 104.902344 196.015625 C 105.414062 195.25 105.84375 194.445312 106.195312 193.59375 C 106.546875 192.746094 106.8125 191.871094 106.992188 190.96875 C 107.171875 190.066406 107.261719 189.15625 107.261719 188.234375 C 107.261719 187.316406 107.171875 186.40625 106.992188 185.503906 C 106.8125 184.601562 106.546875 183.726562 106.195312 182.878906 C 105.84375 182.027344 105.414062 181.222656 104.902344 180.457031 C 104.390625 179.691406 103.8125 178.984375 103.160156 178.335938 C 102.511719 177.683594 101.804688 177.105469 101.039062 176.59375 C 100.273438 176.082031 99.46875 175.652344 98.617188 175.300781 C 97.769531 174.949219 96.894531 174.683594 95.992188 174.503906 C 95.089844 174.324219 94.179688 174.234375 93.261719 174.234375 C 92.34375 174.234375 91.433594 174.324219 90.53125 174.507812 C 89.628906 174.6875 88.753906 174.953125 87.90625 175.304688 C 87.058594 175.65625 86.25 176.089844 85.488281 176.597656 C 84.722656 177.109375 84.015625 177.691406 83.367188 178.339844 C 82.714844 178.988281 82.136719 179.695312 81.625 180.460938 C 81.113281 181.226562 80.683594 182.03125 80.332031 182.878906 C 79.976562 183.730469 79.710938 184.605469 79.53125 185.503906 C 79.351562 186.40625 79.261719 187.316406 79.261719 188.234375 Z M 87.902344 194.488281 C 88.753906 194.570312 89.609375 194.558594 90.460938 194.453125 C 91.078125 194.375 91.679688 194.25 92.273438 194.074219 C 92.867188 193.902344 93.445312 193.679688 94.003906 193.417969 C 94.5625 193.152344 95.097656 192.84375 95.609375 192.492188 C 96.117188 192.144531 96.597656 191.757812 97.046875 191.332031 C 97.496094 190.90625 97.910156 190.445312 98.285156 189.957031 C 98.664062 189.464844 98.996094 188.945312 99.292969 188.402344 C 99.585938 187.859375 99.839844 187.296875 100.042969 186.710938 C 100.25 186.128906 100.40625 185.53125 100.519531 184.921875 C 100.53125 184.863281 100.539062 184.800781 100.550781 184.738281 C 100.683594 183.925781 100.667969 183.113281 100.507812 182.304688 C 100.902344 182.785156 101.246094 183.300781 101.539062 183.847656 C 101.828125 184.394531 102.0625 184.964844 102.242188 185.5625 C 102.417969 186.15625 102.535156 186.761719 102.59375 187.378906 C 102.652344 187.996094 102.648438 188.617188 102.582031 189.234375 C 102.515625 189.851562 102.390625 190.453125 102.207031 191.046875 C 102.019531 191.640625 101.777344 192.207031 101.476562 192.75 C 101.179688 193.296875 100.832031 193.804688 100.429688 194.277344 C 100.03125 194.753906 99.585938 195.183594 99.101562 195.570312 C 98.617188 195.957031 98.097656 196.292969 97.546875 196.574219 C 96.992188 196.859375 96.417969 197.085938 95.820312 197.253906 C 95.222656 197.421875 94.617188 197.53125 93.996094 197.578125 C 93.378906 197.628906 92.761719 197.613281 92.144531 197.539062 C 91.527344 197.464844 90.925781 197.328125 90.335938 197.136719 C 89.746094 196.941406 89.183594 196.6875 88.644531 196.382812 C 88.105469 196.074219 87.601562 195.71875 87.132812 195.3125 C 86.664062 194.902344 86.238281 194.453125 85.859375 193.964844 C 86.511719 194.246094 87.191406 194.417969 87.902344 194.488281 Z M 87.902344 194.488281 " fill-opacity="1" fill-rule="nonzero"/><path fill="#000000" d="M 185.902344 188.234375 C 185.902344 190.097656 185.996094 191.957031 186.175781 193.808594 C 186.359375 195.660156 186.632812 197.5 186.996094 199.328125 C 187.359375 201.152344 187.808594 202.957031 188.351562 204.738281 C 188.890625 206.519531 189.519531 208.269531 190.230469 209.992188 C 190.941406 211.710938 191.738281 213.390625 192.613281 215.035156 C 193.492188 216.675781 194.449219 218.269531 195.484375 219.820312 C 196.515625 221.367188 197.625 222.859375 198.804688 224.300781 C 199.988281 225.738281 201.234375 227.117188 202.550781 228.433594 C 203.867188 229.75 205.246094 231 206.683594 232.179688 C 208.125 233.363281 209.617188 234.46875 211.164062 235.503906 C 212.714844 236.539062 214.308594 237.496094 215.949219 238.371094 C 217.59375 239.25 219.273438 240.042969 220.992188 240.757812 C 222.714844 241.46875 224.464844 242.097656 226.246094 242.636719 C 228.027344 243.175781 229.832031 243.628906 231.65625 243.992188 C 233.480469 244.355469 235.320312 244.628906 237.175781 244.8125 C 239.027344 244.992188 240.882812 245.085938 242.746094 245.085938 C 244.609375 245.085938 246.464844 244.992188 248.316406 244.8125 C 250.171875 244.628906 252.007812 244.355469 253.835938 243.992188 C 255.660156 243.628906 257.464844 243.175781 259.246094 242.636719 C 261.027344 242.097656 262.777344 241.46875 264.5 240.757812 C 266.21875 240.042969 267.898438 239.25 269.542969 238.371094 C 271.183594 237.496094 272.777344 236.539062 274.324219 235.503906 C 275.875 234.46875 277.367188 233.363281 278.804688 232.179688 C 280.246094 231 281.625 229.75 282.941406 228.433594 C 284.257812 227.117188 285.503906 225.738281 286.6875 224.300781 C 287.867188 222.859375 288.976562 221.367188 290.007812 219.820312 C 291.042969 218.269531 292 216.675781 292.875 215.035156 C 293.753906 213.390625 294.550781 211.710938 295.261719 209.992188 C 295.972656 208.269531 296.601562 206.519531 297.140625 204.738281 C 297.679688 202.957031 298.132812 201.152344 298.496094 199.328125 C 298.859375 197.5 299.132812 195.660156 299.316406 193.808594 C 299.496094 191.957031 299.589844 190.097656 299.589844 188.234375 C 299.589844 186.375 299.496094 184.515625 299.316406 182.664062 C 299.132812 180.8125 298.859375 178.972656 298.496094 177.144531 C 298.132812 175.320312 297.679688 173.515625 297.140625 171.734375 C 296.601562 169.953125 295.972656 168.203125 295.261719 166.480469 C 294.550781 164.761719 293.753906 163.082031 292.875 161.4375 C 292 159.796875 291.042969 158.199219 290.007812 156.652344 C 288.976562 155.105469 287.867188 153.609375 286.6875 152.171875 C 285.503906 150.734375 284.257812 149.355469 282.941406 148.039062 C 281.625 146.722656 280.246094 145.472656 278.804688 144.292969 C 277.367188 143.109375 275.875 142.003906 274.324219 140.96875 C 272.777344 139.933594 271.183594 138.976562 269.542969 138.101562 C 267.898438 137.222656 266.21875 136.425781 264.5 135.714844 C 262.777344 135.003906 261.027344 134.375 259.246094 133.835938 C 257.464844 133.296875 255.660156 132.84375 253.835938 132.480469 C 252.007812 132.117188 250.171875 131.84375 248.316406 131.660156 C 246.464844 131.480469 244.609375 131.386719 242.746094 131.386719 C 240.886719 131.390625 239.027344 131.484375 237.175781 131.667969 C 235.324219 131.851562 233.484375 132.125 231.660156 132.492188 C 229.835938 132.855469 228.03125 133.308594 226.253906 133.851562 C 224.472656 134.390625 222.722656 135.019531 221.003906 135.730469 C 219.285156 136.445312 217.605469 137.242188 215.964844 138.121094 C 214.320312 138.996094 212.726562 139.953125 211.179688 140.988281 C 209.632812 142.023438 208.140625 143.128906 206.703125 144.3125 C 205.265625 145.492188 203.886719 146.742188 202.570312 148.058594 C 201.253906 149.375 200.007812 150.75 198.824219 152.1875 C 197.644531 153.628906 196.535156 155.121094 195.503906 156.667969 C 194.46875 158.214844 193.511719 159.808594 192.632812 161.449219 C 191.757812 163.09375 190.960938 164.773438 190.246094 166.492188 C 189.535156 168.210938 188.90625 169.960938 188.363281 171.742188 C 187.824219 173.523438 187.371094 175.324219 187.007812 177.148438 C 186.640625 178.976562 186.367188 180.8125 186.183594 182.667969 C 186 184.519531 185.90625 186.375 185.902344 188.234375 Z M 294.957031 188.234375 C 294.957031 189.945312 294.875 191.652344 294.707031 193.355469 C 294.539062 195.054688 294.289062 196.746094 293.957031 198.421875 C 293.621094 200.101562 293.207031 201.757812 292.710938 203.394531 C 292.214844 205.03125 291.636719 206.640625 290.984375 208.21875 C 290.328125 209.800781 289.597656 211.34375 288.792969 212.851562 C 287.988281 214.359375 287.109375 215.824219 286.160156 217.246094 C 285.210938 218.667969 284.191406 220.039062 283.105469 221.363281 C 282.023438 222.683594 280.875 223.949219 279.664062 225.160156 C 278.457031 226.367188 277.191406 227.515625 275.871094 228.601562 C 274.546875 229.6875 273.175781 230.703125 271.753906 231.652344 C 270.332031 232.605469 268.867188 233.480469 267.359375 234.289062 C 265.851562 235.09375 264.308594 235.824219 262.726562 236.480469 C 261.148438 237.132812 259.539062 237.710938 257.902344 238.207031 C 256.265625 238.703125 254.609375 239.117188 252.933594 239.449219 C 251.253906 239.785156 249.566406 240.035156 247.863281 240.203125 C 246.160156 240.371094 244.457031 240.453125 242.746094 240.453125 C 241.035156 240.453125 239.328125 240.371094 237.628906 240.203125 C 235.925781 240.035156 234.238281 239.785156 232.558594 239.449219 C 230.882812 239.117188 229.226562 238.703125 227.589844 238.207031 C 225.953125 237.710938 224.34375 237.132812 222.765625 236.480469 C 221.183594 235.824219 219.640625 235.09375 218.132812 234.289062 C 216.625 233.480469 215.160156 232.605469 213.738281 231.652344 C 212.316406 230.703125 210.945312 229.6875 209.621094 228.601562 C 208.300781 227.515625 207.035156 226.367188 205.824219 225.160156 C 204.617188 223.949219 203.46875 222.683594 202.386719 221.363281 C 201.300781 220.039062 200.28125 218.667969 199.332031 217.246094 C 198.382812 215.824219 197.503906 214.359375 196.699219 212.851562 C 195.890625 211.34375 195.160156 209.800781 194.507812 208.21875 C 193.851562 206.640625 193.277344 205.03125 192.78125 203.394531 C 192.285156 201.757812 191.871094 200.101562 191.535156 198.421875 C 191.203125 196.746094 190.953125 195.054688 190.785156 193.355469 C 190.617188 191.652344 190.53125 189.945312 190.53125 188.234375 C 190.53125 186.527344 190.617188 184.820312 190.785156 183.117188 C 190.953125 181.414062 191.203125 179.726562 191.535156 178.050781 C 191.871094 176.371094 192.285156 174.714844 192.78125 173.078125 C 193.277344 171.441406 193.851562 169.832031 194.507812 168.253906 C 195.160156 166.671875 195.890625 165.128906 196.699219 163.621094 C 197.503906 162.113281 198.382812 160.648438 199.332031 159.226562 C 200.28125 157.804688 201.300781 156.429688 202.386719 155.109375 C 203.46875 153.789062 204.617188 152.523438 205.824219 151.3125 C 207.035156 150.101562 208.300781 148.957031 209.621094 147.871094 C 210.945312 146.785156 212.316406 145.769531 213.738281 144.820312 C 215.160156 143.867188 216.625 142.992188 218.132812 142.183594 C 219.640625 141.378906 221.183594 140.648438 222.765625 139.992188 C 224.34375 139.339844 225.953125 138.761719 227.589844 138.265625 C 229.226562 137.769531 230.882812 137.355469 232.558594 137.023438 C 234.238281 136.6875 235.925781 136.4375 237.628906 136.269531 C 239.332031 136.101562 241.035156 136.019531 242.746094 136.019531 C 244.457031 136.019531 246.160156 136.105469 247.863281 136.273438 C 249.5625 136.445312 251.25 136.695312 252.929688 137.03125 C 254.605469 137.367188 256.261719 137.78125 257.894531 138.28125 C 259.53125 138.777344 261.140625 139.355469 262.71875 140.007812 C 264.296875 140.664062 265.839844 141.394531 267.347656 142.203125 C 268.855469 143.007812 270.320312 143.886719 271.738281 144.835938 C 273.160156 145.789062 274.53125 146.804688 275.851562 147.890625 C 277.175781 148.972656 278.441406 150.121094 279.648438 151.328125 C 280.855469 152.539062 282.003906 153.804688 283.089844 155.125 C 284.171875 156.445312 285.191406 157.816406 286.140625 159.238281 C 287.089844 160.660156 287.96875 162.125 288.777344 163.632812 C 289.582031 165.140625 290.3125 166.683594 290.96875 168.261719 C 291.625 169.839844 292.199219 171.449219 292.695312 173.085938 C 293.195312 174.71875 293.609375 176.375 293.945312 178.054688 C 294.28125 179.730469 294.53125 181.417969 294.703125 183.121094 C 294.871094 184.820312 294.957031 186.527344 294.957031 188.234375 Z M 294.957031 188.234375 " fill-opacity="1" fill-rule="nonzero"/><path fill="#000000" d="M 256.746094 188.234375 C 256.746094 187.316406 256.65625 186.40625 256.476562 185.503906 C 256.296875 184.601562 256.03125 183.726562 255.679688 182.878906 C 255.328125 182.027344 254.898438 181.222656 254.386719 180.457031 C 253.875 179.691406 253.296875 178.984375 252.644531 178.335938 C 251.996094 177.683594 251.289062 177.105469 250.523438 176.59375 C 249.761719 176.082031 248.953125 175.652344 248.105469 175.300781 C 247.253906 174.949219 246.378906 174.683594 245.476562 174.503906 C 244.574219 174.324219 243.664062 174.234375 242.746094 174.234375 C 241.828125 174.234375 240.917969 174.324219 240.015625 174.503906 C 239.113281 174.683594 238.238281 174.949219 237.386719 175.300781 C 236.539062 175.652344 235.730469 176.082031 234.96875 176.59375 C 234.203125 177.105469 233.496094 177.683594 232.847656 178.335938 C 232.195312 178.984375 231.617188 179.691406 231.105469 180.457031 C 230.59375 181.222656 230.164062 182.027344 229.8125 182.878906 C 229.460938 183.726562 229.195312 184.601562 229.015625 185.503906 C 228.835938 186.40625 228.746094 187.316406 228.746094 188.234375 C 228.746094 189.15625 228.835938 190.066406 229.015625 190.96875 C 229.195312 191.871094 229.460938 192.746094 229.8125 193.59375 C 230.164062 194.445312 230.59375 195.25 231.105469 196.015625 C 231.617188 196.78125 232.195312 197.488281 232.847656 198.136719 C 233.496094 198.785156 234.203125 199.367188 234.96875 199.878906 C 235.730469 200.390625 236.539062 200.820312 237.386719 201.171875 C 238.238281 201.523438 239.113281 201.789062 240.015625 201.96875 C 240.917969 202.148438 241.828125 202.238281 242.746094 202.238281 C 243.664062 202.238281 244.574219 202.144531 245.476562 201.964844 C 246.378906 201.785156 247.253906 201.519531 248.101562 201.167969 C 248.949219 200.816406 249.757812 200.382812 250.519531 199.875 C 251.285156 199.363281 251.992188 198.78125 252.640625 198.132812 C 253.289062 197.484375 253.871094 196.777344 254.382812 196.011719 C 254.894531 195.246094 255.324219 194.441406 255.675781 193.59375 C 256.027344 192.742188 256.292969 191.867188 256.476562 190.964844 C 256.65625 190.066406 256.746094 189.15625 256.746094 188.234375 Z M 242.746094 197.609375 C 241.289062 197.605469 239.90625 197.28125 238.601562 196.636719 C 237.296875 195.988281 236.203125 195.085938 235.320312 193.925781 C 236 194.230469 236.707031 194.417969 237.449219 194.488281 C 238.304688 194.570312 239.15625 194.558594 240.011719 194.453125 C 240.625 194.375 241.226562 194.25 241.820312 194.074219 C 242.414062 193.902344 242.992188 193.679688 243.550781 193.417969 C 244.109375 193.152344 244.644531 192.84375 245.15625 192.492188 C 245.664062 192.144531 246.144531 191.757812 246.59375 191.332031 C 247.042969 190.90625 247.457031 190.445312 247.832031 189.957031 C 248.210938 189.464844 248.546875 188.945312 248.839844 188.402344 C 249.136719 187.859375 249.386719 187.296875 249.589844 186.710938 C 249.796875 186.128906 249.957031 185.53125 250.066406 184.921875 C 250.078125 184.863281 250.089844 184.800781 250.097656 184.738281 C 250.222656 183.964844 250.21875 183.195312 250.082031 182.421875 C 250.628906 183.113281 251.070312 183.863281 251.40625 184.675781 C 251.746094 185.492188 251.960938 186.335938 252.058594 187.210938 C 252.15625 188.085938 252.128906 188.960938 251.980469 189.828125 C 251.832031 190.695312 251.566406 191.527344 251.183594 192.320312 C 250.800781 193.113281 250.316406 193.835938 249.726562 194.492188 C 249.140625 195.148438 248.472656 195.710938 247.726562 196.179688 C 246.980469 196.648438 246.183594 197.003906 245.335938 197.246094 C 244.492188 197.488281 243.625 197.609375 242.746094 197.609375 Z M 242.746094 197.609375 " fill-opacity="1" fill-rule="nonzero"/><path fill="#000000" d="M 286.207031 195.269531 C 278.890625 197.027344 270.472656 196.714844 262.710938 195.027344 C 262.449219 194.976562 262.1875 194.964844 261.925781 195.003906 C 261.664062 195.039062 261.414062 195.117188 261.179688 195.238281 C 260.945312 195.363281 260.734375 195.519531 260.550781 195.710938 C 260.371094 195.90625 260.226562 196.121094 260.117188 196.363281 C 259.65625 197.351562 259.113281 198.292969 258.488281 199.1875 C 258.222656 199.566406 258.082031 199.984375 258.066406 200.449219 C 258.054688 200.910156 258.167969 201.339844 258.40625 201.734375 C 263.316406 209.816406 270.195312 216.292969 276.75 218.828125 C 277.222656 219.003906 277.703125 219.027344 278.1875 218.890625 C 278.671875 218.753906 279.070312 218.492188 279.382812 218.097656 C 281.769531 215.179688 283.773438 212.023438 285.398438 208.625 C 287.023438 205.226562 288.222656 201.683594 288.996094 197.996094 C 289.035156 197.804688 289.050781 197.613281 289.042969 197.421875 C 289.03125 197.226562 289 197.035156 288.945312 196.851562 C 288.886719 196.664062 288.808594 196.488281 288.707031 196.324219 C 288.605469 196.15625 288.488281 196.003906 288.347656 195.871094 C 288.210938 195.734375 288.054688 195.617188 287.886719 195.519531 C 287.71875 195.421875 287.542969 195.347656 287.355469 195.296875 C 287.167969 195.242188 286.976562 195.214844 286.78125 195.210938 C 286.589844 195.207031 286.398438 195.226562 286.207031 195.269531 Z M 286.207031 195.269531 " fill-opacity="1" fill-rule="nonzero"/><path fill="#000000" d="M 261.636719 178.929688 C 261.421875 179.074219 261.234375 179.246094 261.074219 179.453125 C 260.917969 179.660156 260.800781 179.890625 260.71875 180.136719 C 260.640625 180.386719 260.605469 180.640625 260.609375 180.898438 C 260.617188 181.160156 260.667969 181.410156 260.761719 181.652344 C 261.144531 182.695312 261.429688 183.761719 261.621094 184.855469 C 261.695312 185.300781 261.886719 185.695312 262.195312 186.027344 C 262.503906 186.363281 262.875 186.585938 263.316406 186.699219 C 272.507812 188.949219 281.980469 188.664062 288.421875 185.824219 C 288.878906 185.617188 289.230469 185.292969 289.480469 184.855469 C 289.726562 184.417969 289.824219 183.949219 289.765625 183.449219 C 289.390625 179.703125 288.578125 176.050781 287.324219 172.5 C 286.070312 168.945312 284.414062 165.59375 282.355469 162.4375 C 282.25 162.273438 282.125 162.128906 281.980469 161.996094 C 281.835938 161.863281 281.679688 161.75 281.507812 161.660156 C 281.335938 161.566406 281.15625 161.496094 280.96875 161.449219 C 280.777344 161.40625 280.585938 161.382812 280.390625 161.382812 C 280.195312 161.386719 280.003906 161.410156 279.816406 161.460938 C 279.628906 161.511719 279.449219 161.585938 279.28125 161.679688 C 279.109375 161.773438 278.953125 161.890625 278.8125 162.023438 C 278.671875 162.160156 278.550781 162.308594 278.449219 162.472656 C 274.515625 168.898438 268.332031 174.636719 261.636719 178.929688 Z M 261.636719 178.929688 " fill-opacity="1" fill-rule="nonzero"/><path fill="#000000" d="M 216.984375 152.53125 C 223.414062 156.464844 229.152344 162.65625 233.445312 169.347656 C 233.589844 169.5625 233.765625 169.75 233.972656 169.910156 C 234.179688 170.066406 234.40625 170.183594 234.65625 170.265625 C 234.902344 170.34375 235.15625 170.378906 235.417969 170.375 C 235.679688 170.367188 235.929688 170.316406 236.171875 170.222656 C 237.214844 169.839844 238.277344 169.554688 239.371094 169.363281 C 239.820312 169.289062 240.210938 169.097656 240.546875 168.789062 C 240.882812 168.480469 241.105469 168.105469 241.21875 167.664062 C 243.460938 158.46875 243.175781 149 240.335938 142.554688 C 240.128906 142.097656 239.804688 141.746094 239.367188 141.496094 C 238.929688 141.25 238.460938 141.152344 237.960938 141.207031 C 234.210938 141.585938 230.5625 142.402344 227.007812 143.65625 C 223.457031 144.910156 220.105469 146.566406 216.949219 148.625 C 216.785156 148.730469 216.640625 148.855469 216.507812 149 C 216.375 149.144531 216.261719 149.300781 216.171875 149.472656 C 216.078125 149.644531 216.011719 149.824219 215.964844 150.015625 C 215.917969 150.203125 215.894531 150.394531 215.894531 150.589844 C 215.898438 150.785156 215.925781 150.976562 215.972656 151.164062 C 216.023438 151.351562 216.097656 151.53125 216.191406 151.699219 C 216.289062 151.871094 216.402344 152.027344 216.535156 152.167969 C 216.671875 152.308594 216.820312 152.429688 216.984375 152.53125 Z M 216.984375 152.53125 " fill-opacity="1" fill-rule="nonzero"/><path fill="#000000" d="M 199.285156 181.203125 C 202.777344 180.390625 206.316406 179.996094 209.902344 180.015625 C 214.246094 180.035156 218.539062 180.511719 222.78125 181.449219 C 223.039062 181.503906 223.300781 181.511719 223.566406 181.476562 C 223.828125 181.441406 224.078125 181.363281 224.3125 181.242188 C 224.546875 181.117188 224.757812 180.960938 224.941406 180.769531 C 225.121094 180.578125 225.265625 180.359375 225.375 180.117188 C 225.835938 179.125 226.382812 178.183594 227.007812 177.289062 C 227.273438 176.910156 227.414062 176.488281 227.429688 176.023438 C 227.441406 175.5625 227.328125 175.132812 227.089844 174.738281 C 222.179688 166.660156 215.296875 160.183594 208.746094 157.640625 C 208.273438 157.464844 207.796875 157.445312 207.308594 157.578125 C 206.824219 157.714844 206.425781 157.976562 206.113281 158.371094 C 203.726562 161.289062 201.722656 164.449219 200.09375 167.847656 C 198.46875 171.246094 197.269531 174.789062 196.496094 178.476562 C 196.453125 178.667969 196.441406 178.859375 196.449219 179.054688 C 196.457031 179.246094 196.488281 179.4375 196.546875 179.621094 C 196.601562 179.808594 196.683594 179.984375 196.78125 180.152344 C 196.882812 180.316406 197.003906 180.46875 197.144531 180.605469 C 197.28125 180.738281 197.433594 180.855469 197.605469 180.953125 C 197.773438 181.050781 197.949219 181.125 198.136719 181.175781 C 198.324219 181.230469 198.515625 181.257812 198.710938 181.261719 C 198.902344 181.265625 199.09375 181.246094 199.285156 181.203125 Z M 199.285156 181.203125 " fill-opacity="1" fill-rule="nonzero"/><path fill="#000000" d="M 223.855469 197.535156 C 224.070312 197.390625 224.257812 197.214844 224.414062 197.007812 C 224.574219 196.800781 224.691406 196.574219 224.769531 196.324219 C 224.851562 196.078125 224.886719 195.824219 224.878906 195.5625 C 224.871094 195.300781 224.820312 195.050781 224.726562 194.808594 C 224.347656 193.769531 224.058594 192.703125 223.867188 191.613281 C 223.792969 191.167969 223.601562 190.773438 223.292969 190.441406 C 222.988281 190.105469 222.613281 189.882812 222.171875 189.769531 C 212.980469 187.523438 203.507812 187.804688 197.066406 190.652344 C 196.609375 190.859375 196.257812 191.183594 196.011719 191.617188 C 195.761719 192.054688 195.667969 192.523438 195.722656 193.023438 C 196.097656 196.773438 196.914062 200.421875 198.167969 203.972656 C 199.421875 207.523438 201.078125 210.878906 203.136719 214.03125 C 203.242188 214.195312 203.367188 214.339844 203.507812 214.472656 C 203.652344 214.605469 203.808594 214.71875 203.980469 214.808594 C 204.152344 214.902344 204.332031 214.96875 204.523438 215.015625 C 204.710938 215.0625 204.902344 215.085938 205.097656 215.085938 C 205.292969 215.082031 205.484375 215.058594 205.671875 215.007812 C 205.859375 214.957031 206.039062 214.882812 206.210938 214.789062 C 206.378906 214.695312 206.535156 214.578125 206.675781 214.445312 C 206.816406 214.308594 206.9375 214.160156 207.042969 213.996094 C 210.972656 207.570312 217.164062 201.835938 223.855469 197.535156 Z M 223.855469 197.535156 " fill-opacity="1" fill-rule="nonzero"/><path fill="#000000" d="M 268.5 223.941406 C 262.078125 220.011719 256.34375 213.828125 252.046875 207.132812 C 251.90625 206.914062 251.730469 206.726562 251.523438 206.570312 C 251.316406 206.414062 251.089844 206.292969 250.839844 206.214844 C 250.59375 206.132812 250.339844 206.097656 250.078125 206.105469 C 249.820312 206.113281 249.570312 206.160156 249.324219 206.253906 C 248.285156 206.632812 247.222656 206.917969 246.132812 207.109375 C 245.683594 207.1875 245.292969 207.378906 244.957031 207.683594 C 244.621094 207.992188 244.398438 208.367188 244.285156 208.804688 C 242.035156 218.003906 242.316406 227.476562 245.160156 233.914062 C 245.371094 234.371094 245.691406 234.726562 246.128906 234.972656 C 246.566406 235.222656 247.035156 235.316406 247.535156 235.261719 C 251.28125 234.886719 254.929688 234.070312 258.480469 232.816406 C 262.03125 231.5625 265.382812 229.90625 268.535156 227.847656 C 268.699219 227.742188 268.847656 227.617188 268.980469 227.472656 C 269.113281 227.332031 269.222656 227.171875 269.316406 227.003906 C 269.40625 226.832031 269.476562 226.648438 269.523438 226.460938 C 269.570312 226.273438 269.59375 226.078125 269.589844 225.886719 C 269.589844 225.691406 269.5625 225.5 269.511719 225.3125 C 269.460938 225.121094 269.390625 224.945312 269.292969 224.773438 C 269.199219 224.605469 269.085938 224.449219 268.949219 224.308594 C 268.816406 224.167969 268.664062 224.042969 268.5 223.941406 Z M 268.5 223.941406 " fill-opacity="1" fill-rule="nonzero"/><path fill="#000000" d="M 234.628906 205.613281 C 233.636719 205.152344 232.695312 204.605469 231.800781 203.984375 C 231.421875 203.71875 231 203.578125 230.539062 203.566406 C 230.074219 203.550781 229.648438 203.664062 229.253906 203.902344 C 221.179688 208.808594 214.691406 215.691406 212.152344 222.242188 C 211.976562 222.714844 211.957031 223.195312 212.09375 223.679688 C 212.226562 224.164062 212.492188 224.5625 212.886719 224.878906 C 215.804688 227.261719 218.960938 229.265625 222.359375 230.890625 C 225.757812 232.515625 229.300781 233.71875 232.988281 234.492188 C 233.175781 234.535156 233.367188 234.546875 233.5625 234.539062 C 233.757812 234.53125 233.949219 234.5 234.132812 234.441406 C 234.320312 234.386719 234.496094 234.308594 234.660156 234.207031 C 234.828125 234.105469 234.976562 233.984375 235.113281 233.847656 C 235.25 233.707031 235.367188 233.554688 235.464844 233.386719 C 235.5625 233.21875 235.636719 233.039062 235.6875 232.851562 C 235.742188 232.664062 235.769531 232.472656 235.773438 232.28125 C 235.777344 232.085938 235.757812 231.894531 235.714844 231.703125 C 233.953125 224.390625 234.269531 215.96875 235.964844 208.207031 C 236.015625 207.949219 236.023438 207.6875 235.988281 207.421875 C 235.953125 207.160156 235.875 206.910156 235.753906 206.675781 C 235.632812 206.441406 235.472656 206.230469 235.28125 206.046875 C 235.089844 205.867188 234.871094 205.722656 234.628906 205.613281 Z M 234.628906 205.613281 " fill-opacity="1" fill-rule="nonzero"/><path fill="#000000" d="M 250.867188 170.867188 C 251.855469 171.328125 252.796875 171.871094 253.6875 172.496094 C 254.066406 172.761719 254.488281 172.902344 254.953125 172.917969 C 255.414062 172.929688 255.84375 172.820312 256.238281 172.578125 C 264.320312 167.667969 270.800781 160.785156 273.335938 154.230469 C 273.511719 153.757812 273.535156 153.28125 273.398438 152.796875 C 273.265625 152.308594 273 151.910156 272.605469 151.597656 C 269.691406 149.214844 266.53125 147.207031 263.136719 145.582031 C 259.738281 143.957031 256.195312 142.757812 252.507812 141.980469 C 252.320312 141.941406 252.128906 141.925781 251.933594 141.933594 C 251.738281 141.945312 251.550781 141.976562 251.363281 142.03125 C 251.175781 142.089844 251 142.167969 250.835938 142.269531 C 250.667969 142.371094 250.519531 142.488281 250.382812 142.628906 C 250.246094 142.769531 250.128906 142.921875 250.03125 143.089844 C 249.9375 143.257812 249.859375 143.4375 249.808594 143.621094 C 249.757812 143.808594 249.726562 144 249.722656 144.195312 C 249.71875 144.390625 249.738281 144.582031 249.78125 144.769531 C 251.546875 152.089844 251.230469 160.507812 249.53125 168.273438 C 249.480469 168.535156 249.472656 168.796875 249.507812 169.058594 C 249.542969 169.320312 249.621094 169.570312 249.746094 169.804688 C 249.867188 170.039062 250.023438 170.25 250.214844 170.433594 C 250.40625 170.613281 250.625 170.757812 250.867188 170.867188 Z M 250.867188 170.867188 " fill-opacity="1" fill-rule="nonzero"/><g clip-path="url(#9666bbdb02)"><path fill="#000000" d="M 28.578125 242.15625 L 39.347656 252.925781 C 40.042969 253.625 40.847656 254.167969 41.761719 254.542969 C 42.675781 254.921875 43.628906 255.109375 44.617188 255.109375 L 141.90625 255.109375 C 142.894531 255.105469 143.84375 254.914062 144.757812 254.535156 C 145.667969 254.160156 146.476562 253.621094 147.175781 252.925781 L 157.941406 242.15625 C 158.496094 241.605469 159.160156 241.332031 159.941406 241.328125 L 176.066406 241.328125 C 176.847656 241.332031 177.511719 241.605469 178.0625 242.15625 L 188.832031 252.925781 C 189.53125 253.621094 190.335938 254.160156 191.25 254.535156 C 192.164062 254.914062 193.113281 255.105469 194.101562 255.109375 L 320.253906 255.109375 C 320.558594 255.109375 320.855469 255.050781 321.140625 254.933594 C 321.421875 254.816406 321.671875 254.648438 321.890625 254.429688 C 322.105469 254.214844 322.273438 253.960938 322.390625 253.679688 C 322.507812 253.394531 322.566406 253.101562 322.566406 252.792969 C 322.566406 252.484375 322.507812 252.191406 322.390625 251.90625 C 322.273438 251.625 322.105469 251.375 321.890625 251.15625 C 321.671875 250.9375 321.421875 250.773438 321.140625 250.652344 C 320.855469 250.535156 320.558594 250.476562 320.253906 250.476562 L 194.101562 250.476562 C 193.320312 250.476562 192.65625 250.199219 192.105469 249.652344 L 181.335938 238.882812 C 180.636719 238.183594 179.832031 237.648438 178.917969 237.269531 C 178.003906 236.890625 177.054688 236.703125 176.066406 236.699219 L 159.941406 236.699219 C 158.953125 236.703125 158 236.890625 157.089844 237.269531 C 156.175781 237.648438 155.371094 238.1875 154.667969 238.882812 L 143.902344 249.652344 C 143.351562 250.199219 142.683594 250.476562 141.90625 250.476562 L 44.617188 250.476562 C 43.835938 250.480469 43.171875 250.203125 42.621094 249.652344 L 31.851562 238.882812 C 31.300781 238.332031 31.023438 237.667969 31.027344 236.886719 L 31.027344 139.585938 C 31.023438 138.804688 31.300781 138.140625 31.851562 137.589844 L 42.621094 126.820312 C 43.171875 126.269531 43.835938 125.992188 44.617188 125.996094 L 331.417969 125.996094 L 331.417969 268.417969 C 331.417969 268.726562 331.476562 269.023438 331.59375 269.304688 C 331.710938 269.589844 331.878906 269.839844 332.097656 270.058594 C 332.3125 270.273438 332.5625 270.441406 332.847656 270.558594 C 333.132812 270.675781 333.425781 270.734375 333.734375 270.734375 L 346.199219 270.734375 C 346.507812 270.734375 346.800781 270.675781 347.085938 270.558594 C 347.371094 270.441406 347.621094 270.273438 347.835938 270.058594 C 348.054688 269.839844 348.222656 269.589844 348.339844 269.304688 C 348.457031 269.023438 348.515625 268.726562 348.515625 268.417969 C 348.515625 268.113281 348.457031 267.816406 348.339844 267.535156 C 348.222656 267.25 348.054688 267 347.835938 266.78125 C 347.621094 266.566406 347.371094 266.398438 347.085938 266.28125 C 346.800781 266.164062 346.507812 266.105469 346.199219 266.105469 L 336.046875 266.105469 L 336.046875 223.910156 L 346.199219 223.910156 C 346.507812 223.910156 346.800781 223.851562 347.085938 223.734375 C 347.371094 223.617188 347.621094 223.449219 347.835938 223.234375 C 348.054688 223.015625 348.222656 222.765625 348.339844 222.484375 C 348.457031 222.199219 348.515625 221.902344 348.515625 221.597656 C 348.515625 221.289062 348.457031 220.996094 348.339844 220.710938 C 348.222656 220.425781 348.054688 220.175781 347.835938 219.960938 C 347.621094 219.742188 347.371094 219.574219 347.085938 219.457031 C 346.800781 219.339844 346.507812 219.28125 346.199219 219.28125 L 336.046875 219.28125 L 336.046875 209.292969 L 343.445312 209.292969 C 343.78125 209.292969 344.109375 209.261719 344.4375 209.195312 C 344.761719 209.128906 345.078125 209.035156 345.386719 208.90625 C 345.691406 208.777344 345.984375 208.621094 346.261719 208.4375 C 346.539062 208.253906 346.792969 208.042969 347.027344 207.808594 C 347.265625 207.570312 347.472656 207.316406 347.660156 207.039062 C 347.84375 206.761719 348 206.46875 348.128906 206.164062 C 348.253906 205.855469 348.351562 205.539062 348.417969 205.214844 C 348.480469 204.886719 348.515625 204.558594 348.515625 204.226562 L 348.515625 172.246094 C 348.515625 171.914062 348.480469 171.585938 348.417969 171.257812 C 348.351562 170.933594 348.253906 170.617188 348.128906 170.308594 C 348 170 347.84375 169.710938 347.660156 169.433594 C 347.472656 169.15625 347.265625 168.902344 347.027344 168.664062 C 346.792969 168.429688 346.539062 168.21875 346.261719 168.035156 C 345.984375 167.851562 345.691406 167.695312 345.386719 167.566406 C 345.078125 167.4375 344.761719 167.34375 344.4375 167.277344 C 344.109375 167.210938 343.78125 167.179688 343.449219 167.179688 L 336.046875 167.179688 L 336.046875 157.191406 L 346.199219 157.191406 C 346.507812 157.191406 346.800781 157.132812 347.085938 157.015625 C 347.371094 156.898438 347.621094 156.730469 347.835938 156.511719 C 348.054688 156.296875 348.222656 156.046875 348.339844 155.761719 C 348.457031 155.476562 348.515625 155.183594 348.515625 154.875 C 348.515625 154.570312 348.457031 154.273438 348.339844 153.988281 C 348.222656 153.707031 348.054688 153.457031 347.835938 153.238281 C 347.621094 153.019531 347.371094 152.855469 347.085938 152.738281 C 346.800781 152.617188 346.507812 152.558594 346.199219 152.558594 L 336.046875 152.558594 L 336.046875 106.578125 C 336.046875 106.269531 335.988281 105.976562 335.871094 105.691406 C 335.753906 105.40625 335.585938 105.15625 335.371094 104.941406 C 335.152344 104.722656 334.902344 104.554688 334.621094 104.4375 C 334.335938 104.320312 334.039062 104.261719 333.734375 104.261719 C 333.425781 104.261719 333.132812 104.320312 332.847656 104.4375 C 332.5625 104.554688 332.3125 104.722656 332.097656 104.941406 C 331.878906 105.15625 331.710938 105.40625 331.59375 105.691406 C 331.476562 105.976562 331.417969 106.269531 331.417969 106.578125 L 331.417969 121.363281 L 308.179688 121.363281 L 308.179688 110.425781 C 308.179688 110.019531 308.136719 109.621094 308.058594 109.222656 C 307.980469 108.828125 307.863281 108.441406 307.707031 108.066406 C 307.550781 107.695312 307.363281 107.339844 307.136719 107.003906 C 306.914062 106.667969 306.65625 106.355469 306.371094 106.070312 C 306.085938 105.785156 305.773438 105.527344 305.4375 105.304688 C 305.101562 105.078125 304.746094 104.886719 304.375 104.734375 C 304 104.578125 303.613281 104.460938 303.21875 104.382812 C 302.820312 104.300781 302.421875 104.261719 302.015625 104.261719 L 216.226562 104.261719 C 215.21875 104.257812 214.273438 104.503906 213.390625 104.992188 C 212.511719 105.480469 211.804688 106.15625 211.277344 107.015625 L 208.914062 110.816406 C 208.675781 111.207031 208.328125 111.398438 207.871094 111.398438 L 191.640625 111.398438 C 191.183594 111.398438 190.835938 111.207031 190.597656 110.816406 L 188.234375 107.015625 C 187.707031 106.15625 187 105.480469 186.121094 104.992188 C 185.238281 104.503906 184.292969 104.257812 183.285156 104.261719 L 163.566406 104.261719 C 163.160156 104.261719 162.761719 104.300781 162.363281 104.382812 C 161.96875 104.460938 161.582031 104.578125 161.207031 104.734375 C 160.835938 104.886719 160.480469 105.078125 160.144531 105.304688 C 159.808594 105.527344 159.496094 105.785156 159.210938 106.070312 C 158.925781 106.355469 158.667969 106.667969 158.445312 107.003906 C 158.21875 107.339844 158.027344 107.695312 157.875 108.066406 C 157.71875 108.441406 157.601562 108.828125 157.523438 109.222656 C 157.441406 109.621094 157.402344 110.019531 157.402344 110.425781 L 157.402344 112.722656 C 157.402344 113.03125 157.460938 113.328125 157.578125 113.609375 C 157.695312 113.894531 157.863281 114.144531 158.082031 114.363281 C 158.296875 114.578125 158.546875 114.746094 158.832031 114.863281 C 159.117188 114.980469 159.410156 115.039062 159.71875 115.039062 C 160.023438 115.039062 160.320312 114.980469 160.605469 114.863281 C 160.886719 114.746094 161.136719 114.578125 161.355469 114.363281 C 161.570312 114.144531 161.738281 113.894531 161.855469 113.609375 C 161.972656 113.328125 162.03125 113.03125 162.03125 112.722656 L 162.03125 110.425781 C 162.03125 110.222656 162.070312 110.027344 162.148438 109.839844 C 162.226562 109.652344 162.339844 109.484375 162.484375 109.34375 C 162.625 109.199219 162.792969 109.085938 162.980469 109.007812 C 163.167969 108.933594 163.363281 108.894531 163.566406 108.894531 L 183.285156 108.894531 C 183.730469 108.890625 184.070312 109.078125 184.304688 109.457031 L 186.664062 113.261719 C 187.195312 114.125 187.90625 114.800781 188.792969 115.292969 C 189.679688 115.789062 190.628906 116.03125 191.640625 116.027344 L 207.871094 116.027344 C 208.882812 116.03125 209.835938 115.789062 210.71875 115.292969 C 211.605469 114.800781 212.316406 114.125 212.847656 113.261719 L 215.207031 109.457031 C 215.441406 109.078125 215.78125 108.890625 216.226562 108.894531 L 302.015625 108.894531 C 302.21875 108.894531 302.414062 108.933594 302.601562 109.007812 C 302.789062 109.085938 302.957031 109.199219 303.097656 109.34375 C 303.242188 109.484375 303.355469 109.652344 303.429688 109.839844 C 303.507812 110.027344 303.546875 110.222656 303.546875 110.425781 L 303.546875 121.363281 L 44.617188 121.363281 C 43.628906 121.359375 42.675781 121.550781 41.761719 121.925781 C 40.847656 122.304688 40.042969 122.84375 39.347656 123.546875 L 28.578125 134.316406 C 27.875 135.015625 27.335938 135.820312 26.957031 136.734375 C 26.582031 137.644531 26.394531 138.597656 26.394531 139.585938 L 26.394531 236.886719 C 26.394531 237.875 26.582031 238.824219 26.957031 239.738281 C 27.335938 240.652344 27.878906 241.457031 28.578125 242.15625 Z M 336.046875 171.808594 L 343.445312 171.808594 C 343.566406 171.808594 343.671875 171.851562 343.757812 171.9375 C 343.84375 172.023438 343.886719 172.125 343.886719 172.246094 L 343.886719 204.226562 C 343.886719 204.34375 343.84375 204.449219 343.757812 204.535156 C 343.671875 204.621094 343.566406 204.664062 343.445312 204.664062 L 336.046875 204.664062 Z M 336.046875 171.808594 " fill-opacity="1" fill-rule="nonzero"/></g><path fill="#000000" d="M 93.261719 245.085938 C 95.121094 245.085938 96.980469 244.992188 98.832031 244.808594 C 100.683594 244.628906 102.523438 244.355469 104.351562 243.992188 C 106.175781 243.628906 107.980469 243.175781 109.761719 242.636719 C 111.542969 242.097656 113.292969 241.46875 115.015625 240.757812 C 116.734375 240.042969 118.414062 239.25 120.054688 238.371094 C 121.699219 237.492188 123.292969 236.539062 124.839844 235.503906 C 126.390625 234.46875 127.882812 233.363281 129.320312 232.179688 C 130.761719 231 132.136719 229.75 133.453125 228.433594 C 134.769531 227.117188 136.019531 225.738281 137.199219 224.300781 C 138.382812 222.859375 139.488281 221.367188 140.523438 219.820312 C 141.558594 218.269531 142.515625 216.675781 143.390625 215.035156 C 144.269531 213.390625 145.0625 211.710938 145.777344 209.992188 C 146.488281 208.269531 147.117188 206.519531 147.65625 204.738281 C 148.195312 202.957031 148.648438 201.152344 149.011719 199.328125 C 149.375 197.5 149.648438 195.660156 149.828125 193.808594 C 150.011719 191.957031 150.105469 190.097656 150.105469 188.234375 C 150.105469 186.375 150.011719 184.515625 149.828125 182.664062 C 149.648438 180.8125 149.375 178.972656 149.011719 177.144531 C 148.648438 175.320312 148.195312 173.515625 147.65625 171.734375 C 147.117188 169.953125 146.488281 168.203125 145.777344 166.480469 C 145.0625 164.761719 144.269531 163.078125 143.390625 161.4375 C 142.515625 159.796875 141.558594 158.199219 140.523438 156.652344 C 139.488281 155.105469 138.382812 153.609375 137.199219 152.171875 C 136.019531 150.734375 134.769531 149.355469 133.453125 148.039062 C 132.136719 146.722656 130.761719 145.472656 129.320312 144.292969 C 127.882812 143.109375 126.390625 142.003906 124.839844 140.96875 C 123.292969 139.933594 121.699219 138.976562 120.054688 138.101562 C 118.414062 137.222656 116.734375 136.425781 115.015625 135.714844 C 113.292969 135.003906 111.542969 134.375 109.761719 133.835938 C 107.980469 133.296875 106.175781 132.84375 104.351562 132.480469 C 102.523438 132.117188 100.683594 131.84375 98.832031 131.660156 C 96.980469 131.480469 95.121094 131.386719 93.261719 131.386719 C 91.398438 131.386719 89.542969 131.480469 87.6875 131.660156 C 85.835938 131.84375 83.996094 132.117188 82.171875 132.480469 C 80.34375 132.84375 78.542969 133.296875 76.761719 133.835938 C 74.980469 134.375 73.226562 135.003906 71.507812 135.714844 C 69.789062 136.425781 68.105469 137.222656 66.464844 138.101562 C 64.824219 138.976562 63.230469 139.933594 61.679688 140.96875 C 60.132812 142.003906 58.640625 143.109375 57.199219 144.292969 C 55.761719 145.472656 54.382812 146.722656 53.066406 148.039062 C 51.75 149.355469 50.503906 150.734375 49.320312 152.171875 C 48.140625 153.609375 47.03125 155.105469 46 156.652344 C 44.964844 158.199219 44.007812 159.796875 43.128906 161.4375 C 42.253906 163.082031 41.457031 164.761719 40.746094 166.480469 C 40.03125 168.203125 39.40625 169.953125 38.867188 171.734375 C 38.324219 173.515625 37.875 175.320312 37.511719 177.144531 C 37.148438 178.972656 36.875 180.8125 36.691406 182.664062 C 36.507812 184.515625 36.417969 186.375 36.417969 188.234375 C 36.421875 190.097656 36.511719 191.953125 36.699219 193.804688 C 36.882812 195.660156 37.15625 197.496094 37.519531 199.324219 C 37.886719 201.148438 38.339844 202.949219 38.878906 204.730469 C 39.421875 206.511719 40.050781 208.261719 40.761719 209.980469 C 41.476562 211.699219 42.269531 213.378906 43.148438 215.023438 C 44.027344 216.664062 44.984375 218.257812 46.019531 219.804688 C 47.050781 221.351562 48.160156 222.84375 49.339844 224.28125 C 50.523438 225.722656 51.769531 227.097656 53.085938 228.414062 C 54.402344 229.730469 55.777344 230.980469 57.21875 232.160156 C 58.65625 233.339844 60.148438 234.449219 61.695312 235.484375 C 63.242188 236.519531 64.835938 237.476562 66.476562 238.351562 C 68.121094 239.230469 69.800781 240.027344 71.519531 240.738281 C 73.238281 241.453125 74.988281 242.082031 76.769531 242.621094 C 78.546875 243.164062 80.351562 243.617188 82.175781 243.980469 C 84 244.347656 85.839844 244.621094 87.691406 244.804688 C 89.542969 244.988281 91.398438 245.082031 93.261719 245.085938 Z M 93.261719 136.019531 C 94.972656 136.019531 96.675781 136.101562 98.378906 136.269531 C 100.082031 136.4375 101.769531 136.6875 103.449219 137.023438 C 105.125 137.355469 106.78125 137.769531 108.417969 138.265625 C 110.054688 138.761719 111.664062 139.339844 113.242188 139.992188 C 114.820312 140.648438 116.367188 141.378906 117.875 142.183594 C 119.382812 142.992188 120.847656 143.867188 122.269531 144.820312 C 123.691406 145.769531 125.0625 146.785156 126.382812 147.871094 C 127.707031 148.957031 128.972656 150.101562 130.179688 151.3125 C 131.390625 152.523438 132.539062 153.789062 133.621094 155.109375 C 134.707031 156.429688 135.722656 157.804688 136.675781 159.226562 C 137.625 160.648438 138.503906 162.113281 139.308594 163.621094 C 140.113281 165.128906 140.84375 166.671875 141.5 168.253906 C 142.152344 169.832031 142.730469 171.441406 143.226562 173.078125 C 143.722656 174.714844 144.136719 176.371094 144.46875 178.050781 C 144.804688 179.726562 145.054688 181.414062 145.222656 183.117188 C 145.390625 184.820312 145.472656 186.527344 145.472656 188.234375 C 145.472656 189.945312 145.390625 191.652344 145.222656 193.355469 C 145.054688 195.054688 144.804688 196.746094 144.46875 198.421875 C 144.136719 200.101562 143.722656 201.757812 143.226562 203.394531 C 142.730469 205.03125 142.152344 206.640625 141.5 208.21875 C 140.84375 209.800781 140.113281 211.34375 139.308594 212.851562 C 138.503906 214.359375 137.625 215.824219 136.675781 217.246094 C 135.722656 218.667969 134.707031 220.039062 133.621094 221.363281 C 132.535156 222.683594 131.390625 223.949219 130.179688 225.160156 C 128.972656 226.367188 127.707031 227.515625 126.382812 228.601562 C 125.0625 229.6875 123.691406 230.703125 122.269531 231.652344 C 120.847656 232.605469 119.382812 233.480469 117.875 234.289062 C 116.367188 235.09375 114.820312 235.824219 113.242188 236.480469 C 111.660156 237.132812 110.054688 237.707031 108.417969 238.207031 C 106.78125 238.703125 105.125 239.117188 103.445312 239.449219 C 101.769531 239.785156 100.082031 240.035156 98.378906 240.203125 C 96.675781 240.371094 94.972656 240.453125 93.261719 240.453125 C 91.550781 240.453125 89.84375 240.371094 88.144531 240.203125 C 86.441406 240.035156 84.753906 239.785156 83.074219 239.449219 C 81.398438 239.117188 79.742188 238.703125 78.105469 238.207031 C 76.46875 237.707031 74.859375 237.132812 73.28125 236.480469 C 71.699219 235.824219 70.15625 235.09375 68.648438 234.289062 C 67.140625 233.480469 65.675781 232.605469 64.253906 231.652344 C 62.832031 230.703125 61.460938 229.6875 60.136719 228.601562 C 58.816406 227.515625 57.550781 226.367188 56.339844 225.160156 C 55.132812 223.949219 53.984375 222.683594 52.898438 221.363281 C 51.816406 220.039062 50.796875 218.667969 49.847656 217.246094 C 48.898438 215.824219 48.019531 214.359375 47.214844 212.851562 C 46.40625 211.34375 45.675781 209.800781 45.023438 208.21875 C 44.367188 206.640625 43.792969 205.03125 43.296875 203.394531 C 42.800781 201.757812 42.386719 200.101562 42.050781 198.421875 C 41.71875 196.746094 41.46875 195.054688 41.300781 193.355469 C 41.132812 191.652344 41.046875 189.945312 41.046875 188.234375 C 41.050781 186.527344 41.136719 184.820312 41.304688 183.121094 C 41.472656 181.417969 41.726562 179.730469 42.0625 178.054688 C 42.394531 176.375 42.8125 174.71875 43.308594 173.085938 C 43.808594 171.449219 44.382812 169.839844 45.039062 168.261719 C 45.695312 166.683594 46.425781 165.140625 47.230469 163.632812 C 48.039062 162.125 48.914062 160.660156 49.867188 159.238281 C 50.816406 157.816406 51.832031 156.445312 52.917969 155.125 C 54.003906 153.804688 55.148438 152.539062 56.359375 151.328125 C 57.566406 150.121094 58.832031 148.972656 60.152344 147.890625 C 61.476562 146.804688 62.847656 145.785156 64.265625 144.835938 C 65.6875 143.886719 67.152344 143.007812 68.660156 142.203125 C 70.167969 141.394531 71.710938 140.664062 73.289062 140.007812 C 74.867188 139.355469 76.476562 138.777344 78.109375 138.28125 C 79.746094 137.78125 81.402344 137.367188 83.078125 137.03125 C 84.753906 136.695312 86.445312 136.445312 88.144531 136.273438 C 89.847656 136.105469 91.550781 136.019531 93.261719 136.019531 Z M 93.261719 136.019531 " fill-opacity="1" fill-rule="nonzero"/><path fill="#000000" d="M 324.570312 212.769531 L 304.9375 212.769531 C 304.632812 212.769531 304.335938 212.828125 304.054688 212.945312 C 303.769531 213.0625 303.519531 213.230469 303.300781 213.449219 C 303.085938 213.664062 302.917969 213.914062 302.800781 214.199219 C 302.683594 214.480469 302.625 214.777344 302.625 215.085938 C 302.625 215.390625 302.683594 215.6875 302.800781 215.96875 C 302.917969 216.253906 303.085938 216.503906 303.300781 216.722656 C 303.519531 216.9375 303.769531 217.105469 304.054688 217.222656 C 304.335938 217.339844 304.632812 217.398438 304.9375 217.398438 L 324.570312 217.398438 C 324.878906 217.398438 325.171875 217.339844 325.457031 217.222656 C 325.738281 217.105469 325.992188 216.9375 326.207031 216.722656 C 326.425781 216.503906 326.59375 216.253906 326.710938 215.96875 C 326.828125 215.6875 326.886719 215.390625 326.886719 215.085938 C 326.886719 214.777344 326.828125 214.480469 326.710938 214.199219 C 326.59375 213.914062 326.425781 213.664062 326.207031 213.449219 C 325.992188 213.230469 325.738281 213.0625 325.457031 212.945312 C 325.171875 212.828125 324.878906 212.769531 324.570312 212.769531 Z M 324.570312 212.769531 " fill-opacity="1" fill-rule="nonzero"/><path fill="#000000" d="M 324.570312 194.871094 L 308.28125 194.871094 C 307.972656 194.871094 307.675781 194.929688 307.394531 195.046875 C 307.109375 195.164062 306.859375 195.332031 306.644531 195.546875 C 306.425781 195.765625 306.257812 196.015625 306.140625 196.300781 C 306.023438 196.582031 305.964844 196.878906 305.964844 197.1875 C 305.964844 197.492188 306.023438 197.789062 306.140625 198.070312 C 306.257812 198.355469 306.425781 198.605469 306.644531 198.824219 C 306.859375 199.039062 307.109375 199.207031 307.394531 199.324219 C 307.675781 199.441406 307.972656 199.5 308.28125 199.5 L 324.570312 199.5 C 324.878906 199.5 325.171875 199.441406 325.457031 199.324219 C 325.738281 199.207031 325.992188 199.039062 326.207031 198.824219 C 326.425781 198.605469 326.59375 198.355469 326.710938 198.070312 C 326.828125 197.789062 326.886719 197.492188 326.886719 197.1875 C 326.886719 196.878906 326.828125 196.582031 326.710938 196.300781 C 326.59375 196.015625 326.425781 195.765625 326.207031 195.546875 C 325.992188 195.332031 325.738281 195.164062 325.457031 195.046875 C 325.171875 194.929688 324.878906 194.871094 324.570312 194.871094 Z M 324.570312 194.871094 " fill-opacity="1" fill-rule="nonzero"/><path fill="#000000" d="M 324.570312 176.972656 L 308.28125 176.972656 C 307.972656 176.972656 307.675781 177.03125 307.394531 177.148438 C 307.109375 177.265625 306.859375 177.433594 306.644531 177.648438 C 306.425781 177.867188 306.257812 178.117188 306.140625 178.402344 C 306.023438 178.683594 305.964844 178.980469 305.964844 179.285156 C 305.964844 179.59375 306.023438 179.890625 306.140625 180.171875 C 306.257812 180.457031 306.425781 180.707031 306.644531 180.921875 C 306.859375 181.140625 307.109375 181.308594 307.394531 181.425781 C 307.675781 181.542969 307.972656 181.601562 308.28125 181.601562 L 324.570312 181.601562 C 324.878906 181.601562 325.171875 181.542969 325.457031 181.425781 C 325.738281 181.308594 325.992188 181.140625 326.207031 180.921875 C 326.425781 180.707031 326.59375 180.457031 326.710938 180.171875 C 326.828125 179.890625 326.886719 179.59375 326.886719 179.285156 C 326.886719 178.980469 326.828125 178.683594 326.710938 178.402344 C 326.59375 178.117188 326.425781 177.867188 326.207031 177.648438 C 325.992188 177.433594 325.738281 177.265625 325.457031 177.148438 C 325.171875 177.03125 324.878906 176.972656 324.570312 176.972656 Z M 324.570312 176.972656 " fill-opacity="1" fill-rule="nonzero"/><path fill="#000000" d="M 324.570312 159.074219 L 304.9375 159.074219 C 304.632812 159.074219 304.335938 159.132812 304.054688 159.25 C 303.769531 159.367188 303.519531 159.535156 303.300781 159.75 C 303.085938 159.96875 302.917969 160.21875 302.800781 160.5 C 302.683594 160.785156 302.625 161.082031 302.625 161.386719 C 302.625 161.695312 302.683594 161.988281 302.800781 162.273438 C 302.917969 162.558594 303.085938 162.808594 303.300781 163.023438 C 303.519531 163.242188 303.769531 163.410156 304.054688 163.527344 C 304.335938 163.644531 304.632812 163.703125 304.9375 163.703125 L 324.570312 163.703125 C 324.878906 163.703125 325.171875 163.644531 325.457031 163.527344 C 325.738281 163.410156 325.992188 163.242188 326.207031 163.023438 C 326.425781 162.808594 326.59375 162.558594 326.710938 162.273438 C 326.828125 161.988281 326.886719 161.695312 326.886719 161.386719 C 326.886719 161.082031 326.828125 160.785156 326.710938 160.5 C 326.59375 160.21875 326.425781 159.96875 326.207031 159.75 C 325.992188 159.535156 325.738281 159.367188 325.457031 159.25 C 325.171875 159.132812 324.878906 159.074219 324.570312 159.074219 Z M 324.570312 159.074219 " fill-opacity="1" fill-rule="nonzero"/><path fill="#000000" d="M 41.785156 235.28125 C 41.785156 235.691406 41.863281 236.089844 42.023438 236.46875 C 42.179688 236.851562 42.402344 237.183594 42.695312 237.476562 C 42.984375 237.769531 43.320312 237.992188 43.703125 238.148438 C 44.082031 238.308594 44.480469 238.386719 44.890625 238.386719 C 45.300781 238.386719 45.699219 238.308594 46.078125 238.148438 C 46.457031 237.992188 46.792969 237.769531 47.085938 237.476562 C 47.375 237.183594 47.601562 236.851562 47.757812 236.46875 C 47.917969 236.089844 47.996094 235.691406 47.996094 235.28125 C 47.996094 234.871094 47.917969 234.472656 47.757812 234.09375 C 47.601562 233.710938 47.375 233.375 47.085938 233.085938 C 46.792969 232.792969 46.457031 232.570312 46.078125 232.414062 C 45.699219 232.253906 45.300781 232.175781 44.890625 232.175781 C 44.480469 232.175781 44.082031 232.253906 43.703125 232.414062 C 43.320312 232.570312 42.984375 232.792969 42.695312 233.085938 C 42.402344 233.375 42.179688 233.710938 42.023438 234.09375 C 41.863281 234.472656 41.785156 234.871094 41.785156 235.28125 Z M 41.785156 235.28125 " fill-opacity="1" fill-rule="nonzero"/><path fill="#000000" d="M 47.996094 141.191406 C 47.996094 140.78125 47.917969 140.382812 47.757812 140.003906 C 47.601562 139.621094 47.375 139.285156 47.085938 138.996094 C 46.792969 138.703125 46.457031 138.480469 46.078125 138.324219 C 45.699219 138.164062 45.300781 138.085938 44.890625 138.085938 C 44.480469 138.085938 44.082031 138.164062 43.703125 138.324219 C 43.320312 138.480469 42.984375 138.703125 42.695312 138.996094 C 42.402344 139.285156 42.179688 139.621094 42.023438 140.003906 C 41.863281 140.382812 41.785156 140.78125 41.785156 141.191406 C 41.785156 141.601562 41.863281 142 42.023438 142.378906 C 42.179688 142.761719 42.402344 143.097656 42.695312 143.386719 C 42.984375 143.679688 43.320312 143.902344 43.703125 144.058594 C 44.082031 144.21875 44.480469 144.296875 44.890625 144.296875 C 45.300781 144.296875 45.699219 144.21875 46.078125 144.058594 C 46.457031 143.902344 46.792969 143.679688 47.085938 143.386719 C 47.375 143.097656 47.601562 142.761719 47.757812 142.378906 C 47.917969 142 47.996094 141.601562 47.996094 141.191406 Z M 47.996094 141.191406 " fill-opacity="1" fill-rule="nonzero"/><path fill="#000000" d="M 164.867188 224.703125 C 164.867188 224.289062 164.945312 223.894531 165.101562 223.515625 C 165.257812 223.132812 165.484375 222.796875 165.773438 222.507812 C 166.066406 222.214844 166.402344 221.992188 166.78125 221.832031 C 167.164062 221.675781 167.558594 221.597656 167.96875 221.597656 C 168.382812 221.597656 168.777344 221.675781 169.160156 221.832031 C 169.539062 221.992188 169.875 222.214844 170.164062 222.507812 C 170.457031 222.796875 170.679688 223.132812 170.839844 223.515625 C 170.996094 223.894531 171.074219 224.289062 171.074219 224.703125 C 171.074219 225.113281 170.996094 225.511719 170.839844 225.890625 C 170.679688 226.269531 170.457031 226.605469 170.164062 226.898438 C 169.875 227.1875 169.539062 227.414062 169.160156 227.570312 C 168.777344 227.726562 168.382812 227.808594 167.96875 227.808594 C 167.558594 227.808594 167.164062 227.726562 166.78125 227.570312 C 166.402344 227.414062 166.066406 227.1875 165.773438 226.898438 C 165.484375 226.605469 165.257812 226.269531 165.101562 225.890625 C 164.945312 225.511719 164.867188 225.113281 164.867188 224.703125 Z M 164.867188 224.703125 " fill-opacity="1" fill-rule="nonzero"/><path fill="#000000" d="M 164.867188 141.191406 C 164.867188 140.78125 164.945312 140.382812 165.101562 140.003906 C 165.257812 139.621094 165.484375 139.285156 165.773438 138.996094 C 166.066406 138.703125 166.402344 138.480469 166.78125 138.324219 C 167.164062 138.164062 167.558594 138.085938 167.96875 138.085938 C 168.382812 138.085938 168.777344 138.164062 169.160156 138.324219 C 169.539062 138.480469 169.875 138.703125 170.164062 138.996094 C 170.457031 139.285156 170.679688 139.621094 170.839844 140.003906 C 170.996094 140.382812 171.074219 140.78125 171.074219 141.191406 C 171.074219 141.601562 170.996094 142 170.839844 142.378906 C 170.679688 142.761719 170.457031 143.097656 170.164062 143.386719 C 169.875 143.679688 169.539062 143.902344 169.160156 144.058594 C 168.777344 144.21875 168.382812 144.296875 167.96875 144.296875 C 167.558594 144.296875 167.164062 144.21875 166.78125 144.058594 C 166.402344 143.902344 166.066406 143.679688 165.773438 143.386719 C 165.484375 143.097656 165.257812 142.761719 165.101562 142.378906 C 164.945312 142 164.867188 141.601562 164.867188 141.191406 Z M 164.867188 141.191406 " fill-opacity="1" fill-rule="nonzero"/><path fill="#000000" d="M 317.148438 235.28125 C 317.148438 234.867188 317.226562 234.472656 317.382812 234.09375 C 317.542969 233.710938 317.765625 233.375 318.058594 233.085938 C 318.347656 232.792969 318.683594 232.570312 319.066406 232.410156 C 319.445312 232.253906 319.839844 232.175781 320.253906 232.175781 C 320.664062 232.175781 321.058594 232.253906 321.441406 232.410156 C 321.820312 232.570312 322.15625 232.792969 322.449219 233.085938 C 322.738281 233.375 322.964844 233.710938 323.121094 234.09375 C 323.277344 234.472656 323.359375 234.867188 323.359375 235.28125 C 323.359375 235.691406 323.277344 236.089844 323.121094 236.46875 C 322.964844 236.847656 322.738281 237.183594 322.449219 237.476562 C 322.15625 237.765625 321.820312 237.992188 321.441406 238.148438 C 321.058594 238.308594 320.664062 238.386719 320.253906 238.386719 C 319.839844 238.386719 319.445312 238.308594 319.066406 238.148438 C 318.683594 237.992188 318.347656 237.765625 318.058594 237.476562 C 317.765625 237.183594 317.542969 236.847656 317.382812 236.46875 C 317.226562 236.089844 317.148438 235.691406 317.148438 235.28125 Z M 317.148438 235.28125 " fill-opacity="1" fill-rule="nonzero"/><path fill="#000000" d="M 317.148438 141.191406 C 317.148438 140.78125 317.226562 140.382812 317.382812 140.003906 C 317.542969 139.621094 317.765625 139.285156 318.058594 138.996094 C 318.347656 138.703125 318.683594 138.480469 319.066406 138.324219 C 319.445312 138.164062 319.839844 138.085938 320.253906 138.085938 C 320.664062 138.085938 321.058594 138.164062 321.441406 138.324219 C 321.820312 138.480469 322.15625 138.703125 322.449219 138.996094 C 322.738281 139.285156 322.964844 139.621094 323.121094 140.003906 C 323.277344 140.382812 323.359375 140.78125 323.359375 141.191406 C 323.359375 141.601562 323.277344 142 323.121094 142.378906 C 322.964844 142.761719 322.738281 143.097656 322.449219 143.386719 C 322.15625 143.679688 321.820312 143.902344 321.441406 144.058594 C 321.058594 144.21875 320.664062 144.296875 320.253906 144.296875 C 319.839844 144.296875 319.445312 144.21875 319.066406 144.058594 C 318.683594 143.902344 318.347656 143.679688 318.058594 143.386719 C 317.765625 143.097656 317.542969 142.761719 317.382812 142.378906 C 317.226562 142 317.148438 141.601562 317.148438 141.191406 Z M 317.148438 141.191406 " fill-opacity="1" fill-rule="nonzero"/></svg>